<?xml version="1.0" encoding="utf-8"?>
<svg xmlns="http://www.w3.org/2000/svg" viewBox="0 0 40 40">
<path fill="currentColor" d="M0 0h40v40H0z"/><path fill="#fff" d="M4.762 33.806V19.401s2.069.614 3.759 1.403c1.679.788 2.293.952 3.358 1.74 1.066.788 1.29 1.116 1.29 1.116s.728-.655 1.342-.727c.82-.092 1.854.277 2.407.901l1.126 1.229s.84-.727 2.745.276c1.905 1.014 3.195 1.966 4.147 3.307s1.004 1.566 1.004 1.566 1.014-.675 2.294.113c1.29.788 2.017 1.74 2.191 1.853.164.113 1.905-.225 2.694.277.788.501 1.679 1.34 1.679 1.34H4.752zm15.566-11.18a3.36 3.36 0 0 1 3.36-3.358 3.36 3.36 0 0 1 3.358 3.358 3.36 3.36 0 0 1-3.359 3.358 3.36 3.36 0 0 1-3.359-3.358M7.66 17.466a3.36 3.36 0 0 1 3.36-3.358 3.36 3.36 0 0 1 3.358 3.358 3.36 3.36 0 0 1-3.359 3.358 3.36 3.36 0 0 1-3.359-3.358"/><path fill="#fff" d="m19.231 20.415-3.471-1.628s.112-1.74-.164-2.631c-.287-.901-.87-2.058-2.407-2.918-1.003-.563-1.566-.676-2.017-.788a17 17 0 0 0-1.854-.338s1.403-2.918 1.567-3.307c.164-.39.84-.45 1.342-.225s5.263 1.955 5.601 2.016c.338.052.615 0 .84-.276.225-.287 2.806-3.921 2.97-4.208s.614-.563.952-.389 11.664 5.826 12.105 6.05c.45.226.502.277.389.728s-5.51 11.978-5.714 12.275c-.297.43-.676.113-.676.113s.112-.277.112-.84.103-2.62-.758-3.921c-.808-1.239-1.74-2.099-3.532-2.385-1.793-.277-3.165.256-4.066 1.146-.901.901-1.229 1.515-1.229 1.515z"/><path fill="currentColor" d="M6.686 30.888h2.621v1.188h1.598v-1.188h.717V29.64h-.717v-3.256H9.338l-2.652 3.154z"/><path fill="#fff" d="M9.309 27.899v1.74H7.957z"/><path fill="currentColor" d="M12.084 32.076h1.864l.604-1.219.604 1.219h1.874l-1.464-2.222 1.444-2.007h-1.844l-.563 1.055-.532-1.055h-1.864l1.393 2.017zm5.366-1.188h2.631v1.188h1.598v-1.188h.706V29.64h-.706v-3.256h-1.567l-2.663 3.154v1.351Z"/><path fill="#fff" d="M20.08 27.899v1.74h-1.36l1.362-1.74Z"/><path fill="currentColor" fill-rule="evenodd" d="m26.85 9.695-4.362-2.16-2.222 4.229 4.362 2.16zm6.145 3.103-4.363-2.15-2.222 4.218 4.363 2.16z" clip-rule="evenodd"/>
</svg>
