<?xml version="1.0" encoding="utf-8"?>
<svg xmlns="http://www.w3.org/2000/svg" viewBox="0 0 384 452">
<path fill="currentColor" d="M192.795 451.048c-.815.838-.895.838-1.765 0l-37.165-37.012a1.21 1.21 0 0 1-.09-1.575l9.283-9.316c.37-.398 1.132-.63 1.762-.007l19.158 18.953v-48.553c0-.668.545-1.214 1.215-1.214h13.445c.67 0 1.217.544 1.215 1.214v48.553l19.157-18.953c.63-.618 1.39-.386 1.76.012l9.285 9.314a1.21 1.21 0 0 1-.092 1.572l-37.165 37.015zM192.795 358.048c-.815.838-.895.838-1.765 0l-37.165-37.012a1.21 1.21 0 0 1-.09-1.575l9.283-9.316c.37-.398 1.132-.63 1.762-.007l19.158 18.953v-48.553c0-.668.545-1.214 1.215-1.214h13.445c.67 0 1.217.544 1.215 1.214v48.553l19.157-18.953c.63-.618 1.39-.386 1.76.012l9.285 9.314a1.21 1.21 0 0 1-.092 1.572l-37.165 37.015zM116.795 318.048c-.815.838-.895.838-1.765 0l-37.165-37.012a1.21 1.21 0 0 1-.09-1.575l9.283-9.316c.37-.398 1.132-.63 1.762-.007l19.158 18.953v-48.553c0-.668.545-1.214 1.215-1.214h13.445c.67 0 1.217.544 1.215 1.214v48.553l19.157-18.953c.63-.618 1.39-.386 1.76.012l9.285 9.314a1.21 1.21 0 0 1-.092 1.572l-37.165 37.015zM268.795 318.048c-.815.838-.895.838-1.765 0l-37.165-37.012a1.21 1.21 0 0 1-.09-1.575l9.283-9.316c.37-.398 1.132-.63 1.762-.007l19.158 18.953v-48.553c0-.668.545-1.214 1.215-1.214h13.445c.67 0 1.217.544 1.215 1.214v48.553l19.157-18.953c.63-.618 1.39-.386 1.76.012l9.285 9.314a1.21 1.21 0 0 1-.092 1.572l-37.165 37.015zM268.795 225.048c-.815.838-.895.838-1.765 0l-37.165-37.012a1.21 1.21 0 0 1-.09-1.575l9.283-9.316c.37-.398 1.132-.63 1.762-.007l19.158 18.953v-48.553c0-.668.545-1.214 1.215-1.214h13.445c.67 0 1.217.544 1.215 1.214v48.553l19.157-18.953c.63-.618 1.39-.386 1.76.012l9.285 9.314a1.21 1.21 0 0 1-.092 1.572l-37.165 37.015zM268.795 132.048c-.815.838-.895.838-1.765 0l-37.165-37.012a1.21 1.21 0 0 1-.09-1.575l9.283-9.316c.37-.398 1.132-.63 1.762-.007l19.158 18.953V54.538c0-.668.545-1.214 1.215-1.214h13.445c.67 0 1.217.544 1.215 1.214v48.553l19.157-18.953c.63-.618 1.39-.386 1.76.012l9.285 9.314a1.21 1.21 0 0 1-.092 1.572l-37.165 37.015zM192.795 265.048c-.815.838-.895.838-1.765 0l-37.165-37.012a1.21 1.21 0 0 1-.09-1.575l9.283-9.316c.37-.398 1.132-.63 1.762-.007l19.158 18.953v-48.553c0-.668.545-1.214 1.215-1.214h13.445c.67 0 1.217.544 1.215 1.214v48.553l19.157-18.953c.63-.618 1.39-.386 1.76.012l9.285 9.314a1.21 1.21 0 0 1-.092 1.572l-37.165 37.015zM344.795 265.048c-.815.838-.895.838-1.765 0l-37.165-37.012a1.21 1.21 0 0 1-.09-1.575l9.283-9.316c.37-.398 1.132-.63 1.762-.007l19.158 18.953v-48.553c0-.668.545-1.214 1.215-1.214h13.445c.67 0 1.217.544 1.215 1.214v48.553l19.157-18.953c.63-.618 1.39-.386 1.76.012l9.285 9.314a1.21 1.21 0 0 1-.092 1.572l-37.165 37.015zM116.795 225.048c-.815.838-.895.838-1.765 0l-37.165-37.012a1.21 1.21 0 0 1-.09-1.575l9.283-9.316c.37-.398 1.132-.63 1.762-.007l19.158 18.953v-48.553c0-.668.545-1.214 1.215-1.214h13.445c.67 0 1.217.544 1.215 1.214v48.553l19.157-18.953c.63-.618 1.39-.386 1.76.012l9.285 9.314a1.21 1.21 0 0 1-.092 1.572l-37.165 37.015zM192.795 172.048c-.815.838-.895.838-1.765 0l-37.165-37.012a1.21 1.21 0 0 1-.09-1.575l9.283-9.316c.37-.398 1.132-.63 1.762-.007l19.158 18.953V94.538c0-.668.545-1.214 1.215-1.214h13.445c.67 0 1.217.544 1.215 1.214v48.553l19.157-18.953c.63-.618 1.39-.386 1.76.012l9.285 9.314a1.21 1.21 0 0 1-.092 1.572l-37.165 37.015zM40.795 172.048c-.815.838-.895.838-1.765 0L1.865 135.036a1.21 1.21 0 0 1-.09-1.575l9.283-9.316c.37-.398 1.132-.63 1.762-.007l19.158 18.953V94.538c0-.668.545-1.214 1.215-1.214h13.445c.67 0 1.217.544 1.215 1.214v48.553l19.157-18.953c.63-.618 1.39-.386 1.76.012l9.285 9.314a1.21 1.21 0 0 1-.092 1.572l-37.165 37.015zM116.795 132.048c-.815.838-.895.838-1.765 0L77.865 95.036a1.21 1.21 0 0 1-.09-1.575l9.283-9.316c.37-.398 1.132-.63 1.762-.007l19.158 18.953V54.538c0-.668.545-1.214 1.215-1.214h13.445c.67 0 1.217.544 1.215 1.214v48.553l19.157-18.953c.63-.618 1.39-.386 1.76.012l9.285 9.314a1.21 1.21 0 0 1-.092 1.572l-37.165 37.015zM192.795 79.048c-.815.838-.895.838-1.765 0l-37.165-37.012a1.21 1.21 0 0 1-.09-1.575l9.283-9.316c.37-.398 1.132-.63 1.762-.007l19.158 18.953V1.538c0-.668.545-1.214 1.215-1.214h13.445c.67 0 1.217.544 1.215 1.214V50.09l19.157-18.953c.63-.618 1.39-.386 1.76.012l9.285 9.314a1.21 1.21 0 0 1-.092 1.572l-37.165 37.015z"/>
</svg>
