<?xml version="1.0" encoding="utf-8"?>
<svg xmlns="http://www.w3.org/2000/svg" viewBox="0 0 40 40">
<path fill="currentColor" d="M0 0h40v40H0z"/><path fill="#fff" d="M17.175 8.53h-2.087c-2.148 0-2.627 3.45-3.176 6.218-.56 2.82-.662 3.512-.754 4.244-.132.998.51 1.883 1.07 1.904.966.02 2.402 0 2.402 0l2.545-12.357v-.01Zm-1.159 9.933.305-1.455s.743-3.664.906-4.357c.295-1.262 1.039-2.005 2.596-1.923 1.466.071 2.108.488 3.075 2.3.254.478.397.926.804 1.66l1.497 2.991s.122.143.397.265c.346.163 2.972 1.445 3.532 1.66.56.213.988 1.017.672 1.658s-.824.774-1.547.56-4.358-2.168-4.602-2.3c-.244-.133-1.578-3.054-1.629-3.267s-.132-.102-.132.132c0 .132-.153 1.343-.295 2.483-3.655.845-5.57-.407-5.57-.407h-.01Z"/><path fill="#fff" d="M21.46 19.827a56 56 0 0 1-.142 1.079c-.03.214-.203.855.03 1.232.296.478 1.579 2.727 1.844 3.104.794 1.11.366 2.107.295 2.463-.082.377-1.1 5.11-1.252 5.588-.163.478-.723.936-1.334.834-.764-.132-1.15-.855-.988-1.364.204-.63 1.1-5.16 1.202-5.455.122-.346.224-.478 0-.774-.265-.346-2.352-3.857-2.596-4.04s-.886-.326-.988.163c-.112.488-.743 4.091-.804 4.305-.071.305-.244.509-.479.885-.244.377-4.041 5.028-4.276 5.405-.244.377-.61.55-.987.56-1.018.01-1.507-1.201-1.049-1.812.459-.61 4.286-5.394 4.419-5.588 0 0 .081-.203.163-.62.06-.296.804-3.878 1.323-6.372 0 0 1.873 1.19 5.64.427l-.02-.02ZM19.14 7.98a2.48 2.48 0 0 1 2.485-2.484 2.48 2.48 0 0 1 2.484 2.484 2.48 2.48 0 0 1-2.484 2.483A2.48 2.48 0 0 1 19.14 7.98"/>
</svg>
