<?xml version="1.0" encoding="utf-8"?>
<svg xmlns="http://www.w3.org/2000/svg" viewBox="0 0 40 40">
<g><path fill="currentColor" d="M40 0H0v40h40z"/><g><path fill="#fff" fill-rule="evenodd" d="m10.389 23.422 1.485-2.572 1.29-1.629v-.953l1.281-.491.502-2.254 1.495-.585.728-2.725 1.24-1.762 1.505-2.52.666-.277 2.407 2.285.963.512 1.014 1.106.502 1.363.502.912v.656l.481-.051.625 1.106 1.055 1.004 2.07 3.986-.554 4.938-2.663 4.19-14.669-.306z" clip-rule="evenodd"/><g><path fill="#fff" fill-rule="evenodd" d="m2.5 31.168 1.393-3.463 1.383-2.08 1.055-.564 2.192-3.729 2.899 1.711 1.997.666 1.66 1.865 2.09 1.311v.707l1.392-.358 1.383.82 1.28 1.25.308 1.413z" clip-rule="evenodd"/><path fill="currentColor" d="m8.524 21.332 2.899 1.7 1.997.667 1.66 1.864 2.089 1.312v.707l1.383-.359 1.383.81 1.28 1.25.297 1.414-19.022.45 1.393-3.463 1.383-2.08 1.055-.563 2.182-3.73m-.4-1.567-.593 1.004-2.018 3.443-.769.41-.256.133-.164.245-1.382 2.08-.062.103-.04.113-1.394 3.463-.655 1.639 1.761-.04 19.022-.452 1.403-.03-.297-1.373-.307-1.414-.072-.338-.256-.246-1.28-1.25-.102-.103-.123-.072-1.383-.809-.41-.246-.461.123-.102.03-.38-.235-1.956-1.22-1.557-1.741-.205-.225-.297-.103-1.885-.635-2.796-1.64-1.004-.594z"/></g><g><path fill="#fff" fill-rule="evenodd" d="m17.65 31.875 3.248-3.258 2.14-1.578.82-1.394 1.383-.922 1.936-.655.706-1.711s1.004-.871 1.107-1.015.635-1.475.635-1.475l2.192-1.67.686 1.373 1.117 1.383.481 1.567.727 1.763.205 1.414 1.352.573v1.896l1.107 2.418v1.783l-19.831-.482z" clip-rule="evenodd"/><path fill="currentColor" d="m31.816 18.187.687 1.372 1.116 1.384.482 1.567.727 1.762.205 1.415 1.352.573v1.896l1.106 2.418v1.783l-19.83-.482 3.246-3.258 2.141-1.578.82-1.394 1.383-.922 1.935-.655.707-1.711s1.004-.871 1.107-1.015.635-1.475.635-1.475l2.192-1.67m.41-1.793-1.117.85-2.192 1.67-.256.195-.123.297c-.184.45-.41 1.004-.512 1.23-.174.163-.574.522-.912.809l-.205.184-.102.256-.502 1.23-1.434.482-.144.05-.123.083-1.382.922-.226.154-.133.225-.697 1.189-1.946 1.434-.071.051-.062.062-3.247 3.258-1.915 1.926 2.714.062 19.831.481 1.188.03v-3.227l-.102-.235-.994-2.193v-2.408l-.707-.297-.747-.317-.113-.759-.02-.143-.052-.133-.706-1.711-.472-1.517-.071-.215-.144-.174-1.034-1.28-.625-1.261-.625-1.26z"/></g><path fill="currentColor" fill-rule="evenodd" d="m20.548 9.641-2.151 3.996-.471 2.172 1.168-.952 1.505.686.85-.85 1.414.994.666-1.312 1.045.912-.758-2.254-1.486-1.076zM8.913 23.648 7.264 26.31l-.973.584 1.844-.379 1.598.38V25.88l1.383.635v-1.25l2.007.267zM31.273 20.984l-2.326 3.76 1.64-.912.686.912.522-.717 1.29.717z" clip-rule="evenodd"/></g></g>
</svg>
