<?xml version="1.0" encoding="utf-8"?>
<svg xmlns="http://www.w3.org/2000/svg" viewBox="0 0 40 40">
<g><path fill="currentColor" d="M0 0h40v40H0z"/><path fill="#fff" d="M6.992 32.084v-5.24c.062-3.168 2.348-5.014 2.348-5.014s.092 2.656.963 3.825c.298.4 1.251 1.692 1.21 1.374s0-1.354.133-2.615c.308-2.779 1.61-3.435 1.61-3.435s.235 1.774.8 2.83c.584 1.067 1.557 2.215 1.557 2.215 0-.359.349-1.65 1.046-2.871 1.128-1.99 3.342-2.84 3.342-2.84s-.308 1.097-.297 1.825c.04 3.097 1.65 4.05 1.65 4.05.092-.266.472-1.528.953-2.256.913-1.394 2.758-1.989 2.758-1.989s-.697 1.62.676 3.168c.687.78 1.764 1.539 1.764 1.539s-.041-.944-.185-1.538c-.133-.585-.225-1.22.041-2.164.267-.954.636-1.128.636-1.128s0 1.405 2.122 3.076c.605.482 1.896 1.856 2.03 2.666s.184 1.446.184 1.446v3.117H6.993zM19.632 10.07c-.44 0-.564.112-.564.512v.882c0 .369-.164.44-.82.44H6.992v1.313h11.266c.605 0 .82.072.82.441v.882c0 .215-.02.461.564.461h4.295c.113 1.19.37 2.646 1.066 3.825.462.79 1.21 1.866 2.43 1.405 1.568-.605.933-1.723.933-1.723s-1.097-2.615-1.353-3.496h3.075c.256 0 .513-.052.513-.37 0-.348-.328-.42-.513-.42H26.9c-.03-.38-.062-.81-.062-1.261h3.26c.236 0 .513-.052.513-.4 0-.256-.277-.4-.513-.4h-3.24c.011-.318.042-.615.073-.882.02-.113.03-.236.05-.369h3.117c.185 0 .513-.072.513-.4s-.277-.44-.513-.44h-2.952c.174-.862.359-1.754.287-2.236-.061-.462-.4-1.118-1.117-1.118-.892 0-1.815.328-2.05 1.866-.072.462-.144.974-.206 1.508l-4.418-.01z"/><path fill="currentColor" d="M23.824 12.96v.513c0 .216.03.462.041.749h-2.501c-.144 0-.257-.092-.257-.205v-.82c0-.144.093-.236.257-.236h2.46M21.383 12.161c-.184 0-.256-.051-.256-.236v-.697c0-.236.092-.328.256-.328h2.573c-.04.44-.082.871-.102 1.271l-2.481-.01z"/></g>
</svg>
