<?xml version="1.0" encoding="utf-8"?>
<svg xmlns="http://www.w3.org/2000/svg" viewBox="0 0 40 40">
<path fill="currentColor" d="M40 0H0v40h40z"/><path fill="#fff" d="M20.318 7.435c2.01 0 8.324.45 10.703 2.621-3.199.041-5.782 2.653-5.792 5.858 0 1.618.646 3.072 1.701 4.137-.45-.04-2.224-.307-3.72-2.058-.226.41-.503.809-.841 1.208-.636.758-1.928 1.434-1.938 2.52 0 2.826 5.167 2.785 5.156 6.175 0 3.471-4.008 4.649-7.063 4.649-2.06 0-4.408-1.229-4.408-3.533 0-4.24 2.768-7.128 3.322-10.999-1.497 1.71-3.25 1.967-3.69 2.007a5.83 5.83 0 0 0 1.711-4.137c0-3.205-2.573-5.827-5.771-5.878 2.378-2.16 8.642-2.601 10.62-2.601l.01.03Zm2.389 9.892a8 8 0 0 1-.707-1.3c-.503-1.086-1.21-1.403-1.64-1.403-.482.02-1.138.317-1.651 1.403a7 7 0 0 1-.4.799c-.061 4.639-3.413 7.66-3.413 12.206 0 1.66 1.742 2.776 3.649 2.776 3.116 0 6.304-1.199 6.304-3.892 0-2.816-5.166-2.796-5.156-6.175 0-1.516 1.281-2.028 2.112-3.01.39-.462.687-.922.912-1.394zm-13.111-6.78a5.354 5.354 0 0 1 5.35 5.357c0 2.96-2.408 5.345-5.36 5.345a5.354 5.354 0 0 1-5.352-5.355c0-2.96 2.41-5.346 5.362-5.346Zm0 .953c-2.43 0-4.408 1.966-4.408 4.393a4.42 4.42 0 0 0 4.397 4.414 4.42 4.42 0 0 0 4.419-4.393 4.403 4.403 0 0 0-4.398-4.403zm21.517-.921a5.354 5.354 0 0 1 5.351 5.355c0 2.96-2.409 5.346-5.361 5.346a5.354 5.354 0 0 1-5.352-5.356c0-2.96 2.41-5.345 5.362-5.345m0 .942c-2.43 0-4.408 1.966-4.408 4.393a4.403 4.403 0 0 0 8.806.01 4.403 4.403 0 0 0-4.398-4.403"/><path fill="currentColor" d="M20.39 13.231h-.082a2.59 2.59 0 0 1-2.501-2.59 2.597 2.597 0 0 1 2.5-2.592h.082a2.59 2.59 0 0 1 2.502 2.591 2.597 2.597 0 0 1-2.501 2.591m-1.845-2.58c0 1.003.82 1.822 1.824 1.822s1.825-.82 1.825-1.823-.82-1.823-1.825-1.823-1.824.82-1.824 1.823Z"/><path fill="#fff" fill-rule="evenodd" d="M33.541 13.026s-2.573.84-2.635 1.946c0 0-.071 1.147-.82 1.167 0 0-.584-.379-1.066-.04-.205.143-.42.173-.42.173l.43.031.657.277s-.349.092-.564.174c0 0-1.005.747-1.107 1.761 0 0 .994-.04 1.701-.666 0 0 .185-.245.8-.358l.656-.133.769.727s.523-.072.523-.655c0 0-.749-.277-.964-.553 0 0 .523-.635.677-1.864 0 0 .686-.553 1.158-1.588l.184-.399z" clip-rule="evenodd"/>
</svg>
