<?xml version="1.0" encoding="utf-8"?>
<svg xmlns="http://www.w3.org/2000/svg" viewBox="0 0 40 40">
<path fill="currentColor" d="M0 0h40v40H0z"/><path fill="#fff" d="M23.445 8.58c3.235.409 4.638 2.364 4.638 2.364l4.269-1.32s.952 4.975-5.078 8.385l6.358-1.393v.932l-11.6 2.529s-.778-2.816-3.42-2.56c-3.081.38-3.112 3.225-3.112 3.225l-7.422.604-.748-2.887 17.784-6.562-1.659-3.318zM33.63 27.632s-.368.144-.88.144c-1.577 0-2.723-1.157-4.812-1.106-1.986.041-3.102 1.25-4.484 1.25-.88 0-2.775-1.485-4.996-1.434-1.945.05-2.826 1.433-4.536 1.433-1.249 0-3.378-1.617-5.549-1.577-1.945.041-2.037.461-2.037.461v1.761s1.065-.645 2.078-.645c1.577 0 4.024 1.577 5.6 1.577 1.71 0 3.246-1.434 4.669-1.434s3.327 1.434 4.945 1.393 3.01-1.208 4.484-1.208c1.157 0 2.222 1.023 4.577 1.116.747.03.931-.041.931-.041v-1.67z"/><path fill="#fff" d="M9.993 24.766c1.372.46 2.918 1.239 4.023 1.239 1.71 0 3.246-1.434 4.669-1.434s3.327 1.434 4.945 1.393c1.617-.051 3.01-1.208 4.484-1.208 1.157 0 2.222 1.023 4.576 1.105.748.031.932-.04.932-.04v-6.082l-14.139 3a2.16 2.16 0 1 0-2.856-2.048c0 1.188.973 2.16 2.16 2.16h.195l-9 1.915z"/>
</svg>
