<?xml version="1.0" encoding="utf-8"?>
<svg xmlns="http://www.w3.org/2000/svg" viewBox="0 0 40 40">
<path fill="currentColor" d="M0 0h40v40H0z"/><path fill="#fff" d="M18.93 11.252a1.486 1.486 0 0 1 2.969 0 1.486 1.486 0 0 1-2.97 0ZM4.68 30.468c1.546-.04 4.463-1.34 5.057-1.34h.39c1.207 0 3.92 1.463 4.975 1.494h.952c1.26-.102 4.351-1.73 5.662-1.73 1.628 0 3.726 1.781 5.774 1.781 1.7 0 4.679-1.812 6.307-1.884.665-.03.317 0 .829 0 .246 0 .47.031.717.082v-1.955l-.349-.082s-.409-.02-.665-.02-.676.02-.676.02l-.767.102-.768.205-1.546.543c-.932.348-2.273 1.034-3.092 1.034-1.29 0-3.665-1.69-5.232-1.751-.43-.02-.502 0-.645 0-1.536-.051-4.832 1.648-5.641 1.669h-.563c-1.024 0-3.604-1.464-5.13-1.464h-.665c-.88 0-3.552 1.238-4.904 1.33v1.966z"/><path fill="#fff" d="M9.726 24.95h.39c1.207 0 3.92 1.464 4.975 1.495h.952c1.26-.103 4.351-1.73 5.662-1.73l2.395-1.137c7.3-3.317 11.16-10.34 11.16-10.34h-6.9l-5.488-3.584v6.932l-.83.184v-1.884a1.647 1.647 0 1 0-3.296 0v2.652L4.699 20.927l1.28 5.067s3.297-1.064 3.747-1.064z"/>
</svg>
