<?xml version="1.0" encoding="utf-8"?>
<svg xmlns="http://www.w3.org/2000/svg" viewBox="0 0 40 40">
<g><path fill="currentColor" d="M40 0H0v40h40z"/><g><path fill="#fff" d="M32.893 6.078H7.126A2.37 2.37 0 0 0 4.754 8.45v24.637a2.37 2.37 0 0 0 2.372 2.372h25.767a2.37 2.37 0 0 0 2.373-2.372V8.45a2.37 2.37 0 0 0-2.373-2.372"/><path fill="currentColor" d="M32.832 8.857H7.166v6.648h25.666z"/><path fill="#fff" d="M16.4 10.038c0 .937-.763 1.7-1.7 1.7s-1.7-.753-1.7-1.7V4.581c0-.936.763-1.69 1.7-1.69s1.7.754 1.7 1.69zM26.998 10.038c0 .937-.764 1.7-1.7 1.7-.937 0-1.7-.753-1.7-1.7V4.581c0-.936.763-1.69 1.7-1.69s1.7.754 1.7 1.69z"/><g fill="currentColor"><path d="M13.827 32.426v-8.298h-3.218v-1.954c2.25.05 3.502-.794 3.747-2.535h2.066v12.787zM25.768 26.745q-1.055 2.901-1.1 5.68h-2.78c.296-3.838 1.721-7.289 4.297-10.374h-6.068V19.64h8.735v2.23c-1.262 1.109-2.29 2.728-3.085 4.876"/></g></g></g>
</svg>
