<?xml version="1.0" encoding="utf-8"?>
<svg xmlns="http://www.w3.org/2000/svg" viewBox="0 0 40 40">
<g><mask id="a" width="40" height="40" x="0" y="0" maskUnits="userSpaceOnUse" style="mask-type:luminance"><g><path fill="#fff" d="M40 0H0v40h40z"/></g></mask><path fill="currentColor" d="M0 0h40v40H0z"/><g mask="url(#a)"><g><path fill="currentColor" d="M40 0H0v40h40z"/><path fill="#fff" d="M6.704 5.668H4.436v28.664h2.268zM35.566 5.668h-2.27v28.664h2.27z"/><g><mask id="b" width="40" height="40" x="0" y="0" maskUnits="userSpaceOnUse" style="mask-type:luminance"><g><path fill="#fff" d="M40 0H0v40h40z"/></g></mask><g mask="url(#b)"><g fill="#fff"><path d="M31.862 10.196H8.145a.745.745 0 0 0-.743.753v2.91h25.203v-2.91a.745.745 0 0 0-.743-.753"/><path d="M11.878 5.668h-1.32v28.664h1.32zM17.652 5.668h-1.32v28.664h1.32z"/><path d="M16.766 10.847h-5.578v1.242h5.578zM16.766 14.927h-5.578v1.242h5.578zM16.766 19.008h-5.578v1.241h5.578zM16.766 23.088h-5.578v1.242h5.578zM16.766 31.249h-5.578v1.241h5.578zM16.766 7.703h-5.578v1.241h5.578zM31.862 25.571H8.145a.745.745 0 0 0-.743.753v2.91h25.203v-2.91a.745.745 0 0 0-.743-.753"/></g></g></g></g></g></g>
</svg>
