<?xml version="1.0" encoding="utf-8"?>
<svg xmlns="http://www.w3.org/2000/svg" viewBox="0 0 40 40">
<g><path fill="currentColor" d="M0 0h40v40H0z"/><path fill="#fff" d="M29.17 29.929a2.71 2.71 0 0 1-2.715-2.716 2.715 2.715 0 0 1 2.715-2.716 2.72 2.72 0 0 1 2.715 2.716 2.72 2.72 0 0 1-2.715 2.716M13.176 29.929a2.715 2.715 0 0 1-2.715-2.716 2.715 2.715 0 0 1 2.715-2.716 2.72 2.72 0 0 1 2.714 2.716 2.72 2.72 0 0 1-2.714 2.716"/><path fill="#fff" d="M35.689 26.735v-5.86l-2.522-5.982h2.176s-1.606-3.845-1.83-4.344h-7.9c-.509 0-6.233 2.208-6.233 2.208H6.72s-2.328 6.612-2.328 7.375 2.328 6.613 2.328 6.613h2.705a3.774 3.774 0 0 1 3.741-3.245 3.775 3.775 0 0 1 3.742 3.265h8.45A3.775 3.775 0 0 1 29.1 23.5a3.774 3.774 0 0 1 3.742 3.255h2.847z"/><path fill="currentColor" d="M27.88 21.13v-5.738h4.16l2.084 5.483-.01 2.014h-2.42l-.732-1.76zM24.037 15.392v5.737h-3.71v-5.737zM14.214 15.392v5.737h-6.04v-5.737z"/></g>
</svg>
