<?xml version="1.0" encoding="utf-8"?>
<svg xmlns="http://www.w3.org/2000/svg" viewBox="0 0 40 40">
<g><g><path fill="currentColor" d="M0 0h40v40H0z"/><g><path fill="#fff" d="M29.137 27.72a2.719 2.719 0 1 1 0-5.44 2.719 2.719 0 1 1 0 5.44M13.13 27.72a2.719 2.719 0 1 1 0-5.44 2.719 2.719 0 1 1 0 5.44"/><path fill="#fff" d="M35.652 24.53v-5.86l-2.516-5.98h2.179s-1.606-3.845-1.831-4.346h-7.906c-.511 0-6.239 2.208-6.239 2.208H6.678s-2.332 6.616-2.332 7.372 2.332 6.616 2.332 6.616h2.7a3.78 3.78 0 0 1 3.743-3.252 3.78 3.78 0 0 1 3.743 3.262h8.448a3.774 3.774 0 0 1 3.743-3.262A3.774 3.774 0 0 1 32.8 24.54h2.853z"/><path fill="currentColor" d="M27.85 18.916V13.19h4.152l2.086 5.48-.01 2.015h-2.424l-.726-1.769zM14.174 13.19v5.726H8.119V13.19z"/></g></g><g fill="#fff"><path d="M4.918 33.66a.7.7 0 0 0 .4.113c.337 0 .51-.113.51-.327 0-.123-.081-.215-.245-.286-.03-.01-.215-.062-.532-.154a1.6 1.6 0 0 1-.531-.225.61.61 0 0 1-.246-.521c0-.256.102-.45.317-.593.184-.133.41-.195.665-.195.297 0 .542.062.726.195.215.153.317.368.317.644h-.562c-.01-.266-.184-.399-.512-.399a.45.45 0 0 0-.266.072.25.25 0 0 0-.133.235c0 .092.052.163.144.215.071.03.286.092.634.184.204.05.358.112.46.173a.66.66 0 0 1 .317.593c0 .256-.092.45-.276.604-.194.163-.47.235-.818.235-.317 0-.573-.072-.778-.225q-.337-.246-.337-.706h.562c0 .164.062.287.174.379zM8.692 31.534v.48H7.31v.563h1.268v.45H7.311v.644h1.411v.48H6.738v-2.617h1.964zM9.684 31.534v2.137h1.279v.48H9.11v-2.617zM13.132 31.534v.48h-1.268v.604h1.094v.45h-1.094v1.083h-.573v-2.617zM16.037 32.086a.57.57 0 0 0-.379-.133q-.368 0-.552.276c-.112.164-.164.368-.164.624 0 .255.052.45.164.603q.184.276.552.276c.348 0 .542-.194.594-.583h.552a1.18 1.18 0 0 1-.358.777c-.215.195-.48.287-.798.287-.399 0-.706-.133-.951-.4-.225-.255-.337-.572-.337-.96 0-.389.112-.726.337-.982q.352-.399.951-.399c.297 0 .553.082.757.246.215.174.337.409.378.695h-.562a.5.5 0 0 0-.195-.327zM18.379 31.472q.597 0 .95.4.338.383.338.98c0 .4-.112.717-.337.962q-.354.399-.951.399c-.4 0-.706-.133-.952-.4-.225-.255-.337-.572-.337-.96 0-.389.112-.726.337-.982q.354-.399.951-.399m0 2.26q.352 0 .552-.276c.112-.153.163-.358.163-.603 0-.246-.05-.46-.163-.624q-.184-.276-.553-.276-.368 0-.552.276c-.112.164-.163.368-.163.624 0 .255.05.45.163.603q.184.276.552.276M20.627 31.534l1.095 1.758v-1.758h.542v2.617h-.573l-1.094-1.758v1.758h-.542v-2.617zM22.572 32.014v-.48h2.148v.48h-.787v2.137h-.573v-2.137zM26.048 31.534l.982 2.617h-.603l-.195-.583h-.982l-.204.583h-.583l.992-2.617zm.03 1.605-.326-.961-.338.961h.675zM27.838 31.534v2.617h-.572v-2.617zM28.912 31.534l1.095 1.758v-1.758h.541v2.617h-.572l-1.084-1.758v1.758h-.542v-2.617h.572zM33.012 31.534v.48h-1.38v.563H32.9v.45H31.63v.644h1.412v.48h-1.984v-2.617h1.963zM34.567 31.534c.358 0 .635.112.85.327.224.225.337.552.337.971 0 .4-.102.716-.297.951-.215.256-.511.379-.9.379h-1.135v-2.618h1.135zm-.04 2.137a.62.62 0 0 0 .45-.174c.132-.133.204-.337.204-.614 0-.286-.051-.49-.164-.634-.122-.153-.317-.235-.593-.235h-.409v1.657z"/></g><g fill="currentColor"><path d="M20.986 12.873h.614v6.912h-.614zM22.857 13.466c0-.317.256-.562.573-.562a.56.56 0 0 1 .563.562.576.576 0 0 1-.563.573.58.58 0 0 1-.573-.573M22.346 14.55c-.122.164-.143.368-.143.368v1.902c0 .123.102.225.225.225a.227.227 0 0 0 .225-.225v-1.564c0-.052.041-.092.092-.092s.092.04.092.092v4.325c0 .122.113.215.225.215.133 0 .246-.103.246-.226v-1.492.01-1.012c0-.052.04-.092.092-.092h.03c.052 0 .093.04.093.092v1.012-.01 1.482c0 .133.112.225.255.225.113 0 .225-.112.225-.215v-4.314c0-.062.041-.103.092-.103s.092.041.092.092v1.565c0 .123.102.225.225.225a.227.227 0 0 0 .225-.225v-1.922s-.03-.174-.102-.297c0 0-.194-.327-.583-.327h-1.064c-.378 0-.552.286-.552.286zM18.428 13.477c0-.318.255-.573.572-.573s.563.255.563.572a.56.56 0 0 1-.562.563.576.576 0 0 1-.573-.562M19.595 14.233c.225 0 .297.072.369.225.092.164.225.757.225.757l.347 1.319.02.092c.042.133-.07.255-.163.276-.133.02-.235-.051-.266-.133l-.399-1.534c-.02-.071-.05-.102-.112-.102-.041 0-.102.04-.092.123l.624 2.484h-.594v1.84a.22.22 0 0 1-.225.216.227.227 0 0 1-.225-.225v-1.83h-.225v1.83a.227.227 0 0 1-.225.224.227.227 0 0 1-.225-.224v-1.83h-.603l.624-2.475v-.02s-.041-.113-.092-.113c-.092 0-.113.061-.113.112l-.358 1.442c-.04.194-.163.245-.296.215-.143-.041-.184-.164-.154-.297l.338-1.329s.164-.593.307-.818c.112-.184.133-.225.409-.225z"/></g><g><path fill="#fff" d="M24.863 20.286h-7.65v3.323h7.65z"/><path fill="currentColor" d="M24.976 23.712h-7.865v-3.538h7.865zm-7.66-.205h7.446V20.39h-7.446z"/></g></g>
</svg>
