<?xml version="1.0" encoding="utf-8"?>
<svg xmlns="http://www.w3.org/2000/svg" viewBox="0 0 40 40">
<g><path fill="currentColor" d="M0 0h40v40H0z"/><path fill="#fff" fill-rule="evenodd" d="M31.43 17.343c.84.215 1.608 1.321 1.608 2.232v5.293c0 .563-1.004.82-1.004.82v3.02c0 .44-.122.757-.44.757h-2.959c-.501 0-.44-.502-.44-.88v-2.898l.02.031h-16.38v2.897c0 .38.061.88-.44.88h-2.96c-.317 0-.44-.317-.44-.757v-3.03s-1.003-.256-1.003-.82v-5.292c0-.922.799-2.058 1.659-2.242l1.986-5.785c.256-.819.563-1.075 1.198-1.075H28.03c.88 0 1.198.164 1.516 1.075l1.924 5.774z" clip-rule="evenodd"/><path fill="currentColor" d="M28.81 16.924c.317 0 .45-.267.317-.605l-1.28-3.757c-.144-.4-.144-.491-.748-.491H12.766c-.41 0-.573.153-.686.491l-1.29 3.757c-.112.308.256.605.574.605h17.445M8.723 20.742a2.36 2.36 0 0 1 2.365-2.365 2.36 2.36 0 0 1 2.365 2.365 2.35 2.35 0 0 1-2.365 2.355 2.357 2.357 0 0 1-2.365-2.355M26.547 20.742a2.357 2.357 0 0 1 2.355-2.365c1.3 0 2.365 1.055 2.365 2.365a2.35 2.35 0 0 1-2.365 2.355 2.35 2.35 0 0 1-2.355-2.355"/></g>
</svg>
