<?xml version="1.0" encoding="utf-8"?>
<svg xmlns="http://www.w3.org/2000/svg" viewBox="0 0 40 40">
<g><path fill="currentColor" d="M0 0h40v40H0z"/><path fill="#fff" d="M27.957 10.199c2.028.02 2.557-.204 3.169.794.142.235 1.864 6.837 1.874 7.866.02 3.005.03-2.782 0 7.122.357 0 2.14.02 3.454 0v.784H22.007c.071-.815-.774-4.096-4.218-4.045-3.21.051-4.096 2.914-4.065 4.055-.591.02-8.569.02-10.097.02.03 0 0-.346 0-7.926 0-.856 1.742-7.692 1.773-7.774.163-.417.621-.886 1.008-.886h21.56z"/><path fill="currentColor" d="M23.322 14.111h7.326v5.471h-7.326zM6.215 14.111h9.791v5.471H6.215z"/><path fill="#fff" d="M15.068 26.847a2.78 2.78 0 0 1 2.782-2.782 2.78 2.78 0 0 1 2.781 2.782 2.78 2.78 0 0 1-2.781 2.781 2.78 2.78 0 0 1-2.782-2.781"/></g>
</svg>
