<?xml version="1.0" encoding="utf-8"?>
<svg xmlns="http://www.w3.org/2000/svg" viewBox="0 0 40 40">
<path fill="currentColor" d="M0 0h40v40H0z"/><path fill="#fff" d="M24.131 16.383a2.755 2.755 0 0 1-2.76 2.364 2.8 2.8 0 0 1-2.781-2.364zm-3.871 7.652 3.82 4.544c.397.468 1.1.53 1.568.132.468-.397.53-1.1.143-1.569h.02L17.06 16.73H8.495c-1.508 0-2.628 1.242-2.628 2.536 0 1.1.438 1.437.835 1.997l3.749 5.125.468.642H5.99c-.611.01-1.11.51-1.11 1.12 0 .612.479 1.111 1.11 1.122h7.12c.835-.041 1.324-1.264.733-2.18-.6-.948-.886-1.285-.886-1.285l-2.72-3.637h7.823v5.95c0 .611.5 1.11 1.11 1.11.612 0 1.111-.498 1.111-1.11v-4.096l-.02.01Z"/><path fill="#fff" d="M24.203 14.661c-.397-1.182-1.508-2.078-2.801-2.078-1.61 0-2.924 1.396-2.924 3.005h5.715l11.856 4.106v-9.129z"/>
</svg>
