<?xml version="1.0" encoding="utf-8"?>
<svg xmlns="http://www.w3.org/2000/svg" viewBox="0 0 40 40">
<path fill="currentColor" d="M0 0h40v40H0z"/><path fill="#fff" d="M15.448 6.542c.307.39.491.88.511 1.413a2.36 2.36 0 0 1-2.303 2.416 2.33 2.33 0 0 1-1.771-.747l3.563-3.092zm-.316-.307a2.38 2.38 0 0 0-1.597-.584 2.365 2.365 0 0 0-2.304 2.417c.01.45.154.87.39 1.228z"/><path fill="#fff" d="M16.75 27.581a1.16 1.16 0 0 1-.798-1.075c0-.112 0-.215.04-.317l1.639-4.525s-2.724.829-3.645 1.167c-1.136.41-1.085.286-.809.911.256.563.707 1.413 1.393 2.529.696 1.146.706 1.658.409 2.969-.092.41-1.054 5.508-1.054 5.508-.01.072.85-.358.85-.358l1.432-4.382.553-2.406-.01-.02Zm-6.583-8.436c1.034-.676 2.15-.86 3.061-.86 1.321 0 1.905.379 2.253.584a53 53 0 0 0-.205 1.126s2.334-.676 3.215-1.044c.952-.39 2.15.102 1.812 1.76-.041.195-.696 2.1-1.26 3.727l1.976-1.576 2.324-3.758.533-7.77-1.034-1.157-.297-4.044s-.686-.768-.686-.727c0 0-.666 4.115-.973 5.948 0 .03-.092.491-.604.625-1.085.286-2.314.737-3.307 1.095-.327.123-.553.348-.614.727-.215 1.31-.45 2.692-.665 3.808-.348-.204-1.045-.542-2.365-.542-.901 0-1.864.112-2.918.594l.706-4.034c.256-1.25.789-1.352 1.25-1.536 1.146-.45 5.722-1.863 5.722-1.863s.635-.082.758-.666c.42-1.904.758-4.105.758-4.105.082-.573.42-1.382.942-1.382h10.606V35.74H12.573l.041-.02c-.512-.123-.911-.656-.921-1.198 0-.154 0-.287.061-.42.215-.788.86-4.618 1.024-5.252 0 0 .205-.81-.277-1.618a78 78 0 0 1-1.259-2.19L9.37 35.443l-.707-.061L10.68 24.08c-.133-.256-.297-.553-.46-.87-.574-1.086-.205-3.184-.205-3.184l.163-.922z"/>
</svg>
