<?xml version="1.0" encoding="utf-8"?>
<svg xmlns="http://www.w3.org/2000/svg" viewBox="0 0 40 40">
<g><path fill="currentColor" d="M40 0H0v40h40z"/><path stroke="#fff" stroke-miterlimit="10" stroke-width="3.35" d="M25.143 19.284c-3.974 3.769-7.125-.823-7.125-.823-3.995 3.881-7.783 0-7.783 0-3.635 4.18-7.32.937-7.32.937M21.91 25.977c-3.51 2.955-6.094-.824-6.094-.824-3.408 3.676-6.652 0-6.652 0-3.253 3.676-6.26.927-6.26.927"/><path stroke="#fff" stroke-miterlimit="10" stroke-width="3.29" d="M18.122 32.247c-2.852 2.718-4.87-.824-4.87-.824-2.729 3.573-5.54 0-5.54 0-2.687 3.47-4.808.917-4.808.917"/><path fill="#fff" d="m36.603 5.364-3.532-.535-3.603 2.131-1.256.062-.762.69-3.357-1.092-1.256-.278-2.43-1.307-2.018-.412-1.43.412-1.174-.206-2.09-.896-1.01.69h-.926l-1.01 1.72-1.636 1.853 1.05 2.738v.618l-2.1 1.575v.762l1.595.268 6.713-.34-.494-1.781 1.174-1.37.916-1.029 1.39-.35 1.05.278.752.69.422 1.163-.082 1.442.082 1.235h15.022zM25.935 16.638s12.839.443-5.745 19.82H36.59v-19.82H25.924z"/></g>
</svg>
