<?xml version="1.0" encoding="utf-8"?>
<svg xmlns="http://www.w3.org/2000/svg" viewBox="0 0 40 40">
<g clip-path="url(#a)"><path fill="currentColor" d="M40 0H0v40h40z"/><path fill="#fff" d="M28.53 7.926c0-3.619-5.265-3.08-5.265-.642 0 1.87-3.265 1.795-3.265 1.795s-3.265.075-3.265-1.795c0-2.437-5.265-2.968-5.265.642v24.39c0 3.619 5.265 3.08 5.265.642 0-1.87 3.265-1.795 3.265-1.795s3.265-.075 3.265 1.795c0 2.437 5.265 2.968 5.265-.642V7.926m-7.86 18.502v1.86h-.121v.028h-1.042v-.028h-.12v-1.86c-2.736-.28-3.806-1.535-3.806-4.149h2.345c.102 1.19.279 1.926 1.45 2.223v-3.795c-1.692-.465-3.534-1.21-3.534-3.563 0-1.888 1.144-3.581 3.535-3.711v-1.284h1.284v1.302c1.348.168 3.33.707 3.553 3.712h-2.307c-.093-1.46-.633-1.777-1.247-1.833v3.405c1.535.502 2.335.93 2.763 1.34.968.911.986 2.065.986 2.511 0 1.61-.967 3.59-3.748 3.842z"/><path fill="#fff" d="M20.67 21.144v3.377c.586-.102 1.349-.52 1.349-1.74 0-.939-.689-1.404-1.35-1.637M18.112 16.716c0 1.033.642 1.442 1.274 1.637V15.35c-.893.14-1.274.828-1.274 1.367"/></g><defs><clipPath id="a"><path fill="#fff" d="M0 0h40v40H0z"/></clipPath></defs>
</svg>
