<?xml version="1.0" encoding="utf-8"?>
<svg xmlns="http://www.w3.org/2000/svg" viewBox="0 0 40 40">
<g><path fill="currentColor" d="M0 0h40v40H0z"/><path fill="#fff" d="M31.123 22.36c0 .768-.625 1.392-1.393 1.392H10.38a1.377 1.377 0 0 1-1.392-1.372v.041-10.678h22.125v10.678-.061zM32.506 10.78c-.061-.736-.747-.736-1.3-.798-.553-.061-.379-.287-1.29-1.136-1.198-1.116-4.126-1.935-4.648-2.058s-.604-.174-.84-.522c0 0-.082-.133-.082-.952 0-1.106-.91-1.72-1.494-1.72h-5.703c-.594 0-1.505.614-1.505 1.72 0 .808-.123.982-.123.982-.246.297-.276.369-.798.492-.523.123-3.45.942-4.648 2.058-.901.84-.738 1.075-1.29 1.136-.553.062-1.24.062-1.3.799h25.021"/><path fill="currentColor" d="M18.08 4.576c-.86 0-1.372.236-1.3 1.516h6.317c.082-1.27-.44-1.516-1.3-1.516z"/><path fill="#fff" d="M25.607 30.223c.993-1.106 1.74-1.096 2.303-1.362.799-.379 1.024-.86 1.27-2.068.215-1.044.245-1.136.245-1.136-.092.03-3.245.962-3.665 2.252-.42 1.28-.153 2.314-.153 2.314M20.66 30.223c.994-1.106 1.74-1.096 2.304-1.362.799-.379 1.024-.86 1.27-2.068.214-1.044.245-1.136.245-1.136-.092.03-3.204.982-3.655 2.252-.46 1.27-.153 2.314-.153 2.314zM15.849 30.223c.993-1.106 1.74-1.096 2.303-1.362.799-.379 1.024-.86 1.27-2.068.215-1.044.245-1.136.245-1.136-.092.03-3.225.91-3.665 2.252-.41 1.28-.153 2.314-.153 2.314M11.005 30.223c.993-1.106 1.74-1.096 2.303-1.362.799-.379 1.024-.86 1.27-2.068.215-1.044.246-1.136.246-1.136-.093.03-3.236.92-3.666 2.252-.41 1.28-.153 2.314-.153 2.314M16.318 32.874l2.242 3.41h2.478l2.549-3.41h6.276v-1.74H9.766v1.74z"/></g>
</svg>
