<?xml version="1.0" encoding="utf-8"?>
<svg xmlns="http://www.w3.org/2000/svg" viewBox="0 0 40 40">
<g><path fill="currentColor" d="M40 0H0v40h40z"/><path fill="#fff" d="M17.59 28.048H15.45l-2.292 2.374v-4.88h-1.811v9.106h1.81v-2.271l.707-.676 1.811 2.947h2.2l-2.773-4.175zM26.226 27.874c-.839 0-1.504.369-1.985 1.095-.327-.727-.972-1.095-1.924-1.095-.839 0-1.514.358-2.015 1.075h-.02v-.89h-1.71v6.6h1.812V30.83c0-.562.163-.972.48-1.238a1.1 1.1 0 0 1 .737-.276c.502 0 .829.174.983.532.071.184.112.553.112 1.116v3.704h1.811v-3.674c0-1.115.4-1.668 1.218-1.668.47 0 .778.154.941.47.113.226.164.605.164 1.137v3.735h1.811v-4.42c0-1.577-.808-2.365-2.415-2.365z"/><path stroke="#fff" stroke-miterlimit="10" stroke-width="2.18" d="M5.977 4.973v15.554M34.014 4.973v15.554M9.455 12.75h21.09"/><path stroke="#fff" stroke-miterlimit="10" stroke-width="2.09" d="M14.398 6.938 8.596 12.75l5.802 5.802M25.592 18.552l5.792-5.802-5.802-5.812"/></g>
</svg>
