<?xml version="1.0" encoding="utf-8"?>
<svg xmlns="http://www.w3.org/2000/svg" viewBox="0 0 40 40">
<path fill="currentColor" d="M0 0h40v40H0z"/><path fill="#fff" d="M26.344 10.412v3.389l1.464.502 1.515-2.98-2.98-.91Zm5.404 4.484-.174 3.379 1.444.584 1.669-2.908zM11.17 32.577l-2.59 1.618-1.976-2.774 1.208-.594s-.02-.082-.02-.133a2.22 2.22 0 0 1 2.22-2.222 2.22 2.22 0 0 1 1.158 4.116zm7.247-12.48c.143-.061.307-.082.47-.082a1.188 1.188 0 0 1 .461 2.283l-7.238 4.198a1.21 1.21 0 0 1-1.26-2.068l7.556-4.341.01.01Z"/><path fill="#fff" d="M27.603 16.105c.071-.164.092-.349.092-.533 0-.747-.604-1.362-1.362-1.362-.522 0-.962.287-1.187.717 0 0-1.966 3.758-2.755 5.508-.767 1.72-1.371 1.823-1.791 2.048a165 165 0 0 0-6.706 3.798c-3.297 1.945-.369 6.297 1.966 6.307h8.292a1.21 1.21 0 0 0 1.209-1.208 1.21 1.21 0 0 0-1.209-1.208c-.726 0-4.76-.02-6.224 0-.062 0-.287-.164-.184-.236 1.72-1.106 4.177-2.334 5.927-3.256 1.587-.829 2.55-.532 4.874-1.136.604-.154.91-.154 1.525-1.106.799-1.259 1.341-2.15 2.386-3.573a1.33 1.33 0 0 0 .225-.737 1.355 1.355 0 0 0-2.416-.84l-2.427 3.686-3.993.707 3.748-7.566zM4.156 7.259s.43.164 1.024.164c1.833 0 3.174-1.341 5.6-1.29 2.314.05 3.604 1.453 5.222 1.453 1.024 0 3.235-1.73 5.815-1.668 2.262.05 3.286 1.668 5.273 1.668 1.453 0 3.93-1.883 6.46-1.832 2.262.051 2.365.542 2.365.542v2.048s-1.24-.747-2.427-.747c-1.832 0-4.689 1.832-6.511 1.832-1.997 0-3.768-1.668-5.437-1.668-1.668 0-3.88 1.668-5.764 1.617-1.883-.051-3.501-1.402-5.221-1.402-1.341 0-2.58 1.187-5.324 1.29-.86.04-1.075-.052-1.075-.052z"/>
</svg>
