<?xml version="1.0" encoding="utf-8"?>
<svg xmlns="http://www.w3.org/2000/svg" viewBox="0 0 40 40">
<g clip-path="url(#a)"><g><mask id="b" width="40" height="40" x="0" y="0" maskUnits="userSpaceOnUse" style="mask-type:luminance"><g><path fill="#fff" d="M40 0H0v40h40z"/></g></mask><g mask="url(#b)"><g><path fill="currentColor" d="M40 0H0v40h40z"/><path fill="#fff" d="M31.672 3.396H8.338v33.209h23.334z"/><path fill="currentColor" d="M28.893 7.21H11.107v1.412h17.786zM28.893 10.033H11.107v1.412h17.786zM21.828 12.846h-10.72v1.411h10.72z"/><g><mask id="c" width="40" height="40" x="0" y="0" maskUnits="userSpaceOnUse" style="mask-type:luminance"><g><path fill="#fff" d="M40 0H0v40h40z"/></g></mask><g mask="url(#c)"><g fill="currentColor"><path d="m25.808 26.1-2.84-2.843s1.853-1.892 2.575-2.342.835-.49.835-.49-.112.685-.112.94c0 .358.234.4.234.4s2.83.981 3.044 1.053c.357.133.947.358.947.358-.163.296-.692 1.145-.987 1.626-.224.358-.703.348-.703.348h-1.7s-.336 0-.53.194l-.753.757M24.75 26.367l-2.464-2.465h-9.387s-.53-.03-1.17-.041c-1.192-.02-2.21-.287-2.21-.287s.244.91 1.323 1.33c.591.225 1.803.583 1.803.583v3.18s-.112 1.443-.795 1.821c-.682.379-.753.307-.753.379v2.608s0 .87.865.87c.805 0 .988-.604.988-.87v-1.892s.04-.42.377-.42c.335 0 1.282-.071 1.853-.603.57-.532 1.282-1.33 1.282-1.33h6.434v3.897s-.04 1.207.947 1.207c.906 0 .906-.91.906-1.094v-6.884z"/></g></g></g></g></g></g></g><defs><clipPath id="a"><path fill="#fff" d="M0 0h40v40H0z"/></clipPath></defs>
</svg>
