<?xml version="1.0" encoding="utf-8"?>
<svg xmlns="http://www.w3.org/2000/svg" viewBox="0 0 40 40">
<g><path fill="currentColor" d="M0 0h40v40H0z"/><path fill="#fff" d="m32.548 27.08-1.995-1.984s1.303-1.395 1.812-1.721.59-.356.59-.356-.081.488-.081.682c0 .193.132.275.132.275s2.026.712 2.169.773c.254.092.662.255.662.255-.113.214-.52.855-.734 1.191-.162.255-.458.214-.458.214h-1.333s-.163.05-.245.132l-.529.54zM31.805 27.274l-1.782-1.761h-6.567s-.366-.01-.824-.02a7 7 0 0 1-1.558-.204s.173.651.937.947c.417.163 1.262.417 1.262.417v2.27s-.081 1.029-.56 1.304c-.478.274-.53.213-.53.274v1.874s.032.59.612.62c.53.031.692-.437.692-.62V31.02s.03-.296.265-.296c.234 0 .906-.05 1.303-.427s.906-.947.906-.947h4.53v2.79s-.03.865.662.865c.642 0 .642-.652.642-.784v-4.928zM10.984 10.008c0-1.191.978-2.159 2.19-2.159 1.21 0 2.188.968 2.188 2.159s-.977 2.158-2.189 2.158c-1.211 0-2.189-.967-2.189-2.158M11.088 23.568c-.784 1.71-3.869 8.46-4.144 9.04-.193.418-.957.622-1.435.327-.56-.347-.662-.917-.489-1.293.285-.611 3.737-8.267 4.022-8.919.163-.356.254-.733.234-1.232-.01-.509 0-5.894 0-5.894s-1.354 1.17-2.189 1.832c0 0-.672 3.034-.835 3.543-.102.316-.712.774-1.262.621-.713-.193-.917-.885-.784-1.374.275-1.028.987-3.95.987-3.95.601-.56 3.41-3.095 4.012-3.645.641-.59 1.12-.295 1.333-.285l3.675 1.059c.398.203.57.478.754.784.438.733 1.832 3.115 2.016 3.42.132.224 2.402 1.253 2.85 1.497.408.214.754.794.458 1.395-.274.55-.957.733-1.323.56-.845-.407-3.574-1.914-3.584-1.924-.163-.255-1.19-2.057-1.435-2.474v6.475s3.35 7.35 3.858 8.46c.173.376.03 1.059-.437 1.303-.622.326-1.283.071-1.528-.438-.356-.743-3.329-7.167-4.143-8.908h-.631zM29.494 24.139l-8.227-3.574-.285.662 8.226 3.583z"/></g>
</svg>
