<?xml version="1.0" encoding="utf-8"?>
<svg xmlns="http://www.w3.org/2000/svg" viewBox="0 0 40 40">
<path fill="currentColor" d="M0 0h40v40H0z"/><path fill="#fff" d="m28.39 17.487-4.126-4.126S26.956 10.607 28 9.95c1.045-.655 1.209-.716 1.209-.716s-.164.993-.164 1.372c0 .511.338.583.338.583s4.115 1.423 4.412 1.536c.522.194 1.372.522 1.372.522-.235.44-1.003 1.669-1.433 2.365-.318.522-1.014.502-1.014.502h-2.477s-.492 0-.768.276l-1.096 1.096zM26.844 17.876l-3.573-3.573H9.624s-.768-.041-1.71-.052c-1.73-.03-3.215-.41-3.215-.41s.359 1.322 1.925 1.926c.86.337 2.61.85 2.61.85v4.617s-.163 2.088-1.156 2.641-1.096.44-1.096.553v3.798s0 1.27 1.27 1.27c1.167 0 1.433-.88 1.433-1.27v-2.754s.051-.604.553-.604 1.874-.112 2.693-.88c.829-.768 1.873-1.925 1.873-1.925h9.358v5.672s-.052 1.76 1.372 1.76c1.32 0 1.32-1.32 1.32-1.596V17.886z"/>
</svg>
