<?xml version="1.0" encoding="utf-8"?>
<svg xmlns="http://www.w3.org/2000/svg" viewBox="0 0 40 40">
<g><path fill="currentColor" d="M0 0h40v40H0z"/><path fill="#fff" fill-rule="evenodd" d="m16.771 28.216-.01-3.9 2.795 3.224v-4.156H15.85v11.303h10.125V23.384h-3.696v4.156l2.795-3.225-.01 3.901-4.147 4.638z" clip-rule="evenodd"/><path fill="#fff" fill-rule="evenodd" d="m21.807 28.738 2.774-3.184v2.57l-3.665 4.054-3.675-4.054v-2.57l2.785 3.184v-8.446h-2.898c-.235-1.69-1.679-3-3.44-3a3.46 3.46 0 0 0-3.44 3H7.771S5.63 14.896 5.63 14.2s2.14-6.777 2.14-6.777h11.64s5.263-2.028 5.733-2.028h7.27c.204.461 1.679 3.993 1.679 3.993h-1.997l2.314 5.498v5.385h-2.621a3.48 3.48 0 0 0-3.44-2.99c-1.75 0-3.204 1.301-3.44 2.99h-3.082v8.447z" clip-rule="evenodd"/><path fill="currentColor" fill-rule="evenodd" d="M14.64 9.86v5.272H9.08V9.859zM23.68 9.86v5.272h-3.42V9.859zM27.213 15.132V9.859h3.819l1.924 5.037-.01 1.854h-2.232l-.665-1.618z" clip-rule="evenodd"/><path fill="#fff" fill-rule="evenodd" d="M13.688 23.22a2.495 2.495 0 0 1-2.498-2.498 2.495 2.495 0 0 1 2.498-2.498 2.495 2.495 0 0 1 2.498 2.498 2.495 2.495 0 0 1-2.498 2.498M28.4 23.22a2.495 2.495 0 0 1-2.498-2.498 2.495 2.495 0 0 1 2.498-2.498 2.495 2.495 0 0 1 2.499 2.498A2.495 2.495 0 0 1 28.4 23.22" clip-rule="evenodd"/></g>
</svg>
