<?xml version="1.0" encoding="utf-8"?>
<svg xmlns="http://www.w3.org/2000/svg" viewBox="0 0 40 40">
<g><path fill="currentColor" d="M0 0h40v40H0z"/><path fill="#fff" d="M8.621 17.927a1.966 1.966 0 1 1 3.933 0 1.966 1.966 0 0 1-3.933 0M8.918 20.466c-.962-.205-1.362.153-1.536.287-.624.45-2.59 1.873-3.204 2.313 0 0-.533 2.14-.737 3-.093.358.122.911.655 1.065.573.164 1.013-.123 1.167-.543.143-.42.563-2.355.563-2.355.737-.532 1.464-1.054 1.464-1.054l-.358 5.16c-.297.512-2.642 6.132-2.867 6.644-.235.543-.082 1.168.717 1.372.297.082.83-.164 1.024-.573.245-.502 2.354-5.18 2.979-6.583h.604c.645 1.392 2.774 6.01 3.102 6.675.195.4.82.573 1.116.45.563-.215.84-.808.584-1.3-.471-.91-2.97-6.644-2.97-6.644s.216-5.14.277-5.048a163 163 0 0 0 1.392 2.069c.205.133 1.516.87 2.314 1.3.338.184.911.092 1.137-.226.532-.747.04-1.33-.246-1.474-.43-.225-1.925-1.034-1.925-1.034s-.809-1.218-1.208-1.791c-.307-.45-.563-.768-1.72-1.034l-2.344-.686zM25.533 10.35a2.434 2.434 0 0 1 2.427-2.436 2.427 2.427 0 0 1 2.426 2.437 2.427 2.427 0 1 1-4.853 0M25.647 25.636c-.88 1.935-4.31 9.542-4.607 10.197-.215.471-1.065.707-1.597.369-.625-.39-.768-.952-.543-1.454.307-.686 4.014-8.99 4.33-9.726.175-.41.41-8.365.41-8.365s-1.505 1.321-2.436 2.068c0 0-.748 3.42-.932 4.003-.113.359-.798.87-1.403.707-.788-.215-1.013-1.003-.88-1.546a350 350 0 0 0 1.106-4.454c.665-.634 3.778-3.521 4.453-4.105.266-.236.973-.481 1.403-.328l4.177 1.198c.45.225.635.533.84.88.48.83 1.955 3.39 2.17 3.737.246.41 2.754 1.536 3.256 1.813.45.245.84.89.512 1.576-.308.625-1.065.83-1.475.635-.942-.46-3.972-2.16-3.982-2.17a302 302 0 0 1-1.598-2.795c-.01-.02 0 7.3 0 7.3s3.727 8.282 4.3 9.541c.195.42.041 1.188-.49 1.474-.697.369-1.434.072-1.7-.49-.4-.84-3.707-8.079-4.608-10.055h-.696z"/></g>
</svg>
