<?xml version="1.0" encoding="utf-8"?>
<svg xmlns="http://www.w3.org/2000/svg" viewBox="0 0 40 40">
<path fill="currentColor" d="M0 0h40v40H0z"/><path fill="#fff" d="M19.34 7.853a2.458 2.458 0 1 1 4.915.001 2.458 2.458 0 0 1-4.915-.001M23.098 12.204c-.072-.123-.47-.727-1.628-1.126-1.064-.369-2.723-.236-3.225.071a48 48 0 0 0-1.576 1.055l-4.024 2.744-.89 3.327c-.216.491-.103 1.106.388 1.382.492.276 1.209.164 1.464-.502 0-.01.768-2.897.768-2.897l3.113-2.109-.891 9.091-4.832 8.734c-.226.42-.041 1.105.42 1.34.573.308 1.208.144 1.494-.368 0 0 4.556-8.344 5.252-9.49.226-.277.461-.113.533.04l4.668 10.075c.205.43.932.747 1.413.532.584-.276.84-.932.604-1.474l-4.638-9.798.758-8.221 1.986 3.143 2.959 1.996c.46.318 1.095.195 1.413-.276.317-.46.194-1.096-.604-1.638l-.983-.717-1.423-.921s-2.416-3.84-2.529-4.024z"/>
</svg>
