<?xml version="1.0" encoding="utf-8"?>
<svg xmlns="http://www.w3.org/2000/svg" viewBox="0 0 40 40">
<g><path fill="currentColor" d="M0 0h40v40H0z"/><path fill="#fff" d="M15.121 7.474a2.58 2.58 0 0 1 2.58-2.58 2.58 2.58 0 0 1 2.58 2.58 2.58 2.58 0 0 1-2.58 2.58 2.58 2.58 0 0 1-2.58-2.58M12.982 7.975h-2.16c-2.325 0-2.703 3.768-3.328 6.655-.317 1.485-.624 3.44-.747 4.187-.154.953.522 1.956 1.105 1.966 1.004.03 2.499 0 2.499 0l2.63-12.797zM11.875 18.244c.164-.819.276-1.361.276-1.361s.83-3.85.994-4.577c.307-1.3 1.085-2.078 2.692-1.996 1.526.082 2.191.512 3.184 2.385.266.502.41.963.83 1.72l1.556 3.102s.133.144.42.277c.358.163 3.07 1.494 3.654 1.72s1.024 1.054.696 1.72c-.327.665-.86.808-1.607.583s-4.515-2.242-4.77-2.385c-.247-.144-1.598-3.174-1.69-3.379-.092-.215-.358-.819-.42-.532-.02.092-.358 1.955-.614 3.389-3.747.563-5.201-.666-5.201-.666"/><path fill="#fff" d="M6.962 34.175c-.093.02-.185.03-.287.04-1.055.031-1.556-1.238-1.085-1.873.47-.635 4.443-5.6 4.576-5.795 0 0 .082-.204.164-.634.04-.205.819-4.065 1.351-6.676 0 0 1.935 1.167 5.232.625-.072.43-.123.706-.133.727-.03.215-.205.89.03 1.28.308.501 2.232 1.095 2.632 1.28 1.392.603.767 2.344.696 2.712-.02.082-.082.4-.184.84 1.515-.614 2.2-.03 2.2-.03s.554-.615 1.107-1.22c.552-.614 1.77-.941 2.385-.89s1.33.727 1.33.727.226-.338 1.28-1.106c1.055-.778 1.66-.942 3.328-1.72 1.659-.778 3.716-1.382 3.716-1.382v14.241H5.59s.686-.624 1.372-1.116z"/><path fill="currentColor" d="M7.566 33.827c.85-.277 2.202-.031 2.345-.134.164-.112.89-1.054 2.16-1.832 1.28-.778 2.273-.113 2.273-.113s.051-.225 1.003-1.556a8 8 0 0 1 1.72-1.771c.277-1.25.543-2.488.553-2.662.03-.338.072-.747-.276-.911-.42-.195-2.734-1.157-3.02-1.3-.308-.154-.932-.277-1.045.225s-.594 3.122-.645 3.348c-.082.317-.245.532-.501.91-.246.39-4.188 5.212-4.434 5.601-.04.061-.081.133-.133.184z"/></g>
</svg>
