<?xml version="1.0" encoding="utf-8"?>
<svg xmlns="http://www.w3.org/2000/svg" viewBox="0 0 40 40">
<path fill="currentColor" d="M0 40h40V0H0z"/><path fill="#fff" d="M23.279 12.16c-.205-1.351-.84-2.467-1.259-3.726-.45-1.34-.614-2.661-.327-4.125-1.811 1.525-1.218 5.68-1.852 6.285-.318.307-.747-.614-.921-1.014-.256-.583-.931-1.627-.645-3.173-.43.4-.593.993-.716 1.556-.236 1.034.05 2.047.05 3.081 0 .194.38 2.2-.398 2.344-.164.03-1.77-1.249-1.709-4.76-.205.277-.44.86-.563 1.157-1.207 2.825.522 8.055.727 8.495.48 1.075.071 1.372-1.116.195-1.3-1.29-.788-1.628-1.504-2.385-.41-.44-1.484-.809-2.17-.532.727.532 1.495 1.832 1.413 2.64-.174 1.71 2.077 5.538 2.077 5.538l-5.239.798.399 2.211 6.508-.921-3.305 3.296 1.637 1.617 4.165-4.125.03 4.688h2.17l.03-4.985 4.493 4.514 1.8-1.78-3.345-3.368 6.733 1.3.48-2.211-4.747-.942s1.78-2.21 2.149-3.337c1.064-3.244-.573-2.907.583-5.547-.972.839-1.79 2.374-2.262 3.193-1.043 1.802-1.3.01-.961-.48 2.69-3.962-.799-5.784.276-9.663-1.013.88-1.504 2.22-1.494 3.51 0 .42.03 2.457-.062 3.102-.04.297-.194 1.3-.972.952-.777-.348.062-2.262-.122-3.43"/><path fill="#fff" d="M20.025 37.349c-9.414 0-17.007-5.271-17.283-12.006v-.051h2.763v.03c.276 5.118 6.764 9.263 14.52 9.263 7.757 0 14.244-4.155 14.52-9.273v-.02h2.764v.061c-.277 6.725-7.87 11.996-17.284 11.996"/>
</svg>
