<?xml version="1.0" encoding="utf-8"?>
<svg xmlns="http://www.w3.org/2000/svg" viewBox="0 0 40 40">
<g clip-path="url(#a)"><mask id="b" width="40" height="40" x="0" y="0" maskUnits="userSpaceOnUse" style="mask-type:luminance"><path fill="#fff" d="M40 0H0v40h40z"/></mask><g mask="url(#b)"><path fill="currentColor" d="M40 0H0v40h40z"/><mask id="c" width="40" height="40" x="0" y="0" maskUnits="userSpaceOnUse" style="mask-type:luminance"><path fill="#fff" d="M40 0H0v40h40z"/></mask><g fill-rule="evenodd" clip-rule="evenodd" mask="url(#c)"><path fill="#fff" d="M13.572 11.693A2.213 2.213 0 1 1 18 11.692a2.213 2.213 0 0 1-4.427.001"/><path fill="#fff" d="M34.419 31.321c-1.572.065-4.289 1.805-5.917 1.805-1.972 0-3.981-1.712-5.553-1.712-1.265 0-4.233 1.563-5.451 1.656h-.921c-1.005-.028-3.619-1.433-4.782-1.433h-.372c-.576 0-3.47 1.284-4.93 1.284h-.744s-.586-.047-.716-.121v-1.907c.26.093.772.149.772.149h.641c.41 0 .977-.158 1.582-.344.26-1.182.744-3.405 1.386-6.186.186-.8.474-1.591.567-1.824 1.265-3.144 2.214-5.32 2.698-6.511.335-.837.94-1.275 2.177-1.516 0 0 7.711-1.703 9.86-2.047.577 0 1.051.428 1.144.986l8.614-8.567v.911l-9.246 9.284a.85.85 0 0 1 .4-.102.98.98 0 0 1 .986.986.98.98 0 0 1-.986.986.98.98 0 0 1-.921-1.33l-3.06 3.05-.512-.511 3.386-3.358c-1.033.214-3.795.79-6.251 1.312-.707.148-.912.139-1.2.837-.8 1.907-1.917 4.604-2.744 6.697-.187.475-.214.68-.094 1.284l1.089 5.674c.623.224 1.181.41 1.544.41h.549c.781-.028 3.944-1.665 5.423-1.61.13 0 .205-.018.623 0 1.507.056 3.787 1.684 5.033 1.684.781 0 2.074-.66 2.977-.995l1.488-.521.744-.195.745-.103v1.88z"/><path fill="currentColor" d="m11.777 24.707.986 5.19c-.307-.074-.577-.13-.837-.13h-.642c-.168 0-.391.047-.66.121l1.162-5.172z"/></g></g></g><defs><clipPath id="a"><path fill="#fff" d="M0 0h40v40H0z"/></clipPath></defs>
</svg>
