<?xml version="1.0" encoding="utf-8"?>
<svg xmlns="http://www.w3.org/2000/svg" viewBox="0 0 40 40">
<g><path fill="currentColor" d="M40 0H0v40h40z"/><g fill="#fff"><path d="M14.25 22.333h-3.075l3.443-5.35-.03-.062h-1.186l1.155-1.93-3.514-5.882-4.464 7.445h1.144l-3.034 4.738h2.697l-3.76 5.729h5.384v3.85h4.055v-2.002H9.95zM32.617 21.292h2.696l-3.044-4.739h1.154L28.96 9.11l-3.514 5.882 1.154 1.93h-1.185l-.03.061 3.432 5.351h-3.065l4.3 6.536h-3.115v2.002h4.055v-3.85h5.384z"/></g><path fill="#fff" d="m27.415 27.45-3.718-5.668-.582-.878h3.095L23.3 16.38l-.562-.878h1.359L20 8.67l-4.096 6.832h1.358l-.572.878-2.9 4.524h3.094l-.582.878-3.718 5.668h5.669v4.401h3.493V27.45h5.669"/></g>
</svg>
