<?xml version="1.0" encoding="utf-8"?>
<svg xmlns="http://www.w3.org/2000/svg" viewBox="0 0 40 40">
<path fill="currentColor" d="M0 0h40v40H0z"/><path fill="#fff" d="M6.113 33.765h6v-7.668s.112-.481.532-.481h3.389c.625 0 .962-.44.921-1.004v-5.15c0-.562-.44-.9-.665-.9l-.348-.062 6.132-3.85-.624-.92S7.977 22.164 7.383 22.502s-1.26.973-1.26 2.191v9.071zM6.645 18.162a2.447 2.447 0 1 1 4.893 0 2.456 2.456 0 0 1-2.447 2.457 2.45 2.45 0 0 1-2.446-2.457"/><path fill="currentColor" d="M13.924 23.23c.584 0 .635.174.635-.43v-2.406l-2.048 2.038c-.46.47-.41.788-.102.788h1.505z"/><path fill="#fff" d="m24.387 8.968 2.836-.522s.133-.174-.031-.757c-.164-.584-.686-.891-.88-1.055-.195-.164-.338-.635-.461-.86s-.39-.583-.39-.583.328-.205 1.424-.062c1.341.174 2.815 1.352 3.48 2.386.103.153.165.123.328.163.277.062 1.24-.245 1.874-.522.88-.378 1.822-.112 1.822-.112h.02s-.654.747-1.586.921c-.676.123-1.648.39-1.853.594-.113.123-.184.133-.184.317.02 1.24-.574 3.03-1.598 3.911-.84.717-1.218.737-1.218.737s.02-.45 0-.706-.164-.727-.082-.973c.072-.245.338-.788.154-1.361-.185-.574-.39-.645-.39-.645l-2.661 1.126z"/>
</svg>
