<?xml version="1.0" encoding="utf-8"?>
<svg xmlns="http://www.w3.org/2000/svg" viewBox="0 0 40 40">
<g><path fill="currentColor" d="M0 0h40v40H0z"/><path fill="#fff" d="M12.729 33.99c0-.245.184-.45.399-.45H26.86c.225 0 .399.205.399.45v1.137c0 .245-.184.45-.4.45H13.129c-.225 0-.4-.194-.4-.45zM24.22 18.03h1.362c.123-.37.44-.636.82-.636.48 0 .87.43.87.963s-.39.962-.87.962c-.37 0-.687-.256-.81-.614H24.22V32.72h-8.366V15.11h8.366v2.9179999999999997M15.854 13.586h2.478V4.423h.717v9.163h.983V4.423h1.71v9.163h2.478v.788h-8.366z"/><path fill="currentColor" d="M16.65 24.684h6.76v-3.532c0-1.73-1.26-3.133-2.817-3.133h-1.126c-1.557 0-2.817 1.403-2.817 3.133zM23.42 25.585h-6.77v6.245h.615v-5.58h5.55l-.01 5.58h.614z"/><path fill="#fff" d="M22.806 24.019h-5.55v-2.857c0-1.361.993-2.457 2.212-2.457h1.126c1.219 0 2.212 1.106 2.212 2.457z"/><path fill="currentColor" d="M18.412 23.507h3.533c.164-.082.154-.686.082-.963-.061-.276.072-.594.072-.594-.256.175-.46.881-.625.994-.163.112-.184-.215 0-.482.185-.266.154-.89-.01-1.32-.174-.44-.061-.993-.061-.993-.277.133-.328.819-.328.962s.123.819-.102.983c-.226.174-.195-.246-.195-.246s.062-.952-.113-1.167c-.174-.225-.297-1.372-.297-1.372-.122.123-.266.911-.276 1.25-.01.337-.143.255-.143.255-.349-.256-.318-1.065-.318-1.065-.205.133-.205.963-.133 1.444s-.154.317-.154.317c-.338-.215-.338-1.208-.338-1.208-.491 1.075-.061 2.15-.03 2.324.04.164.245.43.061.45s-.369-.368-.553-.706c-.174-.338-.584-.235-.584-.235s.318.215.359.624c.03.41.153.768.153.768z"/></g>
</svg>
