<?xml version="1.0" encoding="utf-8"?>
<svg xmlns="http://www.w3.org/2000/svg" viewBox="0 0 40 40">
<g><path fill="currentColor" d="M40 0H0v40h40z"/><g fill="#fff"><path d="M9.622 17.627c-.399-.604-.818-1.33-.982-2.18-.173-.849-.112-1.78.164-2.772.143-.501.327-.992.511-1.463.144-.368.277-.726.39-1.084.296-.92.408-1.81.357-2.63-.051-.726-.256-1.483-.655-2.383l1.207-.522c.46 1.044.696 1.944.757 2.824.061.982-.071 2.025-.42 3.1-.122.399-.275.777-.418 1.156-.174.47-.348.91-.471 1.35-.225.798-.266 1.504-.143 2.159.123.634.47 1.217.798 1.718l-1.095.716zM13.98 17.627c-.39-.604-.819-1.33-.993-2.18-.163-.849-.112-1.78.164-2.772.143-.501.327-.992.511-1.463.143-.368.276-.726.389-1.084.297-.92.409-1.81.358-2.63-.051-.726-.256-1.483-.655-2.383l1.197-.522c.46 1.044.695 1.944.757 2.824.061.982-.072 2.025-.42 3.1-.122.399-.276.777-.419 1.156-.174.47-.348.91-.47 1.35-.225.798-.266 1.504-.144 2.159.123.634.47 1.217.798 1.718l-1.094.716zM18.336 17.627c-.4-.604-.819-1.33-.992-2.18-.174-.849-.113-1.78.163-2.772.143-.501.327-.992.511-1.463.144-.368.277-.726.39-1.084.296-.92.418-1.81.357-2.63-.051-.726-.256-1.483-.644-2.383l1.197-.522c.46 1.044.695 1.944.756 2.824.062.982-.071 2.025-.419 3.1-.123.399-.276.777-.42 1.156-.173.47-.347.91-.47 1.35-.225.798-.276 1.504-.143 2.159.123.624.47 1.217.798 1.718l-1.095.716zM22.685 17.627c-.4-.604-.818-1.33-.992-2.18-.164-.849-.113-1.78.163-2.772.133-.501.328-.992.512-1.463.143-.368.276-.726.388-1.084.297-.92.42-1.81.358-2.63-.05-.726-.255-1.483-.654-2.383l1.196-.522c.46 1.044.696 1.944.757 2.824.062.982-.071 2.025-.42 3.1-.122.399-.275.777-.418 1.156-.174.47-.348.91-.47 1.35-.226.798-.267 1.504-.144 2.159.123.624.47 1.217.798 1.718l-1.095.716zM24.412 35.99h-.082a2.305 2.305 0 0 1-2.301-2.302V21.913a.637.637 0 0 0-.634-.634h-.072a.637.637 0 0 0-.634.634v11.775a2.305 2.305 0 0 1-2.301 2.302h-.072a2.314 2.314 0 0 1-2.311-2.302V21.913a.637.637 0 0 0-.634-.634h-.072a.637.637 0 0 0-.634.634v11.775a2.307 2.307 0 0 1-2.311 2.302h-.082a2.305 2.305 0 0 1-2.301-2.302V21.913a.637.637 0 0 0-.634-.634h-.082a.637.637 0 0 0-.634.634v12.91c0 .46-.379.84-.839.84a.843.843 0 0 1-.839-.84v-12.91a2.305 2.305 0 0 1 2.302-2.302h.081a2.305 2.305 0 0 1 2.302 2.302v11.775c0 .348.286.634.634.634h.082a.64.64 0 0 0 .644-.634V21.913a2.305 2.305 0 0 1 2.301-2.302h.072a2.305 2.305 0 0 1 2.3 2.302v11.775a.64.64 0 0 0 .645.634h.072a.637.637 0 0 0 .634-.634V21.913a2.305 2.305 0 0 1 2.301-2.302h.072a2.305 2.305 0 0 1 2.3 2.302v11.775c0 .348.287.634.635.634h.082a.637.637 0 0 0 .634-.634V21.913a2.305 2.305 0 0 1 2.301-2.302h1.544c.46 0 .84.369.84.84 0 .47-.38.838-.84.838h-1.544a.637.637 0 0 0-.634.634v11.775A2.305 2.305 0 0 1 24.402 36z"/><path d="M32.574 17.279h-1.391c-1.401.01-2.536 1.422-2.536 3.15 0 1.73 1.135 3.141 2.536 3.152h1.39z"/><path d="M35.09 18.2h-2.822v1.462h2.822zM35.09 21.197h-2.822v1.463h2.822z"/></g></g>
</svg>
