<?xml version="1.0" encoding="utf-8"?>
<svg xmlns="http://www.w3.org/2000/svg" viewBox="0 0 40 40">
<g clip-path="url(#a)"><path fill="currentColor" d="M0 0h41.023v40.91H0z"/><g><path fill="#fff" d="M29.48 23.55c-1.47 0-2.66-1.19-2.66-2.66s1.19-2.66 2.66-2.66 2.66 1.19 2.66 2.66-1.19 2.66-2.66 2.66M13.84 23.55c-1.47 0-2.66-1.19-2.66-2.66s1.19-2.66 2.66-2.66 2.66 1.19 2.66 2.66-1.19 2.66-2.66 2.66"/><path fill="#fff" d="M35.86 20.43V14.7L33.4 8.85h2.13s-1.57-3.76-1.79-4.25h-7.73c-.5 0-6.1 2.16-6.1 2.16H7.53s-2.28 6.47-2.28 7.21 2.28 6.47 2.28 6.47h2.64a3.7 3.7 0 0 1 3.66-3.18c1.87 0 3.41 1.39 3.66 3.19h8.26a3.69 3.69 0 0 1 3.66-3.19 3.69 3.69 0 0 1 3.66 3.18h2.79z"/><path fill="currentColor" d="M28.22 14.95v-5.6h4.07l2.04 5.36-.01 1.97h-2.37l-.71-1.73zM14.86 9.35v5.6H8.94v-5.6z"/></g></g><defs><clipPath id="a"><path fill="#fff" d="M0 0h40v40H0z"/></clipPath></defs>
</svg>
