<?xml version="1.0" encoding="utf-8"?>
<svg xmlns="http://www.w3.org/2000/svg" viewBox="0 0 40 40">
<path fill="currentColor" d="M0 0h40v40H0z"/><path fill="#fff" d="M17.45 12.265c0-.798.646-1.443 1.444-1.443h.062c.798 0 1.443.645 1.443 1.443v.737l2.814 2.816c.215-.256.42-.543.615-.87 2.128-3.635 4.268-4.29 4.268-4.29l.41-1.894.685 1.679c1.893.092 4.503 5.784 4.503 5.784l-.951.635s-.942-.972-1.382-1.372c-.543-.327-1.034-.112-1.361-.143-.338-.041-.963-.788-1.116-.983-.809 3.819-2.61 9.818-2.61 9.818l2.559 4.116-.911 4.064-1.32 1.649-.256-1.7.992-.48c.256-.257.717-3.482.717-3.482-1.32-1.7-2.794-2.641-2.794-2.641-3.276 4.955-.635 9.368-.635 9.368h-1.239c.103-.584-.665-1.444-.665-1.444.051-5.232.809-8.528.809-8.528-4.8.89-8.025-1.495-8.025-1.495-.123.993-2.61 5.385-2.61 5.385 1.679 2.334 3.101 6.092 3.101 6.092h-1.166c.102-1.444-.717-1.474-.717-1.474-.583-2.181-2.385-4.597-2.385-4.597.46-.768.911-3.502.911-3.502-5.046 4.771-1.474 9.573-1.474 9.573l-1.29.02c.103-1.013-.767-1.495-.767-1.495.02-.327.205-5.712.205-5.712 1.648-1.495 1.248-3.788 1.248-3.788-.89-2.284-1.023-3.768-.972-4.648-2.17 3.071-1.27 9.378-1.27 9.378H6.387C5.793 22 9.048 19.176 9.723 18.664c.051-.164.092-.236.092-.236 1.29-1.699 3.327-1.73 3.93-1.648.472.062 2.734.42 3.706.584v-5.099Z"/><path fill="currentColor" d="m22.323 16.647-1.925-1.925v2.765a5 5 0 0 0 1.925-.84"/><path fill="#fff" d="M17.41 8.467a1.487 1.487 0 0 1 1.485-1.32c.767 0 1.402.572 1.484 1.32H17.4zm2.968.43a1.505 1.505 0 0 1-1.474 1.249 1.5 1.5 0 0 1-1.474-1.25h2.958z"/>
</svg>
