<?xml version="1.0" encoding="utf-8"?>
<svg xmlns="http://www.w3.org/2000/svg" viewBox="0 0 40 40">
<path fill="currentColor" d="M40 0H0v40h40z"/><path fill="#fff" d="M6.326 31.656h7.802v-9.87s4.453 2.795 4.975 3.113c.737.46 1.454.184 1.823-.492.358-.675 3.44-5.59 3.767-6.05.737-1.044-.491-1.874-.491-1.874l9.48-.03v-1.546s-23.353-.02-24.295 0c-2.436.05-3.07 2.16-3.06 3.153v13.606-.01Z"/><path fill="currentColor" d="m19.216 20.834 1.976-3.204-6.747.02z"/><path fill="#fff" d="M13.596 10.545a3.386 3.386 0 0 0-3.389-3.389 3.386 3.386 0 0 0-3.389 3.39 3.386 3.386 0 0 0 3.39 3.388 3.386 3.386 0 0 0 3.388-3.389"/>
</svg>
