<?xml version="1.0" encoding="utf-8"?>
<svg xmlns="http://www.w3.org/2000/svg" viewBox="0 0 40 40">
<path fill="currentColor" d="M0 0h40v40H0z"/><path fill="#fff" d="M22.205 8.2c0-1.35 1.812-2.446 4.054-2.446s4.055 1.095 4.055 2.447c0 1.351-1.812 2.447-4.055 2.447S22.205 9.552 22.205 8.2M28.298 12.03c-.39.583-6.88 10.002-8.211 12.726-1.31 2.682-1.792 4.422.194 4.32 1.987-.092 4.126-1.167 4.126-1.167l-1.894 5.15s-2.529.972-6.07 1.167c-3.543.194-5.202-1.649-5.243-3.788-.05-2.14 1.505-5.59 1.7-6.02.194-.44.972-1.894.972-1.894H9.695l.051-.39s5.048-3.255 7.188-5.733c.276-.317 3.931-4.371 3.931-4.371z"/>
</svg>
