<?xml version="1.0" encoding="utf-8"?>
<svg xmlns="http://www.w3.org/2000/svg" viewBox="0 0 40 40">
<g><path fill="currentColor" d="M0 0h40v40H0z"/><path fill="#fff" d="M24.66 8.612H22.59c-2.13 0-2.611 3.431-3.154 6.176-.553 2.795-.655 3.492-.748 4.208-.122.994.502 1.875 1.066 1.885.952.03 2.386 0 2.386 0L24.66 8.602zM23.514 18.484c.174-.86.297-1.444.297-1.444s.737-3.635.9-4.331c.288-1.25 1.035-1.997 2.582-1.915 1.464.071 2.099.491 3.051 2.283.256.482.39.922.799 1.65l1.495 2.969s.123.143.4.266c.348.164 2.949 1.434 3.502 1.649.563.215.983 1.003.665 1.649-.317.634-.819.768-1.536.553-.716-.215-4.331-2.15-4.567-2.284s-1.567-3.031-1.618-3.246-.133-.103-.133.133c0 .123-.154 1.331-.297 2.457-3.636.84-5.53-.41-5.53-.41z"/><path fill="#fff" d="M28.92 19.846a63 63 0 0 1-.143 1.076c-.02.215-.205.85.03 1.218.298.482 1.568 2.714 1.834 3.083.788 1.096.368 2.1.297 2.447-.082.369-1.086 5.07-1.25 5.55-.163.482-.716.933-1.33.82-.759-.133-1.148-.85-.984-1.352.195-.625 1.085-5.13 1.198-5.417.123-.338.225-.482 0-.768-.266-.348-2.335-3.82-2.58-4.015-.236-.184-.871-.327-.984.164-.102.482-.747 4.066-.798 4.27-.072.308-.236.502-.482.881-.235.369-4.014 4.998-4.25 5.366a1.16 1.16 0 0 1-.983.553c-1.014.01-1.495-1.187-1.044-1.802.45-.614 4.26-5.366 4.383-5.55 0 0 .082-.205.164-.615.05-.297.798-3.85 1.31-6.328 0 0 1.864 1.187 5.602.43zM26.606 8.08a2.47 2.47 0 0 1 2.467-2.468 2.47 2.47 0 0 1 2.468 2.468 2.47 2.47 0 0 1-2.468 2.468 2.47 2.47 0 0 1-2.468-2.468M8.15 15.832H6.665c-1.526 0-1.874 2.458-2.263 4.424-.4 2.007-.471 2.499-.532 3.021-.093.717.358 1.342.757 1.352.686.02 1.71 0 1.71 0l1.803-8.797zM7.333 22.898c.122-.614.215-1.034.215-1.034s.532-2.612.645-3.103c.205-.891.737-1.424 1.843-1.372 1.045.05 1.505.348 2.191 1.638.185.338.287.666.574 1.178l1.065 2.13s.092.102.287.184c.246.113 2.11 1.024 2.509 1.178.4.154.706.727.47 1.178-.225.45-.593.553-1.105.399s-3.103-1.546-3.277-1.639-1.127-2.17-1.157-2.324c-.041-.154-.093-.072-.093.092 0 .092-.102.952-.215 1.761-2.6.605-3.963-.286-3.963-.286z"/><path fill="#fff" d="M11.205 23.871c-.052.41-.093.717-.103.768-.02.154-.143.604.02.88.205.339 1.127 1.936 1.311 2.203.564.788.267 1.505.216 1.75-.062.267-.779 3.636-.891 3.974-.113.338-.512.666-.953.584-.543-.093-.82-.605-.707-.963.144-.45.779-3.676.86-3.881.093-.246.165-.338 0-.553-.194-.246-1.668-2.734-1.843-2.867-.174-.134-.624-.236-.706.112-.072.348-.533 2.909-.574 3.062-.05.215-.174.358-.338.625-.174.266-2.877 3.574-3.041 3.84a.85.85 0 0 1-.696.4c-.728 0-1.065-.85-.748-1.29.328-.441 3.052-3.841 3.144-3.974 0 0 .061-.144.113-.44.04-.216.573-2.766.942-4.537 0 0 1.33.85 4.014.307zM9.545 15.443a1.772 1.772 0 1 1 3.544.001 1.772 1.772 0 0 1-3.544-.001"/></g>
</svg>
