<?xml version="1.0" encoding="utf-8"?>
<svg xmlns="http://www.w3.org/2000/svg" viewBox="0 0 40 40">
<path fill="currentColor" d="M0 0h40v40H0z"/><path fill="#fff" d="M4.023 31.083a9.282 9.282 0 0 1 4.945.809c2.396.931 4.433-1.086 6.85-1.086.87 0 1.801.144 2.59.543.245.102 2.15.89 3.399.89s3.153-.788 3.399-.89c.778-.4 1.72-.543 2.59-.543 2.416 0 4.454 2.027 6.85 1.085a9.5 9.5 0 0 1 1.371-.511v1.873c-.215.082-.43.174-.645.266 0 0-.553.236-1.341.369-2.877.46-3.829-1.3-6.235-1.3-.604 0-1.27.092-1.812.368 0 0-.625.277-1.423.533-.768.256-1.823.532-2.744.532-1.3 0-2.98-.543-4.167-1.075 0 0-.184-.092-.45-.174a4.8 4.8 0 0 0-1.362-.195c-2.754 0-4.146 2.417-7.576.942-1.177-.552-2.908-.89-4.218-.634v-1.802zm23.865-3.676v-3.931h-9.89v4.29c.133.05.277.112.4.174.245.102 2.15.89 3.399.89s3.153-.788 3.399-.89c.778-.4 1.72-.543 2.59-.543h.102zm-23.087.236v-4.157h-.819v-1.7H20.65v-5.344l.092-1.003H3.982v-1.7h13.77a.6.6 0 0 1 .062-.215l.522-1.945 2.355-1.607s.635-.44.921-.614c.297-.185 1.26-.256 1.884-.041.676.235.911.583.952.655.062.113 1.474 2.355 1.474 2.355l.83.542.573.42c.215.143.348.297.41.45h2.529v1.7h-.727v6.348h.808v1.7h-.808v4.238c1.7.522 3.296 1.484 5.088.778.47-.215.931-.39 1.372-.512v1.873c-.215.082-.43.164-.645.267 0 0-.553.235-1.341.368-2.877.46-3.83-1.3-6.235-1.3-.604 0-1.27.092-1.812.358 0 0-.625.277-1.424.543-.767.246-1.822.532-2.743.532-1.3 0-2.98-.542-4.167-1.075 0 0-.185-.092-.45-.174a4.8 4.8 0 0 0-1.362-.194c-2.754 0-4.147 2.416-7.577.931-1.177-.553-2.907-.88-4.218-.634v-1.802c.195-.02.461-.041.778-.052zm11.549-.215v-3.952H6.46v4.27a9.3 9.3 0 0 1 2.508.747c2.396.941 4.433-1.086 6.85-1.086.174 0 .348 0 .532.02m11.538-6.358v-5.631h-4.29l-.071.768 1.31 5.58h3.051zm-4.29.716-1.269-5.19c-.041-.092-.184-.184-.307-.02-.133.48-.113 3.409-.082 5.22h1.659zm-2.682-8.047.256-2.63-1.822 1.238-.369 1.393zm4.966 0-.748-.511-1.167-1.843-.215 2.355zm-3.625-6.316c0-.799.645-1.434 1.434-1.434s1.433.645 1.433 1.434-.645 1.433-1.433 1.433a1.44 1.44 0 0 1-1.434-1.433"/>
</svg>
