<?xml version="1.0" encoding="utf-8"?>
<svg xmlns="http://www.w3.org/2000/svg" viewBox="0 0 40 40">
<path fill="currentColor" d="M0 0h40v40H0z"/><path fill="#fff" fill-rule="evenodd" d="M18.4 14.58c0-.877.714-1.59 1.59-1.59s1.59.713 1.59 1.59c0 .876-.713 1.59-1.59 1.59-.876 0-1.59-.714-1.59-1.59" clip-rule="evenodd"/><path fill="#fff" fill-rule="evenodd" d="M6.81 23.362h.408c1.519.061 4.302 1.753 5.882 1.753 1.906 0 3.853-1.65 5.372-1.65 1.223 0 4.108 1.507 5.28 1.609h.887c.979-.03 3.496-1.396 4.628-1.396h.357c.275 0 1.08.306 1.998.611l3.945-2.404h-9.909l3.272-7.428c1.764.734 3.364-4.808 3.364-4.808l-2.507-1.142s-3.364 4.84-1.58 5.675l-1.285 2.894a.83.83 0 0 0-.672-.357h-7.28c-.703 0-1.55-.173-2.477 1.192a209 209 0 0 0-2.66 3.984H5.098L6.8 23.372zm.548 2.201c-1.926.03-2.854.367-2.997.458v2.018c.225-.102 1.142-.663 2.09-.652.469 0 .153-.031.765 0 1.518.06 4.301 1.752 5.881 1.752 1.907 0 3.854-1.65 5.372-1.65 1.224 0 4.108 1.507 5.28 1.61h.888c.978-.031 3.506-1.386 4.628-1.386h.356c.56 0 3.354 1.243 4.781 1.243h.724s.57-.041.693-.123V26.99c-.255.092-.744.143-.744.143h-.622c-1.203 0-3.823-1.243-4.679-1.243h-.622c-1.427 0-3.812 1.365-4.78 1.365h-.53c-.755-.03-3.823-1.61-5.25-1.559-.133 0-.204-.01-.602 0-1.457.061-3.67 1.63-4.872 1.63-.49 0-3.415-1.782-5.76-1.752z" clip-rule="evenodd"/><path fill="currentColor" fill-rule="evenodd" d="m26.35 18.37-1.336 3.026a.8.8 0 0 0-.326-.357L20.07 18.38h6.28zm-6.483 1.793c-.52-.326-1.141.764-1.773 1.732h4.842s-2.844-1.59-3.069-1.732" clip-rule="evenodd"/>
</svg>
