<?xml version="1.0" encoding="utf-8"?>
<svg xmlns="http://www.w3.org/2000/svg" viewBox="0 0 40 40">
<g><path fill="currentColor" d="M0 0h40v40H0z"/><g fill="#fff"><path d="m16.185 5.294-.762 1.328c3.348 0 4.296 1.37 4.564 2.07 0 0 .164.422-.278.422H8.068c-.381 0-.299-.443-.299-.443.515-2.06 4.656-2.1 4.656-2.1l-.752-1.288c-.216-.268.093-.38.093-.38 1.865-.536 3.688-.155 4.368.02 0 0 .247.123.051.37M32.296 10.906c-.082-.577-.927-.638-.927-.638l-11.238.834v-.762H7.728v7.693s-.237 1.421 1.071 1.421h10.003s1.329.124 1.329-1.328v-4.233l.69-.494c3.296-1.113 5.665-.289 5.665-.289l4.945-.535c1.061-.062.968-.587.968-.587zM11.26 26.488c1.412-1.153.372-4.356.372-4.356h-.557v2.338c0 .113-.082.216-.185.216s-.186-.093-.186-.216v-2.338h-.648v2.338c0 .113-.083.216-.186.216s-.185-.093-.185-.216v-2.338h-.557s-1.03 3.203.382 4.356c0 0 .556.186.504 1.205l-.443 6.725s.062.783.752.783h.114c.69 0 .752-.783.752-.783l-.443-6.725c-.062-1.03.505-1.205.505-1.205zM15.4 35.211s.917.01.876-.484c0 0-.525-3.398-.33-6.612l.237-5.221s.021-.783-.504-.783c0 0-1.154-.051-1.422 2.935 0 0-.196 2.215.237 3.512 0 0 .495 1.04.453 1.74 0 0-.412 3.873-.474 4.264 0 0-.216.65.917.65z"/><g><path d="M25.321 21.967a6.7 6.7 0 0 0-6.706 6.705 6.7 6.7 0 0 0 6.706 6.704 6.706 6.706 0 0 0 6.707-6.704 6.706 6.706 0 0 0-6.707-6.705m0 11.782a5.093 5.093 0 0 1-5.088-5.088 5.093 5.093 0 0 1 5.088-5.087 5.093 5.093 0 0 1 5.09 5.087 5.086 5.086 0 0 1-5.09 5.088"/><path d="M25.322 24.16a4.506 4.506 0 0 0-4.502 4.501c0 2.482 2.02 4.5 4.502 4.5a4.506 4.506 0 0 0 4.502-4.5c0-2.482-2.02-4.5-4.502-4.5"/></g></g></g>
</svg>
