<?xml version="1.0" encoding="utf-8"?>
<svg xmlns="http://www.w3.org/2000/svg" viewBox="0 0 40 40">
<g><path fill="currentColor" d="M40 0H0v40h40z"/><g><path fill="#fff" d="M15.725 19.598h-5.706a3.203 3.203 0 0 0-3.203 3.203v5.706a3.203 3.203 0 0 0 3.203 3.203h5.706a3.203 3.203 0 0 0 3.203-3.203V22.8a3.203 3.203 0 0 0-3.203-3.203M15.725 5.685h-5.706a3.203 3.203 0 0 0-3.203 3.203v5.705a3.203 3.203 0 0 0 3.203 3.203h5.706a3.203 3.203 0 0 0 3.203-3.203V8.888a3.203 3.203 0 0 0-3.203-3.203M33.191 30.37a1.34 1.34 0 0 1-1.339 1.33H22.41a1.33 1.33 0 0 1-1.329-1.33v-9.443c0-.731.597-1.329 1.329-1.329h9.443a1.34 1.34 0 0 1 1.34 1.329zM22.409 5.685h9.454c.73 0 1.328.597 1.328 1.328v9.444c0 .732-.597 1.329-1.328 1.329h-9.444a1.336 1.336 0 0 1-1.339-1.339V7.003c0-.731.597-1.328 1.329-1.328z"/><path fill="currentColor" d="M14.89 11.74a2.015 2.015 0 0 1-2.018 2.019 2.015 2.015 0 0 1-2.018-2.018c0-1.113.906-2.02 2.018-2.02s2.019.907 2.019 2.02"/><path stroke="currentColor" stroke-miterlimit="10" stroke-width="1.99" d="M30.896 11.74c0 2.112-1.689 3.832-3.77 3.832s-3.769-1.71-3.769-3.831 1.69-3.821 3.77-3.821 3.769 1.71 3.769 3.82Z"/><path stroke="currentColor" stroke-miterlimit="10" stroke-width="1.99" d="M29.484 11.74c0 1.329-1.06 2.4-2.358 2.4s-2.358-1.071-2.358-2.4 1.06-2.4 2.358-2.4 2.358 1.072 2.358 2.4Z"/><path stroke="currentColor" stroke-miterlimit="10" stroke-width="1.55" d="M28.207 11.74c0 .608-.484 1.092-1.071 1.092a1.08 1.08 0 0 1-1.072-1.091c0-.608.485-1.092 1.072-1.092s1.07.494 1.07 1.092Z"/><path stroke="currentColor" stroke-miterlimit="10" stroke-width="1.99" d="M30.896 25.654c0 2.111-1.689 3.831-3.77 3.831s-3.769-1.72-3.769-3.831 1.69-3.831 3.77-3.831 3.769 1.71 3.769 3.831Z"/><path stroke="currentColor" stroke-miterlimit="10" stroke-width="1.99" d="M29.484 25.654c0 1.329-1.06 2.4-2.358 2.4s-2.358-1.071-2.358-2.4 1.06-2.4 2.358-2.4 2.358 1.072 2.358 2.4Z"/><path stroke="currentColor" stroke-miterlimit="10" stroke-width="1.55" d="M28.207 25.654c0 .608-.484 1.092-1.071 1.092a1.08 1.08 0 0 1-1.072-1.092c0-.608.485-1.092 1.072-1.092s1.07.495 1.07 1.092Z"/><path fill="currentColor" d="M14.89 25.654a2.015 2.015 0 0 1-2.018 2.018 2.015 2.015 0 0 1-2.018-2.018c0-1.112.906-2.019 2.018-2.019s2.019.907 2.019 2.019"/><path stroke="currentColor" stroke-miterlimit="10" stroke-width="2.43" d="M12.873 5.685v2.698M12.873 15.098v2.698M12.873 19.598v2.688M9.504 11.74H6.816M18.918 11.74h-2.687M12.873 31.71V29.01M16.23 25.685h2.688M6.816 25.685h2.688"/><path fill="#fff" d="M10.32 34.315H9.093l-.948-1.318h3.12zM16.642 34.315h-1.226l-.947-1.318h3.13zM24.583 34.315h-1.225l-.948-1.318h3.12zM30.904 34.315h-1.226l-.948-1.318h3.12z"/></g></g>
</svg>
