<?xml version="1.0" encoding="utf-8"?>
<svg xmlns="http://www.w3.org/2000/svg" viewBox="0 0 40 40">
<path fill="currentColor" d="M0 0h40v40H0z"/><path fill="#fff" d="M26.363 6.542c0 .512.41.922.921.922s.922-.41.922-.922a.92.92 0 0 0-.922-.921.92.92 0 0 0-.921.921m-2.723 0c0 .512.41.922.921.922s.922-.41.922-.922a.92.92 0 0 0-.922-.921.92.92 0 0 0-.921.921M8.846 6.163c0-.614.491-1.105 1.105-1.105h20.087c.604 0 1.106.491 1.106 1.105V8.12H8.846zm3.593 14.098a7.524 7.524 0 0 0 7.525 7.525 7.524 7.524 0 0 0 7.525-7.525 7.524 7.524 0 0 0-7.525-7.525 7.524 7.524 0 0 0-7.525 7.525M31.144 9.235v24.592c0 .604-.491 1.105-1.106 1.105H9.951a1.11 1.11 0 0 1-1.105-1.105V9.235zm-17.497 9.9c.287.44.83.737 1.444.737.778 0 1.433-.47 1.618-1.095.194.634.839 1.095 1.617 1.095s1.423-.47 1.618-1.095c.194.634.84 1.095 1.617 1.095.778 0 1.423-.47 1.618-1.095.195.634.84 1.095 1.618 1.095.645 0 1.208-.328 1.484-.799a6.427 6.427 0 0 1-6.317 7.617 6.427 6.427 0 0 1-6.43-6.429c0-.389.031-.758.103-1.126z"/>
</svg>
