<?xml version="1.0" encoding="utf-8"?>
<svg xmlns="http://www.w3.org/2000/svg" viewBox="0 0 40 40">
<g><path fill="currentColor" d="M0 0h40v40H0z"/><path fill="#fff" d="M17.83 12.51a.86.86 0 0 1 .665-.327h1.065v-.675c0-.236.195-.42.43-.42h.113c.235 0 .42.184.42.42v.675h1.054c.277 0 .512.123.666.328 1.393.02 2.509.993 2.509 2.201 0 .143-.01.287-.041.43h-9.35a2 2 0 0 1-.04-.43c0-1.208 1.115-2.18 2.508-2.201M14.234 10.689a.433.433 0 0 1-.604 0l-1.28-1.28a.43.43 0 0 1 0-.604l.092-.092a.433.433 0 0 1 .604 0l1.28 1.28a.43.43 0 0 1 0 .603zM10.65 18.019a.426.426 0 0 1-.522.297l-1.752-.471a.426.426 0 0 1-.297-.522l.031-.123a.426.426 0 0 1 .522-.297l1.752.471a.426.426 0 0 1 .297.522zM11.786 25.35a.426.426 0 0 1-.297.522l-1.751.47a.426.426 0 0 1-.522-.296l-.031-.123a.426.426 0 0 1 .297-.522l1.751-.471a.426.426 0 0 1 .522.297zM25.418 29.496l-.738.727a.5.5 0 0 1-.276.143v2.723c0 .246-.256.45-.574.461h-7.65c-.317-.01-.573-.215-.573-.46v-2.714a.53.53 0 0 1-.307-.143l-.727-.727a.51.51 0 0 1-.02-.696l-1.598-11.364a.44.44 0 0 1 .04-.256.43.43 0 0 1 .4-.246h1.106c.01-.46.39-.82.85-.82h9.309c.46 0 .84.37.85.82h1.106c.184 0 .338.102.4.246a.5.5 0 0 1 .04.256L25.46 28.83a.493.493 0 0 1-.041.676z"/><path fill="currentColor" d="m23.461 28.83.646-.645a.5.5 0 0 1 .634-.061l1.465-10.443h-.717a.866.866 0 0 1-.84.717h-.686v6.286c0 .368-.379.676-.85.676h-.502v3.47h.85M20.041 25.36h-1.935v3.46h3.789v-3.46H20.04M20 19.37c-.533.082-.79.45-.79.697v3.941h1.578v-3.941c0-.256-.256-.615-.788-.697"/><path fill="currentColor" d="M20 18.388h-2.592v5.61h1.157v-3.983s0-.082.01-.123c.093-.604.646-1.075 1.373-1.177h.082c.727.102 1.28.584 1.372 1.177 0 .041.01.082.01.123v3.983h1.158v-5.61h-2.581zM16.52 28.83h.86v-3.47h-.502c-.471 0-.85-.308-.85-.676v-6.286h-.686a.86.86 0 0 1-.84-.717h-.717l1.465 10.433a.5.5 0 0 1 .614.071l.645.645z"/><path fill="#fff" d="m25.764 10.689-.092-.093a.433.433 0 0 1 0-.604l1.28-1.28a.433.433 0 0 1 .604 0l.082.093a.43.43 0 0 1 0 .604l-1.28 1.28a.433.433 0 0 1-.604 0zM29.35 18.019l-.03-.123a.426.426 0 0 1 .297-.522l1.75-.471a.426.426 0 0 1 .523.297l.03.123a.426.426 0 0 1-.296.522l-1.751.47a.426.426 0 0 1-.523-.296M28.212 25.35l.031-.123a.426.426 0 0 1 .522-.297l1.751.47a.426.426 0 0 1 .297.523l-.03.123a.426.426 0 0 1-.523.297l-1.75-.471a.426.426 0 0 1-.298-.523M19.559 6.86c0-.236.194-.42.43-.42h.112c.236 0 .42.194.42.42v1.812c0 .235-.184.43-.42.43h-.112a.433.433 0 0 1-.43-.43z"/></g>
</svg>
