<?xml version="1.0" encoding="utf-8"?>
<svg xmlns="http://www.w3.org/2000/svg" viewBox="0 0 40 40">
<g><path fill="currentColor" d="M40 0H0v40h40z"/><path fill="#fff" stroke="#fff" stroke-miterlimit="10" stroke-width=".49" d="M31.438 15.856h-.233l2.283-2.283s.01-.02.02-.03c.66-.64 1.004-1.542 1.004-2.698 0-2.384-1.846-3.247-3.084-3.247H17.043a.85.85 0 0 0-.588.234L6.706 17.59a.85.85 0 0 0-.183.902.83.83 0 0 0 .761.508H21.67c.244 0 1.43.08 1.43 1.603 0 .72-.192 1.166-.425 1.44l-.112.112-.01.01c-.305.264-.66.314-.822.325H7.315c-.051 0-.183-.041-.183-.447 0-.436.152-.466.233-.477H20.26a.825.825 0 0 0 .822-.821.834.834 0 0 0-.822-.832H7.345c-.75 0-1.866.568-1.866 2.13s1.085 2.09 1.805 2.09H8.41l-1.714 1.714a.85.85 0 0 0-.183.903.815.815 0 0 0 .761.507H21.66c.244 0 1.43.082 1.43 1.603 0 .72-.192 1.167-.426 1.44l-.111.112v.01a1.4 1.4 0 0 1-.822.325H7.315c-.051 0-.183-.04-.183-.446 0-.436.152-.467.233-.477H20.26a.827.827 0 0 0 .822-.832.827.827 0 0 0-.822-.832H7.345c-.75 0-1.866.568-1.866 2.13 0 1.563 1.085 2.1 1.805 2.1H21.72c.426 0 1.197-.162 1.846-.7a.8.8 0 0 0 .152-.121l9.75-9.75s.01-.02.02-.03c.659-.639 1.004-1.541 1.004-2.698 0-2.384-1.846-3.256-3.084-3.256zm-9.759 1.491H9.293l8.105-8.105h14.04c.244 0 1.43.08 1.43 1.602 0 .7-.172 1.218-.517 1.532l-.02.02-3.58 3.582a.9.9 0 0 0-.275.274l-3.753 3.753c-.274-1.938-1.907-2.658-3.033-2.658zm0 8.268H9.293l1.38-1.38s.05-.06.07-.091H21.73c.426 0 1.187-.162 1.846-.7.051-.03.102-.07.153-.111l5.812-5.813h1.877c.335 0 1.43.142 1.43 1.602 0 .7-.172 1.218-.517 1.532l-.02.02-7.609 7.609c-.274-1.938-1.907-2.658-3.033-2.658z"/></g>
</svg>
