<?xml version="1.0" encoding="utf-8"?>
<svg xmlns="http://www.w3.org/2000/svg" viewBox="0 0 40 40">
<g><path fill="currentColor" d="M40 0H0v40h40z"/><path fill="#fff" fill-rule="evenodd" d="m19.503 18.766-.02-9.542-.01-1.003h-1.004l-9.532-.03v1.064l9.48.02.021 9.481z" clip-rule="evenodd"/><path stroke="#fff" stroke-miterlimit="10" stroke-width="1.35" d="m19.503 18.766-.02-9.542-.01-1.003h-1.004l-9.532-.03v1.064l9.48.02.021 9.481z"/><path stroke="#fff" stroke-miterlimit="10" stroke-width="4.04" d="M26.822 10.238a10.98 10.98 0 0 1 5.59 9.573 10.98 10.98 0 0 1-10.985 10.985A10.98 10.98 0 0 1 10.44 19.811c0-5.222 3.655-9.604 8.539-10.71"/></g>
</svg>
