<?xml version="1.0" encoding="utf-8"?>
<svg xmlns="http://www.w3.org/2000/svg" viewBox="0 0 21 20">
<g fill="currentColor"><path d="M18.103 6.542a.33.33 0 0 0-.317-.277h-1.46a.333.333 0 0 0-.325.342v.402c0 .19.145.342.324.342h.613c.159 0 .29.117.317.278l.572 3.049c.055.298-.255.517-.496.357l-2.584-1.729c-.22-.146-.502.022-.502.3l.117 5.433c0 .11-.042.204-.117.277l-2.591 2.247c-.214.182-.53.022-.53-.27V14.23a.333.333 0 0 0-.325-.343h-.378a.333.333 0 0 0-.324.343v3.02c0 .291-.324.452-.538.262L6.872 15.09a.36.36 0 0 1-.117-.27L6.9 9.57c.007-.285-.303-.46-.517-.285L3.58 11.472c-.241.183-.572-.036-.517-.342l.62-3.509a.34.34 0 0 1 .324-.284h.758c.18 0 .324-.153.324-.343v-.401a.333.333 0 0 0-.324-.343H3.152c-.159 0-.29.117-.324.284L.506 19.591c-.055.306.276.525.51.343l4.968-3.83a.32.32 0 0 1 .406.015l4.003 3.603a.31.31 0 0 0 .42 0l3.934-3.414a.32.32 0 0 1 .386-.021l4.865 3.311c.24.168.55-.058.496-.357L18.11 6.54zm-12.381 8.25a.36.36 0 0 1-.131.27l-3.066 2.362c-.241.183-.565-.036-.51-.342l.6-3.363a.35.35 0 0 1 .123-.211l2.557-1.992c.22-.168.53 0 .516.285l-.082 2.99zm12.787 2.494-2.956-2.013a.38.38 0 0 1-.151-.285l-.069-3.362c0-.277.283-.445.503-.3l2.308 1.54a.33.33 0 0 1 .145.226l.716 3.83c.056.298-.255.524-.496.357z"/><path d="M8.132 11.03a46 46 0 0 0 1.745 2.397q.258.323.626.323c.247 0 .453-.108.627-.323.466-.588 1.039-1.392 1.718-2.397a26 26 0 0 0 1.82-3.064q.78-1.583.832-2.799-.05-2.206-1.459-3.66Q12.633.054 10.497 0 8.358.054 6.959 1.507 5.549 2.961 5.5 5.167q.051 1.206.833 2.799a24 24 0 0 0 1.799 3.064M9.33 3.954c.313-.323.7-.495 1.172-.51.467.022.86.187 1.173.51q.472.483.493 1.213c-.02.48-.18.89-.493 1.213s-.7.495-1.173.51a1.65 1.65 0 0 1-1.172-.51q-.472-.483-.493-1.213c.02-.48.18-.89.493-1.213"/></g>
</svg>
