<?xml version="1.0" encoding="utf-8"?>
<svg xmlns="http://www.w3.org/2000/svg" viewBox="0 0 40 40">
<path fill="currentColor" d="M0 0h40v40H0z"/><path fill="#fff" d="M23.088 24.09c0-.317.256-.604.573-.645L35.19 21.94a.494.494 0 0 1 .574.502v1.218a.67.67 0 0 1-.574.645L23.661 25.81a.494.494 0 0 1-.573-.502zM32.855 21.52l-2.867-1.218-8.743-.143 7.402-.43-7.843-3.358-8.23 1.597 7.248-2.017-1.69-.727-.03-.02a.6.6 0 0 0-.287-.052L7.3 16.504l-1.77-.758 12.275-1.587c.112-.01.215 0 .297.041l16.534 7.075-1.792.235z"/><path fill="#fff" d="M4.238 16.524c0-.317.256-.46.574-.327l7.78 3.327 9.522-.666-8.303 1.188 7.77 3.327c.318.133.574.502.574.82v1.218c0 .317-.256.46-.574.327l-16.77-7.177c-.317-.133-.573-.501-.573-.819z"/>
</svg>
