<?xml version="1.0" encoding="utf-8"?>
<svg xmlns="http://www.w3.org/2000/svg" viewBox="0 0 40 40">
<g><path fill="currentColor" d="M0 0h40v40H0z"/><path fill="#fff" d="M20.979 20.497c-.02.153-.041.276-.041.348-.051.48.338 1.105.91 1.208a.8.8 0 0 0 .216 0c-.113.41-.184.829-.184 1.27 0 2.63 2.13 4.76 4.76 4.76s4.761-2.13 4.761-4.76a4.775 4.775 0 0 0-4.085-4.72l.113-1.526.573-.676-.164-.102c.225.01.45-.051.645-.235.532-.482.43-1.065.236-1.403-.44-.778-4.096-5.447-4.68-5.836s-1.35-.286-1.883-.143-5.13 1.648-6.03 2.6c-.369.39-.676.973 0 1.823l-.287.327a4.78 4.78 0 0 0-2.928-1.003 4.76 4.76 0 0 0-4.76 4.76 4.758 4.758 0 0 0 9.08 1.997l3.707 1.29z"/><path fill="#fff" d="M6.418 33.478v-12.91s3.89 1.065 6.379 2.816c.972.686 1.157 1.003 1.157 1.003s.655-.625 1.208-.655c.706-.03 1.658.256 2.16.809l1.003 1.105s.758-.655 2.457.256c1.71.901 2.867 1.761 3.717 2.959.85 1.208.9 1.403.9 1.403s.902-.604 2.059.102 1.812 1.556 1.955 1.659c.154.102 1.71-.205 2.406.256.706.45 1.505 1.208 1.505 1.208H6.408z"/><path fill="currentColor" d="M15.778 14.948a3.61 3.61 0 0 1 .686 3.102l-2.724-.963.44-.48z"/><path fill="currentColor" d="m15.09 14.282-2.55 2.744v.532l3.635 1.26a3.6 3.6 0 0 1-3.225 1.996 3.62 3.62 0 0 1-3.624-3.624 3.62 3.62 0 0 1 3.624-3.625c.799 0 1.536.256 2.14.697zM27.132 15.982l-.37.42-2.876-1.065c-.04-.307-.235-.471-.645-.676-.235-.113-2.6-1.444-2.6-1.444s2.508-.982 2.99-1.064c.255-.041.337 0 .572.235.246.246 2.458 2.938 2.755 3.379.05.071.102.143.174.204zM27.244 19.75a3.624 3.624 0 0 1 3.02 3.582 3.624 3.624 0 0 1-3.624 3.625 3.62 3.62 0 0 1-3.624-3.625 3.62 3.62 0 0 1 3.255-3.603l-.235 3.675.921.195.287-3.84zM23.19 20.046c.184-1.106.46-2.805.614-3.727l2.63.994-.081 1.259a4.8 4.8 0 0 0-3.164 1.474M21.11 19.698l-3.553-1.28a4.737 4.737 0 0 0-.973-4.31l.307-.328c1.433 1.034 4.72 2.355 4.72 2.754 0 .267-.297 1.956-.502 3.154z"/><path fill="#fff" d="M28.512 9.194a2.025 2.025 0 0 0-1.648-3.205c-.328 0-.635.072-.901.215l2.56 2.99zM25.463 6.542c-.39.369-.635.89-.635 1.474 0 1.116.911 2.027 2.027 2.027.471 0 .901-.163 1.24-.43l-2.642-3.07z"/></g>
</svg>
