<?xml version="1.0" encoding="utf-8"?>
<svg xmlns="http://www.w3.org/2000/svg" viewBox="0 0 40 40">
<g><path fill="#fff" d="M40 20c0 11.046-8.952 20-19.995 20S0 31.057 0 20C0 8.944 8.952 0 19.995 0S39.99 8.954 39.99 20z"/><path fill="#008755" d="M20.006 39.048c10.517 0 19.043-8.528 19.043-19.048S30.523.952 20.006.952.963 9.48.963 20s8.526 19.048 19.043 19.048"/><path fill="#fff" d="M37.762 20c0-9.812-7.948-17.762-17.757-17.762S2.248 10.188 2.248 20s7.948 17.761 17.757 17.761S37.762 29.812 37.762 20"/><path fill="#008755" fill-rule="evenodd" d="M21.281 24.916c.042.178.084.314.105.398.167.544.878 1.046 1.548.889a1 1 0 0 0 .24-.094c.063.491.188.983.387 1.464a5.627 5.627 0 0 0 7.373 2.981 5.63 5.63 0 0 0 2.98-7.374 5.635 5.635 0 0 0-6.61-3.243l-.585-1.715.314-1.004s.23-.304.366-.586c.355-.764-.021-1.35-.387-1.632-.847-.638-6.965-4.027-7.77-4.184s-1.6.303-2.112.711c-.513.398-4.81 4.163-5.344 5.607-.22.586-.282 1.37.847 1.977l-.167.491a5.55 5.55 0 0 0-3.64.262 5.63 5.63 0 0 0-2.98 7.374 5.619 5.619 0 0 0 10.792-2.019l4.622-.303z" clip-rule="evenodd"/><path fill="#fff" fill-rule="evenodd" d="m25.884 17.176-.199.627-3.618.168c-.188-.314-.47-.398-1.004-.43-.303-.02-3.493-.365-3.493-.365s2.28-2.218 2.761-2.532c.251-.167.366-.156.743 0 .376.147 4.026 2.061 4.538 2.396.084.052.178.104.283.136zM27.744 21.213a4.29 4.29 0 0 1 4.936 2.5 4.28 4.28 0 0 1-2.26 5.607 4.273 4.273 0 0 1-3.733-7.678l1.444 4.1 1.087-.209-1.464-4.31zM23.476 23.41c-.314-1.297-.784-3.264-1.056-4.33l3.315-.126.492 1.402a5.6 5.6 0 0 0-2.75 3.054M21.053 23.996l-4.455.25a5.3 5.3 0 0 0-.387-1.4 5.65 5.65 0 0 0-2.656-2.825l.188-.492c2.04.46 6.212.387 6.39.816.125.293.575 2.26.91 3.65z" clip-rule="evenodd"/><path fill="#008755" fill-rule="evenodd" d="M24.251 9.153c.105-.471.063-.973-.136-1.444a2.388 2.388 0 0 0-4.015-.617l4.162 2.071zM19.722 7.688a2.38 2.38 0 0 0 0 1.894 2.39 2.39 0 0 0 3.137 1.265c.512-.22.91-.585 1.15-1.035z" clip-rule="evenodd"/><path fill="#fff" fill-rule="evenodd" d="M15.288 25.314c-.116 1.747-1.046 3.012-2.584 3.66A4.28 4.28 0 0 1 7.1 26.716a4.277 4.277 0 0 1 2.27-5.606 4.3 4.3 0 0 1 2.645-.23l-1.223 3.4 1.056.26 1.224-3.263a4.24 4.24 0 0 1 1.903 2.092c.136.314.209.576.272.963.063.376.073.596.041.983" clip-rule="evenodd"/></g>
</svg>
