<?xml version="1.0" encoding="utf-8"?>
<svg xmlns="http://www.w3.org/2000/svg" viewBox="0 0 40 40">
<g><g><path fill="#231F20" d="m0 20 10.003 10 10.002-10-10.002-10z"/><path fill="#fff" d="M9.777 21.708c0 .071.01.122.01.163.03.225.266.46.532.45.03 0 .061 0 .092-.02 0 .194 0 .388.051.593a2.205 2.205 0 0 0 2.629 1.646 2.205 2.205 0 0 0 1.646-2.628 2.184 2.184 0 0 0-2.311-1.687l-.102-.695.194-.358s.112-.102.184-.205a.52.52 0 0 0-.03-.654c-.277-.307-2.404-2.014-2.7-2.127s-.635 0-.86.133c-.225.123-2.127 1.268-2.434 1.79-.123.214-.205.51.194.817l-.092.174a2.2 2.2 0 0 0-1.411-.143 2.205 2.205 0 0 0-1.647 2.628 2.19 2.19 0 0 0 2.629 1.636 2.17 2.17 0 0 0 1.646-1.687l1.79.194z"/><path fill="#231F20" d="m12.068 19.05-.122.224-1.402-.174c-.05-.133-.153-.184-.357-.235-.113-.03-1.32-.378-1.32-.378s1.023-.696 1.227-.788c.113-.04.154-.03.287.051a34 34 0 0 1 1.575 1.227c.03.031.061.052.102.072zM12.508 20.726a1.68 1.68 0 0 1 1.728 1.288c.205.9-.347 1.79-1.247 1.994-.9.205-1.79-.348-1.995-1.247a1.67 1.67 0 0 1 1.084-1.953l.277 1.666h.43l-.267-1.758zM10.718 21.278c-.03-.511-.082-1.298-.113-1.728l1.279.174.092.573a2.18 2.18 0 0 0-1.258.981M9.756 21.34l-1.728-.205c0-.184 0-.378-.051-.562a2.26 2.26 0 0 0-.829-1.268l.103-.174c.746.317 2.352.562 2.393.746.03.123.072.91.102 1.462z"/><path fill="#fff" d="M11.988 15.87a.88.88 0 0 0 .04-.563.92.92 0 0 0-1.114-.696.9.9 0 0 0-.379.184zM10.35 15a.94.94 0 0 0-.133.726.92.92 0 0 0 1.115.695.9.9 0 0 0 .511-.317L10.34 15z"/><path fill="#231F20" d="M7.456 21.462c-.164.665-.603 1.084-1.237 1.227-.9.205-1.79-.348-1.995-1.247-.204-.9.348-1.79 1.248-1.994.358-.082.716-.041 1.033.092l-.696 1.217.39.173.684-1.165c.287.225.502.552.594.93.03.133.04.235.04.389 0 .153-.01.235-.05.378zM20.006 20l9.992 10 10.003-10-10.003-10z"/><path fill="#fff" d="M29.783 21.708c0 .071.01.122.01.163.03.225.266.46.532.45.03 0 .061 0 .092-.02 0 .194 0 .388.051.593a2.205 2.205 0 0 0 2.629 1.646 2.205 2.205 0 0 0 1.646-2.628 2.184 2.184 0 0 0-2.311-1.687l-.102-.695.194-.358s.112-.102.184-.205a.52.52 0 0 0-.03-.654c-.277-.307-2.404-2.014-2.7-2.127s-.635 0-.86.133c-.225.123-2.127 1.268-2.434 1.79-.123.214-.205.51.194.817l-.092.174a2.2 2.2 0 0 0-1.411-.143 2.205 2.205 0 0 0-1.647 2.628 2.19 2.19 0 0 0 2.629 1.636 2.17 2.17 0 0 0 1.646-1.687l1.79.194z"/><path fill="#231F20" d="m32.074 19.05-.122.224-1.402-.174c-.05-.133-.153-.184-.358-.235-.112-.03-1.319-.378-1.319-.378s1.023-.696 1.227-.788c.113-.04.154-.03.287.051a34 34 0 0 1 1.575 1.227c.03.031.061.052.102.072zM32.514 20.726a1.68 1.68 0 0 1 1.728 1.288c.205.9-.347 1.79-1.247 1.994-.9.205-1.79-.348-1.995-1.247a1.67 1.67 0 0 1 1.084-1.953l.276 1.666h.43l-.276-1.758zM30.724 21.278c-.03-.511-.082-1.298-.113-1.728l1.279.174.092.573a2.15 2.15 0 0 0-1.258.981M29.762 21.34l-1.728-.205c0-.184 0-.378-.051-.562a2.26 2.26 0 0 0-.829-1.268l.103-.174c.756.317 2.352.562 2.393.746.03.123.071.91.102 1.462z"/><path fill="#fff" d="M31.991 15.87a.88.88 0 0 0 .041-.563.92.92 0 0 0-1.114-.696.9.9 0 0 0-.379.184zM30.346 15a.94.94 0 0 0-.133.726.92.92 0 0 0 1.115.695.95.95 0 0 0 .512-.317L30.336 15z"/><path fill="#231F20" d="M27.462 21.462c-.164.665-.604 1.084-1.238 1.227-.9.205-1.79-.348-1.994-1.247s.348-1.79 1.248-1.994c.358-.082.716-.041 1.033.092l-.696 1.217.389.173.685-1.165c.287.225.501.552.593.93.031.133.041.235.041.389 0 .153-.01.235-.05.378z"/></g></g>
</svg>
