<?xml version="1.0" encoding="utf-8"?>
<svg xmlns="http://www.w3.org/2000/svg" viewBox="0 0 40 40">
<g><path fill="#fff" d="M0 0h40v40H0z"/><path fill="#005484" d="M.948.957h38.105v38.096H.948z"/><path fill="#fff" d="M2.247 2.246h35.507v35.508H2.247z"/><path fill="#005484" d="M21.308 24.961c.02.186.03.342.04.43.077.595.712 1.24 1.435 1.191.088 0 .175-.02.254-.049-.02.518.01 1.045.136 1.572a5.847 5.847 0 0 0 7.022 4.385c3.154-.732 5.117-3.877 4.385-7.021a5.86 5.86 0 0 0-6.192-4.522l-.283-1.865.508-.967s.293-.263.488-.537c.508-.723.225-1.387-.098-1.738-.751-.81-6.416-5.39-7.216-5.693-.801-.303-1.7.029-2.295.351-.596.322-5.694 3.399-6.494 4.785-.332.567-.547 1.358.517 2.178l-.264.469a5.86 5.86 0 0 0-3.779-.39 5.847 5.847 0 0 0-4.385 7.02 5.847 5.847 0 0 0 7.022 4.385 5.86 5.86 0 0 0 4.414-4.502l4.795.518z"/><path fill="#fff" d="m27.422 17.852-.322.615-3.74-.479c-.137-.361-.41-.498-.957-.625a380 380 0 0 1-3.516-1.015s2.735-1.866 3.291-2.1c.284-.117.4-.088.762.127.361.225 3.76 2.842 4.229 3.281.078.069.165.137.263.196zM28.604 22.334a4.45 4.45 0 0 1 4.609 3.457 4.45 4.45 0 0 1-3.34 5.342 4.45 4.45 0 0 1-5.342-3.34 4.45 4.45 0 0 1 2.9-5.215l.733 4.463 1.152-.02-.722-4.677zM23.829 23.818c-.088-1.386-.225-3.486-.303-4.629l3.428.47.254 1.523a5.9 5.9 0 0 0-3.38 2.636M21.24 23.975l-4.609-.547a5.844 5.844 0 0 0-2.363-4.893l.283-.478c2.012.84 6.3 1.513 6.416 1.992.079.322.186 2.422.274 3.916z"/><path fill="#005484" d="M27.208 9.336c.185-.46.244-.986.127-1.504a2.493 2.493 0 0 0-2.989-1.865c-.39.088-.732.263-1.025.498l3.896 2.87zM22.824 7.012a2.5 2.5 0 0 0-.351 1.933 2.493 2.493 0 0 0 2.988 1.865 2.44 2.44 0 0 0 1.367-.85l-4.013-2.948z"/><path fill="#fff" d="M15.088 24.287c-.44 1.768-1.612 2.9-3.31 3.291a4.45 4.45 0 0 1-5.343-3.34 4.453 4.453 0 0 1 3.33-5.341 4.4 4.4 0 0 1 2.754.244l-1.865 3.261 1.025.46 1.846-3.126a4.44 4.44 0 0 1 1.572 2.49c.079.342.118.626.108 1.036 0 .4-.04.625-.137 1.015z"/></g>
</svg>
