<?xml version="1.0" encoding="utf-8"?>
<svg xmlns="http://www.w3.org/2000/svg" viewBox="0 0 40 40">
<g><path fill="#fff" d="M20.006 40C31.055 40 40 31.042 40 20S31.044 0 20.006 0C8.966 0 0 8.958 0 20s8.956 20 20.005 20"/><path fill="#008752" d="M20.005 39.046c10.515 0 19.05-8.528 19.05-19.056S30.532.944 20.006.944.954 9.472.954 19.99s8.525 19.056 19.05 19.056"/><path fill="#fff" d="M20.98 24.597c.01.185.03.339.04.431.072.595.708 1.232 1.427 1.19.092 0 .174-.02.256-.05-.02.512.01 1.046.133 1.57A5.859 5.859 0 1 0 34.255 25.1a5.866 5.866 0 0 0-6.187-4.525l-.287-1.868.503-.965s.297-.266.482-.533c.503-.729.226-1.386-.102-1.745-.75-.81-6.413-5.397-7.213-5.695-.8-.297-1.692.03-2.287.349S13.47 13.515 12.67 14.9c-.329.564-.544 1.354.513 2.175l-.257.473a5.8 5.8 0 0 0-3.786-.39 5.86 5.86 0 0 0 2.637 11.42 5.85 5.85 0 0 0 4.411-4.504l4.802.523z"/><path fill="#008752" d="m27.104 17.496-.318.616-3.734-.482c-.134-.36-.41-.493-.954-.626-.308-.072-3.52-1.016-3.52-1.016s2.74-1.868 3.284-2.094c.287-.123.4-.092.759.123.359.226 3.755 2.843 4.227 3.284.071.072.164.134.266.195zM28.273 21.97A4.453 4.453 0 1 1 24.2 27.42a4.45 4.45 0 0 1 2.903-5.213l.739 4.464 1.149-.02zM23.503 23.458a476 476 0 0 0-.297-4.638l3.426.472.257 1.529a5.84 5.84 0 0 0-3.376 2.637zM20.918 23.612l-4.616-.544a6.3 6.3 0 0 0-.144-1.508 5.9 5.9 0 0 0-2.216-3.376l.287-.472c2.011.841 6.3 1.518 6.412 1.99.072.318.185 2.422.277 3.91"/><path fill="#fff" d="M26.879 8.969a2.49 2.49 0 0 0-3.888-2.873zM22.497 6.65a2.5 2.5 0 0 0-.349 1.939 2.49 2.49 0 0 0 2.986 1.868 2.53 2.53 0 0 0 1.374-.852z"/><path fill="#008752" d="M14.764 23.93c-.441 1.765-1.61 2.894-3.313 3.284a4.45 4.45 0 0 1-5.335-3.335 4.45 4.45 0 0 1 3.334-5.336 4.42 4.42 0 0 1 2.76.246l-1.868 3.263 1.037.462 1.846-3.12a4.47 4.47 0 0 1 1.57 2.484c.082.349.113.626.103 1.036 0 .4-.031.626-.134 1.016"/></g>
</svg>
