<?xml version="1.0" encoding="utf-8"?>
<svg xmlns="http://www.w3.org/2000/svg" viewBox="0 0 40 40">
<g><path fill="#fff" d="M0 0h40v40H0z"/><path fill="currentColor" d="M.958.956h38.087v38.097H.958z"/><path fill="#fff" d="M21.302 24.952c.01.186.03.342.04.43.077.585.712 1.23 1.434 1.19.097 0 .175-.02.254-.048a5.7 5.7 0 0 0 .136 1.57c.722 3.153 3.874 5.114 7.026 4.392a5.866 5.866 0 0 0 4.392-7.026 5.86 5.86 0 0 0-6.187-4.518l-.283-1.864.507-.966s.293-.264.488-.537c.498-.722.224-1.386-.098-1.737-.75-.81-6.41-5.387-7.211-5.69-.8-.302-1.698.03-2.293.352s-5.69 3.396-6.5 4.782c-.331.566-.546 1.356.518 2.176l-.254.468a5.866 5.866 0 0 0-8.178 6.636 5.866 5.866 0 0 0 7.027 4.391c2.293-.526 3.952-2.342 4.41-4.508l4.802.517z"/><path fill="currentColor" d="m27.422 17.848-.322.615-3.738-.478c-.136-.361-.41-.498-.956-.625a388 388 0 0 1-3.523-1.015s2.742-1.863 3.289-2.098c.283-.117.4-.097.761.127.352.225 3.757 2.84 4.226 3.28.078.067.165.136.263.194M28.603 22.327c2.127-.136 4.108 1.298 4.605 3.455a4.45 4.45 0 0 1-3.337 5.338 4.45 4.45 0 0 1-5.338-3.338 4.447 4.447 0 0 1 2.898-5.21l.732 4.459 1.152-.02-.722-4.684zM23.83 23.81a1289 1289 0 0 0-.302-4.635l3.425.469.254 1.522a5.9 5.9 0 0 0-3.377 2.635zM21.234 23.967l-4.616-.547a5.84 5.84 0 0 0-2.362-4.889l.283-.478c2.01.84 6.304 1.513 6.412 2 .078.323.185 2.42.273 3.914z"/><path fill="#fff" d="M27.209 9.339c.195-.459.244-.986.127-1.513a2.503 2.503 0 0 0-4.021-1.376l3.894 2.88zM22.816 7.007a2.48 2.48 0 0 0-.351 1.942 2.498 2.498 0 0 0 4.362 1.024l-4.011-2.957z"/><path fill="currentColor" d="M15.087 24.28c-.44 1.765-1.61 2.897-3.308 3.288A4.45 4.45 0 0 1 6.44 24.23a4.45 4.45 0 0 1 3.337-5.338 4.43 4.43 0 0 1 2.762.244l-1.864 3.26 1.035.458 1.844-3.122a4.44 4.44 0 0 1 1.571 2.488c.078.342.107.625.107 1.035 0 .4-.039.624-.126 1.014z"/></g>
</svg>
