<?xml version="1.0" encoding="utf-8"?>
<svg xmlns="http://www.w3.org/2000/svg" viewBox="0 0 40 40">
<g><path fill="#fff" d="M0 19.995 20.007 40 40 19.995 20.006 0z"/><path fill="#231F20" d="m.952 19.995 19.053 19.053 19.043-19.053L20.005.952z"/><path fill="#fff" d="M19.586 23.26c0 .134.02.236.031.308.051.42.502.88 1.014.85.061 0 .122-.02.184-.041-.02.368 0 .747.092 1.126a4.17 4.17 0 0 0 5.006 3.122 4.17 4.17 0 0 0 3.123-5.006 4.18 4.18 0 0 0-4.413-3.225l-.204-1.33.358-.687s.205-.184.348-.378a.945.945 0 0 0-.072-1.24c-.532-.573-4.566-3.839-5.139-4.054s-1.208.02-1.628.246c-.42.225-4.054 2.426-4.627 3.41-.236.399-.39.962.368 1.556l-.184.337a4.1 4.1 0 0 0-2.693-.276 4.17 4.17 0 0 0-3.122 5.006 4.17 4.17 0 0 0 5.006 3.123 4.17 4.17 0 0 0 3.143-3.204l3.42.368z"/><path fill="#231F20" d="m23.947 18.193-.225.43-2.662-.338c-.092-.256-.297-.358-.686-.45-.215-.052-2.508-.717-2.508-.717s1.945-1.33 2.344-1.495c.205-.092.287-.071.543.092.256.154 2.682 2.027 3.01 2.335a.6.6 0 0 0 .184.133zM24.788 21.387a3.186 3.186 0 0 1 3.286 2.457 3.17 3.17 0 0 1-2.375 3.799 3.16 3.16 0 0 1-3.798-2.376 3.177 3.177 0 0 1 2.068-3.716l.522 3.174.819-.02-.512-3.338zM21.378 22.442c-.062-.983-.154-2.488-.215-3.297l2.436.338.185 1.085a4.17 4.17 0 0 0-2.406 1.884zM19.546 22.554l-3.286-.389c.01-.358-.02-.716-.103-1.075a4.18 4.18 0 0 0-1.576-2.406l.204-.337c1.434.593 4.485 1.075 4.567 1.423.05.225.133 1.72.194 2.784"/><path fill="#fff" d="M23.792 12.122c.133-.328.174-.707.092-1.075a1.78 1.78 0 0 0-2.856-.973l2.774 2.048zM20.66 10.474a1.779 1.779 0 0 0 1.884 2.713c.4-.093.738-.318.973-.604l-2.856-2.1z"/><path fill="#231F20" d="M15.163 22.78c-.317 1.259-1.146 2.068-2.354 2.344-1.71.4-3.41-.665-3.799-2.375-.4-1.71.666-3.41 2.375-3.798a3.2 3.2 0 0 1 1.966.174l-1.33 2.324.736.327 1.31-2.221a3.14 3.14 0 0 1 1.117 1.77c.061.247.082.451.082.738s-.02.45-.092.727z"/></g>
</svg>
