<?xml version="1.0" encoding="utf-8"?>
<svg xmlns="http://www.w3.org/2000/svg" viewBox="0 0 40 40">
<g><path fill="#fff" fill-rule="evenodd" d="M20 0c11.045 0 20 8.955 20 20s-8.955 20-20 20S0 31.045 0 20 8.955 0 20 0" clip-rule="evenodd"/><g fill="#231F20"><path d="M25.686 31.26a1.72 1.72 0 0 1-1.721-1.721c0-.953.768-1.721 1.721-1.721s1.721.768 1.721 1.72c0 .954-.768 1.722-1.72 1.722M15.532 31.26a1.72 1.72 0 0 1-1.722-1.721c0-.953.769-1.721 1.722-1.721s1.721.768 1.721 1.72c0 .954-.768 1.722-1.721 1.722"/><path fill-rule="evenodd" d="M28.022 29.242a2.4 2.4 0 0 0-2.377-2.06 2.41 2.41 0 0 0-2.377 2.06h-5.359a2.41 2.41 0 0 0-2.377-2.06 2.41 2.41 0 0 0-2.377 2.07h-1.71s-1.476-3.72-1.476-4.2c0-.482 1.475-4.673 1.475-4.673h8.033s3.637-1.404 3.955-1.404h5.02c.144.318 1.158 2.757 1.158 2.757h-1.383l1.598 3.8v3.72h-1.813zm-1.188-3.566.46 1.117h1.537v-1.28l-1.321-3.484h-2.644v3.637h1.957zM20.07 22.04v3.637h2.357V22.04zm-7.715 0v3.637h3.842V22.04z" clip-rule="evenodd"/></g><g fill="#231F20"><path d="M15.922 7.449 11.68 15h6.957l4.241-7.551zM22.99 15V7.449L28.103 15z"/></g><path fill="#E31937" fill-rule="evenodd" d="M20 4.211c8.72 0 15.79 7.07 15.79 15.789 0 3.863-1.384 7.398-3.69 10.143L9.858 7.9A15.77 15.77 0 0 1 20 4.21m10.277 27.787A15.75 15.75 0 0 1 20 35.799c-8.719 0-15.789-7.07-15.789-15.789 0-3.924 1.435-7.51 3.802-10.276zM20 .953C30.523.953 39.047 9.477 39.047 20S30.523 39.047 20 39.047C9.478 39.047.953 30.523.953 20S9.478.953 20 .953" clip-rule="evenodd"/></g>
</svg>
