<?xml version="1.0" encoding="utf-8"?>
<svg xmlns="http://www.w3.org/2000/svg" viewBox="0 0 40 40">
<g><path fill="#fff" d="M19.995 0C31.042 0 40 8.958 40 20.005S31.042 40 19.995 40 0 31.052 0 20.005 8.958 0 19.995 0"/><path fill="#231F20" d="m26.865 18.582-3.338-3.338s2.181-2.221 3.02-2.754c.85-.532.983-.573.983-.573s-.133.799-.133 1.116c0 .42.277.471.277.471s3.327 1.147 3.573 1.239c.42.153 1.116.42 1.116.42a66 66 0 0 1-1.157 1.904c-.256.42-.82.41-.82.41H28.38s-.4 0-.624.225l-.891.89zM25.627 18.89l-2.888-2.888H11.713s-.614-.03-1.382-.051c-1.403-.02-2.6-.338-2.6-.338s.286 1.065 1.556 1.556c.696.266 2.109.686 2.109.686v3.737s-.133 1.69-.932 2.14c-.799.44-.89.358-.89.44v3.072s0 1.023 1.023 1.023c.942 0 1.157-.706 1.157-1.023v-2.222s.041-.492.44-.492c.4 0 1.515-.092 2.181-.716.665-.625 1.515-1.556 1.515-1.556h7.556v4.576s-.041 1.423 1.116 1.423c1.065 0 1.065-1.065 1.065-1.29v-8.098z"/><path fill="#E31937" fill-rule="evenodd" d="M19.997 3.747c8.978 0 16.258 7.28 16.258 16.258 0 3.973-1.424 7.617-3.799 10.433L9.564 7.545a16.15 16.15 0 0 1 10.433-3.798m10.575 28.595a16.17 16.17 0 0 1-10.575 3.91c-8.98 0-16.248-7.278-16.248-16.247 0-4.044 1.474-7.73 3.91-10.576l22.913 22.923zM19.997.389c10.831 0 19.605 8.774 19.605 19.606S30.828 39.6 19.997 39.6.39 30.827.39 19.995 9.165.389 19.997.389" clip-rule="evenodd"/></g>
</svg>
