<?xml version="1.0" encoding="utf-8"?>
<svg xmlns="http://www.w3.org/2000/svg" viewBox="0 0 40 40">
<g clip-path="url(#a)"><path fill="#fff" d="M20 0c11.05 0 20 8.95 20 20s-8.95 20-20 20S0 31.05 0 20 8.95 0 20 0"/><path fill="#231F20" d="M22.65 13.853c-.183-1.182-.734-2.16-1.1-3.262-.398-1.172-.54-2.324-.286-3.619-1.59 1.346-1.07 4.975-1.62 5.505-.286.265-.663-.54-.806-.887-.224-.51-.816-1.417-.56-2.772-.378.346-.52.866-.633 1.366-.204.907.041 1.794.041 2.69 0 .174.336 1.937-.347 2.06-.142.03-1.549-1.091-1.498-4.17-.183.245-.387.755-.5 1.02-1.06 2.477.46 7.054.633 7.441.428.938.06 1.203-.98.174-1.14-1.132-.692-1.428-1.324-2.09-.357-.377-1.305-.714-1.896-.469.632.469 1.305 1.61 1.233 2.314-.153 1.498 1.825 4.852 1.825 4.852l-4.587.703.346 1.937 5.709-.805-2.905 2.895 1.437 1.417 3.65-3.609.02 4.108h1.896l.02-4.363 3.935 3.956 1.58-1.56-2.936-2.946 5.902 1.142.418-1.937-4.159-.826s1.56-1.937 1.886-2.925c.927-2.844-.5-2.549.51-4.863-.847.734-1.57 2.08-1.978 2.793-.918 1.58-1.142.01-.846-.418 2.355-3.476-.704-5.056.244-8.46-.886.764-1.325 1.947-1.304 3.068 0 .367.02 2.15-.062 2.722-.04.265-.173 1.131-.846.835-.683-.305.051-1.987-.102-2.996z"/><path fill="#E31937" fill-rule="evenodd" d="M20 .387C30.826.387 39.613 9.164 39.613 20S30.836 39.613 20 39.613.387 30.836.387 20 9.174.387 20 .387m10.57 31.957A16.2 16.2 0 0 1 20 36.25c-8.98 0-16.259-7.279-16.259-16.26 0-4.036 1.468-7.726 3.904-10.57l22.916 22.915zM20 3.751c8.98 0 16.259 7.279 16.259 16.26a16.2 16.2 0 0 1-3.792 10.438L9.562 7.543A16.2 16.2 0 0 1 20 3.751" clip-rule="evenodd"/></g><defs><clipPath id="a"><path fill="#fff" d="M0 0h40v40H0z"/></clipPath></defs>
</svg>
