<?xml version="1.0" encoding="utf-8"?>
<svg xmlns="http://www.w3.org/2000/svg" viewBox="0 0 40 40">
<path fill="currentColor" d="M0 0h40v40H0z"/><path fill="#fff" d="M21.664 13.678c.43.113.799.164 1.218.225.758.113.983-.061 1.106-.522.113-.46 1.454-5.395 1.567-5.856.112-.46.286-.758-.584-1.28-.256-.153-.666-.297-1.147-.43l-2.16 7.853z"/><path fill="#fff" d="M23.65 33.673c-1.116.266-2.939.47-3.84.184-1.177-.368-1.976-.635-3.542-5.283-1.566-4.638-1.915-7.136-1.915-9.337s.349-4.003 1.332-6.665c.982-2.672 1.678-4.003 2.15-5.109.46-1.095 1.392-1.965 2.549-2.088.706-.072 1.935.072 2.979.317l-2.109 7.873c-.676-.194-.962-.399-1.157-.573-.727-.635-1.28-.348-1.28.737v12.44c0 1.085.553 1.392 1.28.757.215-.184.532-.41 1.362-.624z"/><path fill="#fff" d="M24.142 33.56s.092-.03.123-.051c.87-.348 1.392-1.044 1.33-1.628-.04-.45-1.064-3.767-1.494-5.16-.102-.338-.225-.542-.655-.593-.502-.072-1.147 0-1.536.071l2.222 7.372z"/>
</svg>
