<?xml version="1.0" encoding="utf-8"?>
<svg xmlns="http://www.w3.org/2000/svg" viewBox="0 0 40 40">
<path fill="currentColor" d="M40 0H0v40h40z"/><path fill="#fff" d="M4 25.8c0-2.88 2.33-5.2 5.2-5.2s5.2 2.33 5.2 5.2S12.07 31 9.2 31 4 28.67 4 25.8m5.2-2.21a2.21 2.21 0 1 0 .001 4.422A2.21 2.21 0 0 0 9.2 23.59m21.35.78c-1.09 0-1.98.89-1.98 1.98s.89 1.98 1.98 1.98 1.98-.89 1.98-1.98-.89-1.98-1.98-1.98m-4.65 1.98c0-2.57 2.08-4.66 4.66-4.66s4.66 2.08 4.66 4.66-2.08 4.66-4.66 4.66-4.66-2.09-4.66-4.66m-6.83-7.96c.24.07 1 .25 1.58.08.23-.09.6-.29.88-.64l2.46-3.67 8.44 2.82s1.66.38 1.6 1.47h-.95c-1.76.05-5.45.43-7.21 2.73-.75 1.13-1.22 2.46-1.41 3.97h-8.8c-.1-2.77-1.51-5.1-3.46-6.02-.8-.41-2.51-1.1-6.13-2.18 0 0 .93-2.32 2.25-2.01l10.71 3.43h.03zm7.24-5.96c0-1.17.94-2.11 2.11-2.11h.14v4.21h-.14a2.11 2.11 0 0 1-2.11-2.11zM18.26 9h3.84c.84-.06 1.57.57 1.93 1.29.35.68 1.08 2.33 1.58 3.47l-1.51-.51c-.42-.94-.87-1.93-1.12-2.42-.16-.3-.42-.62-.79-.66h-3.94c-.78.01-.78-1.17.01-1.17"/>
</svg>
