<?xml version="1.0" encoding="utf-8"?>
<svg xmlns="http://www.w3.org/2000/svg" viewBox="0 0 40 40">
<path fill="currentColor" d="M0 0h40v40H0z"/><path fill="#fff" fill-rule="evenodd" d="M27.495 8.989c-.645.297-1.413 0-1.7-.645a1.29 1.29 0 0 1 .635-1.7c.646-.297 1.413 0 1.7.635.297.645 0 1.413-.635 1.7zm-7.658 3.655c-.645.297-1.403 0-1.7-.645s0-1.413.635-1.7c.645-.296 1.413 0 1.7.635.297.645 0 1.413-.635 1.7z" clip-rule="evenodd"/><path fill="#fff" d="M18.25 26.947c-.83.86-1.638 1.822-2.396 2.242-1.137.614-5.182.46-6.636.819-1.198.297-2.642 1.259-3.349 2.109v-2.58c.553-.635 1.454-.84 2.233-1.229 1.403-.706 5.673-.4 6.461-.706.338-.123.646-.359.973-.655.912-.84 1.885-2.202 3.605-3.215 1.843-1.085 5.202-.226 6.81-.993.522-.256.912-.584 1.29-.963.768-.768 1.465-1.7 3.011-2.498 1.075-.553 2.642-.542 3.697-.542.348 0 .778-.052 1.208-.154v1.976c-1.32.143-3.246.164-3.983.41-.328.112-.717.409-1.157.798-.994.88-2.192 2.201-3.298 2.775-1.362.706-4.414.327-6.339.829-.706.174-1.413.84-2.12 1.576h-.01Z"/><path fill="#fff" fill-rule="evenodd" d="M12.216 16.145c-.645.297-1.413 0-1.7-.645-.297-.645 0-1.413.635-1.7.645-.296 1.413 0 1.7.635.297.646 0 1.413-.635 1.7z" clip-rule="evenodd"/><path fill="#fff" d="M18.916 21.766c-.113.041-.205.082-.307.123-1.526.706-2.642 3.522-5.049 3.87-1.782.266-3.39.061-4.66.205 0 0-1.249.102-2.427-1.26-.727-.84-.696-2.406.175-2.948.378-.236.9-.277 1.587 0 .287.123.614.297.963.532.174-.051.184-.051.42-.133a.6.6 0 0 1-.185-.092.63.63 0 0 1-.236-.307.69.69 0 0 1 .082-.655c.512-.748.635-.973 1.188-1.792.215-.328 2.622-4.27 3.513-2.242.174.399 1.27 2.774 1.27 2.795a188 188 0 0 0 4.966-2.314l-.604-1.3-1.587 2.15a.7.7 0 0 1-.963.163.7.7 0 0 1-.164-.962c.512-.747.635-.973 1.188-1.792.215-.327 2.622-4.269 3.513-2.242.174.4 1.229 2.683 1.229 2.683.88-.44 1.73-.84 2.519-1.24a.71.71 0 0 1-.635-.091.7.7 0 0 1-.164-.963c.502-.747.635-.962 1.188-1.791.215-.328 2.622-4.26 3.513-2.242a220 220 0 0 0 1.055 2.283c-.134-1.618 4.27-3 4.167 1.464-.01.45-.081.665-.204 1.075-.267.952-1.199 2.232-1.199 2.232-1.116.081-2.273.04-3.39.47-1.525.584-2.99 3.338-4.812 3.635-1.7.277-4.393.143-5.97.696z"/><path fill="currentColor" fill-rule="evenodd" d="M25.563 14.896c.9-.46 1.515-.778 2.222-1.157l-.502-1.136s-1.67 2.252-1.72 2.293" clip-rule="evenodd"/><path fill="currentColor" d="m12.586 21.04-.594-1.28-1.557 2.119c.103-.041 1.496-.574 2.151-.84Z"/>
</svg>
