<?xml version="1.0" encoding="utf-8"?>
<svg xmlns="http://www.w3.org/2000/svg" viewBox="0 0 40 40">
<g><path fill="currentColor" d="M40 0H0v40h40z"/><path fill="#fff" fill-rule="evenodd" d="m30.305 15.654-.501-.492-4.7-4.72-.522.523 4.31 4.32H9.635v.748h19.258l-4.31 4.32.521.533 4.7-4.73z" clip-rule="evenodd"/><path stroke="#fff" stroke-miterlimit="10" stroke-width="1.35" d="m30.305 15.654-.501-.492-4.7-4.72-.522.523 4.31 4.32H9.635v.748h19.258l-4.31 4.32.521.533 4.7-4.73z"/><path fill="#fff" fill-rule="evenodd" d="M30.305 24.868H11.048l4.3-4.32-.523-.522-4.699 4.72-.491.501.522.522 4.669 4.7.522-.533-4.3-4.32h19.257z" clip-rule="evenodd"/><path stroke="#fff" stroke-miterlimit="10" stroke-width="1.35" d="M30.305 24.868H11.048l4.3-4.32-.523-.522-4.699 4.72-.491.501.522.522 4.669 4.7.522-.533-4.3-4.32h19.257z"/></g>
</svg>
