<?xml version="1.0" encoding="utf-8"?>
<svg xmlns="http://www.w3.org/2000/svg" viewBox="0 0 40 40">
<g><path fill="currentColor" d="M40 0H0v40h40z"/><path fill="#fff" fill-rule="evenodd" d="M16.216 2.677c-3.48 2.471-4.221 3.006-4.427 3.16-1.163.845-2.492 2.369-.885 3.594 1.07.814 2.368 1.01 3.562 1.184 2.162.31 4.324.494 6.487.71 4.128.423 8.761.32 12.592 2.678 1.42.864 2.656 2.409 2.666 4.612.052 7.455-16.422 10.657-17.585 16.762H5.344c2.45-6.353 8.999-8.38 15.032-10.81 3.15-1.267 6.64-1.751 9.4-4.325.927-.865 2.42-2.605 1.308-4.077-.906-1.195-2.235-1.545-3.418-1.956-1.936-.67-3.934-.732-5.91-.989-3.82-.504-7.97-.165-11.625-1.977-1.153-.576-2.605-1.75-1.935-3.439.72-1.812 4.53-3.747 6.908-5.21l1.102.083z" clip-rule="evenodd"/><g><path fill="#fff" d="M10.83 9.524V8.299c0-.577-.658-1.071-1.44-1.071-.783 0-1.453.494-1.453 1.07v1.226H3.995V8.299c0-2.729 2.42-4.942 5.385-4.942s5.385 2.213 5.385 4.942v1.225H10.82z"/><path fill="currentColor" d="M9.39 4.221c2.48 0 4.51 1.823 4.51 4.067v.35h-2.184v-.35c0-1.07-1.04-1.946-2.327-1.946s-2.326.876-2.326 1.946v.35H4.88v-.35c0-2.244 2.018-4.067 4.51-4.067m0-1.75c-3.46 0-6.27 2.615-6.27 5.817V10.4h5.693v-2.11s.237-.196.566-.196c.33 0 .546.164.577.226v2.08h5.704v-2.11c0-3.213-2.811-5.818-6.27-5.818"/></g><path fill="#fff" d="M17.019 15.434c-3.069-.762-7.156-.35-9.957.885-.895.391-1.925.937-2.45 1.884-.7 1.277 1.503 2.595 2.317 2.8 1.503.372 3.037.3 4.55.67 1.452.35 3.903.124 5.282-.35 1.936-.659 2.492-.927 4.51-1.04 1.277-.082 4.613-.37 4.211-2.141-.638-2.863-4.005-1.802-6.136-2.214l-2.338-.484z"/><path stroke="currentColor" stroke-miterlimit="10" stroke-width="1.68" d="M6.838 18.183s1.884 1.318 3.933-.443c0 0 1.987 1.792 4.129.041l.051-.041c2.142 1.75 4.18 0 4.18 0 2.05 1.75 3.933.443 3.933.443M17.144 16.453c-1.349.834-2.347-.237-2.347-.237-1.308 1.05-2.554 0-2.554 0-1.246 1.05-2.409.258-2.409.258M16.69 20.077c-1.35.845-2.348-.237-2.348-.237-1.308 1.04-2.554 0-2.554 0-1.246 1.04-2.41.258-2.41.258"/></g>
</svg>
