<?xml version="1.0" encoding="utf-8"?>
<svg xmlns="http://www.w3.org/2000/svg" viewBox="0 0 40 40">
<path fill="currentColor" d="M0 0h40v40H0z"/><path fill="#fff" d="M26.308 18.804a10 10 0 0 0-1.466 1.038h-.703c.377-.356.825-.712 1.313-1.038zm-1.63 5.304a8.9 8.9 0 0 1 1.355 1.782h-.876a9.3 9.3 0 0 0-1.201-1.782zm1.314 8.674c-.55 1.018-1.313 2.006-2.28 2.922h-2.79c1.334-.916 2.443-1.894 3.278-2.922zM4.297 15.75H30.99a43 43 0 0 0-3.686 1.14c-2.178.804-9.04 3.43-5.752 8.165 4.643 6.668-8.002 9.336-12.288 10.639h-2.25c-1.496 0-2.718-1.558-2.718-3.482V15.739v.01ZM7.015 4.296h25.971c1.507 0 2.718 1.558 2.718 3.482v4.52l-5.04-4.632-3.359 2.454-3.44-3.075-2.8 4.602-1.008-.51-1.385 2.149-1.761-1.13-1.12.814-3.034-2.148L9.723 5.6l-3.512 6.852-1.914-1.843v-2.86c0-1.925 1.222-3.482 2.718-3.482v.03Zm19.72 23.335c.234.936.255 1.893.082 2.83h-1.283a5.45 5.45 0 0 0 .224-2.83zm-2.912-6.628c-.325.57-.417 1.16-.183 1.771h-.56c-.203-.62-.132-1.211.153-1.771zm5.213-3.563c-.367.162-.743.325-1.1.498h-.997c.336-.173.672-.335 1.018-.498h1.09zm2.708-1.487c.224-.071.428-.142.631-.203h1.375c-.204.06-.428.132-.662.203zm-.285.55c-.316.112-.641.234-.977.356H29.3c.315-.132.62-.244.926-.366h1.232v.01Zm-2.23 9.397a11.3 11.3 0 0 0-2.24-2.057c-3.95-2.8 4.653-6.699 8.125-8.083h.59v16.472c0 1.924-1.221 3.482-2.718 3.482h-2.922c1.507-2.545 1.853-6.404-.723-9.662l-.112-.142z"/>
</svg>
