<?xml version="1.0" encoding="utf-8"?>
<svg xmlns="http://www.w3.org/2000/svg" viewBox="0 0 40 40">
<g><path fill="currentColor" d="M40 0H0v40h40z"/><path fill="#fff" d="M29.032 25.234V14.038h2.278L19.99 3.653 8.703 14.038h2.268v11.196z"/><g fill="#fff"><path d="M3.93 33.946c.042.277.114.482.237.615.205.247.574.37 1.077.37.308 0 .554-.031.739-.103q.542-.185.544-.708a.52.52 0 0 0-.267-.462c-.174-.102-.462-.205-.841-.287l-.657-.144c-.647-.143-1.088-.297-1.334-.461-.41-.278-.616-.719-.616-1.314 0-.544.195-.995.595-1.355.4-.359.985-.533 1.765-.533.647 0 1.2.174 1.652.513s.698.831.719 1.478H6.322c-.02-.37-.185-.626-.493-.78-.205-.103-.451-.154-.76-.154-.338 0-.605.061-.8.195a.64.64 0 0 0-.297.554c0 .215.102.38.297.482q.185.108.8.247l1.068.246c.462.113.81.256 1.047.441.359.287.543.698.543 1.242a1.73 1.73 0 0 1-.646 1.375q-.646.555-1.816.554c-.78 0-1.427-.185-1.878-.544-.462-.36-.688-.852-.688-1.488H3.91zM8.629 35.824v-6.065H9.89v2.309h2.36v-2.31h1.263v6.066H12.25v-2.71h-2.36v2.71zM16.448 29.759h1.437l2.145 6.065h-1.375l-.4-1.242h-2.238l-.41 1.242h-1.324zm-.082 3.776h1.55l-.77-2.38-.79 2.38zM24.68 29.913c.226.092.41.236.565.42.123.154.225.329.307.514.082.184.113.4.113.636 0 .287-.072.574-.215.851-.144.278-.39.473-.718.596.277.113.482.277.595.482s.174.523.174.944v.41c0 .278.01.462.03.565.032.154.114.267.237.349v.154h-1.396c-.04-.134-.061-.247-.082-.329a3 3 0 0 1-.051-.523v-.564c-.01-.39-.082-.647-.205-.77-.123-.133-.37-.195-.719-.195h-1.241v2.38h-1.242V29.77h2.904c.41 0 .729.062.954.154zm-2.617.903v1.631h1.365c.267 0 .472-.03.606-.102.236-.113.359-.339.359-.688 0-.37-.113-.615-.35-.739-.133-.071-.327-.102-.584-.102zM31.36 30.836h-3.212v1.283h2.945v1.057h-2.945v1.56h3.355v1.088h-4.597v-6.065h4.444v1.077zM36.049 29.892c.42.144.77.4 1.036.77.215.297.36.626.431.975.082.349.113.687.113 1.005 0 .811-.164 1.488-.482 2.053-.442.749-1.119 1.129-2.032 1.129h-2.617v-6.065h2.617c.38 0 .687.051.934.133m-2.32.924v3.96h1.17c.596 0 1.016-.297 1.252-.882.134-.318.195-.708.195-1.16 0-.615-.092-1.087-.287-1.415s-.575-.493-1.16-.493h-1.17z"/></g></g>
</svg>
