<?xml version="1.0" encoding="utf-8"?>
<svg xmlns="http://www.w3.org/2000/svg" viewBox="0 0 40 40">
<g><path fill="currentColor" d="M0 0h40v40H0z"/><path fill="#fff" d="M20.354 31.892v-.134l-.01-.43c.02-.675.43-.941.43-.941.512-.369 1.177-.533 1.177-.533s0 .215-.112.696c-.113.482-.338.645-.543.717a1.8 1.8 0 0 0-.42.184c-.133.072-.522.42-.522.42zm3.666-2.017s0 .215-.113.696-.338.645-.543.716a1.8 1.8 0 0 0-.42.185c-.133.071-.522.42-.522.42v-.134l-.01-.43c.02-.675.43-.941.43-.941.512-.369 1.178-.533 1.178-.533zM6.03 17.169 19.924 5.54l.072-.092.113.092 13.862 11.6v2.907L20.016 8.365 6.052 20.056l-.02-2.897zm13.945 11.907h-3.758a.8.8 0 0 1-.799-.799v-4.525h9.112v4.526a.8.8 0 0 1-.798.798zm-4.27 3.174h8.518v.85H21.46l-.911 1.453H19.37l-.91-1.453h-2.765v-.85zm4.27-11.58h-.645c-.062 0-.533-.01-.594.164a1.5 1.5 0 0 0-.062.43h2.6c0-.143-.02-.296-.06-.43-.062-.184-.533-.163-.595-.163zm0 2.673h-5.232c0-.051.02-.307.379-.338.358-.02.48-.256.48-.256.41-.676 1.946-1.106 2.294-1.208.113-.03.184-.092.215-.164v-.123c.01-.809.297-1.146 1.219-1.146h1.29c.92 0 1.207.337 1.218 1.146v.123c.04.072.102.123.215.164.348.102 1.884.532 2.293 1.208 0 0 .123.235.481.256.359.02.38.287.38.338zm-2.16 6.532s0 .215-.113.696-.338.645-.543.716c-.205.072-.287.103-.41.185-.133.071-.522.42-.522.42v-.134l-.01-.43c.02-.675.43-.941.43-.941.512-.369 1.178-.533 1.178-.533zm.47 2.017v-.134l-.01-.43c.02-.675.43-.941.43-.941.512-.369 1.188-.533 1.188-.533s0 .215-.113.696c-.113.482-.338.645-.543.717-.204.072-.286.102-.41.184-.132.072-.521.42-.521.42z"/></g>
</svg>
