<?xml version="1.0" encoding="utf-8"?>
<svg xmlns="http://www.w3.org/2000/svg" viewBox="0 0 40 40">
<g><path fill="currentColor" d="M0 0h40v40H0z"/><path fill="#fff" d="M35.884 32.424H11.405V21.449H7.208v10.975H4.105V14.937h7.33v-7.35h17.068v7.35h7.381z"/><path fill="currentColor" d="M14.62 21.449v7.658h18.049v-7.658zM24.09 9.951v2.816h.624v-1.003h.645c.174 0 .328-.02.45-.072a.8.8 0 0 0 .298-.205.6.6 0 0 0 .163-.287 1 1 0 0 0 .052-.337c0-.113-.02-.226-.052-.338a.73.73 0 0 0-.46-.482 1.2 1.2 0 0 0-.45-.081h-1.27zM20.313 11.375c0 .204.03.399.092.573a1.32 1.32 0 0 0 .706.768c.174.071.369.112.584.112q.323-.002.583-.112a1.1 1.1 0 0 0 .43-.307c.123-.134.205-.287.277-.461.061-.174.092-.369.092-.574s-.031-.409-.092-.583a1.3 1.3 0 0 0-.277-.471 1.2 1.2 0 0 0-.43-.317 1.35 1.35 0 0 0-.583-.113q-.323.002-.584.113a1.2 1.2 0 0 0-.43.317 1.3 1.3 0 0 0-.276.471 1.8 1.8 0 0 0-.093.583M16.922 9.951v2.816h.624v-1.208h1.137v1.208h.614V9.95h-.614v1.086h-1.137V9.95zM14.2 11.835h-.604c0 .174.03.318.092.45a.85.85 0 0 0 .266.308c.113.082.246.143.39.174.142.04.296.061.45.061.194 0 .358-.02.501-.071q.215-.062.369-.185a.76.76 0 0 0 .225-.286.8.8 0 0 0 .072-.359.67.67 0 0 0-.103-.389.8.8 0 0 0-.235-.245 1.1 1.1 0 0 0-.277-.133 2 2 0 0 0-.215-.062l-.43-.113a2 2 0 0 1-.256-.092.3.3 0 0 1-.122-.092.3.3 0 0 1-.031-.133c0-.061.01-.112.04-.153.021-.041.062-.072.093-.103.04-.03.092-.04.133-.051a1 1 0 0 1 .154-.02c.071 0 .143 0 .204.02.062.01.123.03.174.072.052.03.093.071.123.133.031.05.052.123.052.215h.603a.84.84 0 0 0-.337-.697 1 1 0 0 0-.359-.163 2 2 0 0 0-.42-.051c-.122 0-.255.02-.378.05a.8.8 0 0 0-.338.165.8.8 0 0 0-.246.266.7.7 0 0 0-.092.378.65.65 0 0 0 .266.553c.082.062.164.113.266.154.103.03.205.072.308.092.102.03.204.051.297.082.102.02.194.051.266.082q.123.046.184.123c.051.04.072.112.072.184s-.02.133-.052.174a.3.3 0 0 1-.133.102.6.6 0 0 1-.184.052c-.061 0-.123.01-.174.01-.082 0-.154 0-.236-.03a.6.6 0 0 1-.194-.093.4.4 0 0 1-.133-.164.6.6 0 0 1-.051-.235z"/><path fill="#fff" d="M20.936 11.375c0-.123.01-.246.04-.359.031-.113.072-.215.134-.307a.7.7 0 0 1 .235-.215.803.803 0 0 1 .706 0 .6.6 0 0 1 .236.215.8.8 0 0 1 .123.307c.03.113.04.236.04.358 0 .123-.01.236-.04.348a.9.9 0 0 1-.123.298.7.7 0 0 1-.235.214.8.8 0 0 1-.359.082.7.7 0 0 1-.348-.082.8.8 0 0 1-.235-.214 1 1 0 0 1-.133-.297 1.3 1.3 0 0 1-.041-.349M24.715 11.282v-.84h.481c.072 0 .133 0 .205.011.061.01.123.03.174.061q.076.046.123.123c.03.062.04.123.04.215s-.01.164-.04.215a.4.4 0 0 1-.123.133.5.5 0 0 1-.174.062c-.062 0-.133.02-.205.02z"/></g>
</svg>
