<?xml version="1.0" encoding="utf-8"?>
<svg xmlns="http://www.w3.org/2000/svg" viewBox="0 0 40 40">
<path fill="currentColor" d="M0 0h40v40H0z"/><path fill="#fff" d="M12.348 23.558h2.734V34.87h-2.734v-4.75H8.13v4.75H5.396V23.558H8.13v4.3h4.218zm22.38 2.498v8.774h-2.047v-5.826c0-.614.123-1.494-.471-1.474-.543.02-.44.85-.44 1.474v5.826c-1.782-.02-3.645.04-5.365-.03v-5.796c0-.593.143-1.494-.471-1.474-.532.02-.41.87-.41 1.505v5.795h-2.047v-6.266c0-1.044-.103-2.221.123-3.01.235-.798.727-1.402 1.423-1.75.686-.349 1.689-.349 2.805-.349h3.184c2.304 0 3.389.686 3.727 2.6zm-6.03-8.774c1.659-.205 2.98.921 3 2.539.02 1.443-1.096 2.467-2.212 2.6-1.678.205-2.897-.942-3.03-2.283-.123-1.228.502-2.088 1.198-2.508a2.65 2.65 0 0 1 1.044-.348m-7.484 2.959c.655.593 1.208 1.28 1.864 1.883-.072.154-.215.246-.297.4-.645-.594-1.198-1.28-1.833-1.884.051-.174.215-.225.266-.4m-3.952 3.071c-.829-1.239-1.71-2.437-2.56-3.665.052-.174.226-.215.298-.358.614.808 1.576 2.2 2.293 3.235.092.122.328.42.328.43 0 .153-.287.297-.369.358zm3.522-3.635c-.051.175-.204.236-.266.4-1.065-1.075-2.16-2.099-3.163-3.235.092-.093.184-.195.266-.297 1.116.982 2.099 2.098 3.153 3.132zm-6.184-.993c-.061.164-.215.256-.296.4-.912-1.229-1.772-2.509-2.693-3.727.102-.123.205-.235.297-.358.973 1.157 1.771 2.488 2.692 3.696zm9.379-2.702c-.093.143-.164.297-.328.358-1.208-.88-2.396-1.781-3.624-2.642.081-.133.204-.235.296-.358 1.25.85 2.427 1.771 3.656 2.642m-6.819.061c-.051.154-.195.225-.266.358-1.106-1.013-2.079-2.17-3.123-3.235.041-.184.184-.266.266-.4 1.075 1.066 2.089 2.182 3.123 3.267zm-5.61-1.618c-.123.113-.195.267-.37.328-.849-1.26-1.73-2.488-2.62-3.696.051-.174.225-.215.297-.358.952 1.187 1.812 2.467 2.693 3.726m8.17-1.515c-.062.164-.205.236-.297.358-1.26-.819-2.427-1.73-3.655-2.57.092-.122.204-.235.327-.327 1.239.82 2.406 1.71 3.625 2.54m-6.215-.686c-.051.154-.184.236-.266.359-.696-.645-1.556-1.546-2.324-2.376-.144-.153-.758-.634-.768-.788 0-.143.297-.266.297-.369 1.044 1.034 2.047 2.11 3.061 3.174m1.966-2.252c-.072.04-.174.379-.297.4-.092.01-.809-.574-.932-.666-.89-.656-1.914-1.434-2.723-1.976.102-.123.205-.236.297-.359 1.27.82 2.395 1.782 3.655 2.611zM5.356 5.119c.235.123.757.236 1.259.4.379.122.88.399 1.198.399.286 0 .583-.195.9-.195 1.004-.02 1.7.471 2.263 1.157-1.085 1.085-2.15 2.201-3.286 3.235-.707-.47-1.229-1.413-.963-2.641-.41-.225-.91-.369-1.433-.492.041-.593-.092-1.361.062-1.842zm12.705 18.46c.952 1.248 1.812 2.6 2.764 3.859-.092.143-.184.276-.338.358-.9-1.29-1.812-2.58-2.723-3.86.051-.174.225-.214.297-.358"/>
</svg>
