<?xml version="1.0" encoding="utf-8"?>
<svg xmlns="http://www.w3.org/2000/svg" viewBox="0 0 40 40">
<path fill="currentColor" d="M0 0h40v40H0z"/><path fill="#fff" d="M28.728 17.302c1.648-.215 2.959.922 2.98 2.54.02 1.443-1.086 2.467-2.202 2.6-1.669.205-2.877-.942-3.01-2.294-.123-1.228.491-2.088 1.188-2.508a2.6 2.6 0 0 1 1.034-.348zm-7.433 2.96c.655.593 1.208 1.279 1.853 1.883-.072.164-.215.246-.297.4-.645-.595-1.187-1.28-1.812-1.885.051-.174.215-.225.266-.399zm-3.931 3.07c-.83-1.248-1.7-2.436-2.55-3.665.052-.174.226-.215.297-.368.615.809 1.567 2.211 2.283 3.235.093.133.328.42.328.43 0 .154-.287.297-.358.369m3.501-3.634c-.051.174-.205.235-.266.4-1.055-1.076-2.15-2.1-3.143-3.236.092-.092.184-.194.266-.297 1.106.983 2.089 2.11 3.143 3.143zm-6.153-.993c-.062.164-.205.256-.297.4-.911-1.23-1.76-2.52-2.672-3.738.102-.123.205-.235.297-.358.962 1.157 1.771 2.488 2.672 3.706zm9.327-2.703c-.082.143-.164.297-.328.358-1.198-.89-2.375-1.781-3.604-2.641.082-.133.205-.236.297-.358 1.25.85 2.406 1.77 3.635 2.641m-6.778.062c-.051.153-.194.225-.266.368-1.095-1.024-2.058-2.17-3.102-3.245.04-.185.184-.256.266-.4 1.065 1.065 2.068 2.181 3.102 3.277m-5.59-1.618c-.112.113-.194.276-.358.328-.85-1.26-1.72-2.488-2.61-3.707.04-.174.225-.215.296-.368.942 1.187 1.802 2.467 2.672 3.737zm8.14-1.526c-.062.164-.205.236-.297.369-1.25-.819-2.417-1.73-3.635-2.58.092-.123.205-.236.328-.328 1.228.82 2.385 1.71 3.604 2.54m-6.184-.685c-.051.153-.185.235-.267.358-.696-.645-1.545-1.546-2.313-2.375-.144-.154-.748-.635-.758-.799 0-.143.297-.266.297-.358 1.034 1.034 2.037 2.109 3.04 3.174m1.945-2.253c-.061.041-.164.379-.297.4-.092.01-.799-.574-.921-.666-.891-.655-1.905-1.433-2.703-1.986.092-.123.204-.236.297-.369 1.259.82 2.385 1.782 3.634 2.61zM5.528 5.13c.236.123.758.236 1.26.4.379.122.87.399 1.187.399.287 0 .584-.195.891-.205.993-.01 1.7.471 2.252 1.157-1.085 1.085-2.129 2.201-3.276 3.245-.706-.47-1.228-1.412-.962-2.641-.41-.225-.911-.369-1.423-.491.04-.594-.092-1.362.071-1.853zM18.152 23.6c.952 1.249 1.802 2.6 2.744 3.87a.88.88 0 0 1-.338.358c-.901-1.29-1.792-2.58-2.703-3.86.051-.174.215-.215.297-.368m16.575 2.488v8.784H32.69v-5.836c0-.624.123-1.495-.471-1.474-.543.02-.44.85-.44 1.474v5.836c-1.771-.02-3.614.04-5.334-.03v-5.806c0-.594.143-1.505-.471-1.474-.533.02-.41.87-.41 1.505v5.805h-2.037v-6.276c0-1.044-.102-2.222.123-3.01.225-.799.716-1.403 1.413-1.761.686-.348 1.679-.348 2.795-.348h3.163c2.283 0 3.368.686 3.706 2.6zm-19.524 1.402H12.92c-.153-1.065-1.177-1.884-2.344-1.884-2.12 0-2.918 1.802-2.918 3.686s.799 3.594 2.918 3.594c1.443 0 2.262-.993 2.436-2.406h2.294c-.246 2.682-2.089 4.392-4.73 4.392-3.328 0-5.283-2.488-5.283-5.59s1.955-5.672 5.283-5.672c2.365 0 4.351 1.382 4.638 3.87z"/>
</svg>
