<?xml version="1.0" encoding="utf-8"?>
<svg xmlns="http://www.w3.org/2000/svg" viewBox="0 0 40 40">
<path fill="currentColor" d="M40 0H0v40h40z"/><path fill="#fff" d="M29.25 7.146a2.333 2.333 0 1 0-4.668 0 2.333 2.333 0 1 0 4.669 0Zm-12.397 6.757s4.75-3.993 5.263-4.402c.235-.184.522-.225.921-.102.563.184 3.747 1.29 3.993 1.382.481.194.747.327.737.542l2.314 7.75s.522 1.424.297 2.007c-.43 1.075-1.464.748-1.577.655l-.43-.327-6.91 8.682 6.542 3.829c.522.338 1.054-.113 1.054-.113l.707-.594 1.064.717c-.348.297-1.105.911-1.443 1.085-.727.39-1.567.215-2.15-.184L6.359 22.565l.635-1.075 2.14 1.27 8.026-6.205s-.563-1.71-.593-1.874c0 0-.062-.46.297-.788l-.01.01Z"/><path fill="currentColor" d="M17.035 27.5c1.382.788 2.273 1.269 3.45 1.996 2.61-2.703 4.935-6.563 7.412-9.358-.655-2.037-.788-2.57-1.648-5.723-1.444 1.219-4.239 3.645-4.28 3.604 0 0 1.137 3.645 1.618 5.14.113.358.072.665-.307.89-.789.481-1.72.952-2.785 1.546-.594.338-2.59 1.474-3.491 1.894v.02l.03-.01Zm-3.644-2.171a133 133 0 0 1-3.276-1.945c2.294-1.864 5.232-4.044 7.402-5.62.359 1.125 1.075 3.52 1.341 4.31.062.194.021.306-.143.398-1.75.983-3.737 2.058-5.313 2.857h-.01Z"/>
</svg>
