<?xml version="1.0" encoding="utf-8"?>
<svg xmlns="http://www.w3.org/2000/svg" viewBox="0 0 40 40">
<path fill="currentColor" d="M40 0H0v40h40z"/><path fill="#fff" d="M29.03 25.234V14.038h2.268L19.979 3.653 8.691 14.038h2.268v11.196zM10.312 33.946c.04.277.112.482.236.615.205.247.574.37 1.077.37.308 0 .554-.031.739-.103.359-.123.544-.359.544-.708a.52.52 0 0 0-.267-.462c-.175-.102-.462-.205-.842-.287l-.656-.144c-.647-.143-1.088-.297-1.334-.461-.41-.277-.616-.719-.616-1.314 0-.544.195-.995.595-1.355.4-.359.985-.533 1.765-.533.647 0 1.2.174 1.652.513s.698.831.719 1.478h-1.222c-.02-.37-.184-.626-.492-.78-.205-.103-.452-.154-.76-.154-.338 0-.605.061-.8.195a.64.64 0 0 0-.298.554c0 .215.103.38.298.482q.185.108.8.247l1.068.246c.461.113.81.256 1.046.441.36.287.544.698.544 1.242a1.73 1.73 0 0 1-.646 1.375q-.647.555-1.816.554c-.78 0-1.427-.185-1.878-.544-.462-.36-.688-.852-.688-1.488h1.211zM19.68 35.28c-.461.472-1.118.708-1.99.708-.873 0-1.53-.236-1.991-.708-.616-.575-.924-1.416-.924-2.504s.308-1.94.924-2.504c.462-.472 1.118-.708 1.99-.708.873 0 1.53.236 1.991.708.616.554.914 1.385.914 2.504s-.308 1.919-.914 2.504m-.79-.914c.298-.37.442-.892.442-1.58 0-.687-.144-1.21-.442-1.58-.297-.37-.698-.554-1.19-.554-.493 0-.903.184-1.2.554-.298.37-.452.893-.452 1.58s.154 1.21.451 1.58q.447.555 1.201.554c.503 0 .903-.184 1.19-.554M21.568 29.759h1.262v4.977h3.028v1.088h-4.29zM31.196 30.836h-3.212v1.283h2.945v1.057h-2.945v1.56h3.355v1.088h-4.597v-6.065h4.444v1.077z"/>
</svg>
