<?xml version="1.0" encoding="utf-8"?>
<svg xmlns="http://www.w3.org/2000/svg" viewBox="0 0 40 40">
<path fill="currentColor" d="M40 0H0v40h40z"/><path fill="#fff" d="M28.371 18.94a2.976 2.976 0 0 0-2.98-2.979 2.975 2.975 0 0 0-2.978 2.98 2.975 2.975 0 0 0 2.979 2.979 2.976 2.976 0 0 0 2.98-2.98ZM4.72 23.005c.277 0 .717.02.717.02l.819.113.819.215s1.546.543 1.638.573c.993.369 2.406 1.086 3.266 1.086 1.362 0 3.87-1.792 5.529-1.854.45-.01.532 0 .675 0 1.628-.06 5.109 1.741 5.959 1.772h.604c1.085 0 3.798-1.556 5.416-1.556h.706c.973 0 3.942 1.412 5.314 1.412v2.069h-.052c-1.607-.021-4.78-1.413-5.416-1.413h-.409c-1.28 0-4.146 1.546-5.252 1.576H24.05c-1.331-.112-4.597-1.822-5.99-1.822-1.72 0-3.931 1.884-6.101 1.884-1.792 0-4.946-1.915-6.676-1.986-.706-.031-.338.01-.87 0-.235 0-.481.02-.706.071v-2.088l.327-.052s.43-.02.707-.02h-.02Zm16.289-3.983c-.43-.48-4.126-3.573-5.641-4.924-.645-.584-1.403-.584-1.864-.574H8.508c-.727 0-1.31.584-1.31 1.311s.583 1.31 1.31 1.31h4.433c.83 0 1.024.185 1.485.553 1.187.942 4.7 4.167 4.7 4.167.234.236.572.379.93.379.728 0 1.311-.584 1.311-1.31a1.33 1.33 0 0 0-.368-.912z"/>
</svg>
