<?xml version="1.0" encoding="utf-8"?>
<svg xmlns="http://www.w3.org/2000/svg" viewBox="0 0 40 40">
<path fill="currentColor" d="M0 0h40v40H0z"/><path fill="#fff" d="M19.76 4.228h2.774v31.493H19.76zM28.299 6.931a2.593 2.593 0 0 1 2.59-2.59 2.587 2.587 0 0 1 2.59 2.59 2.587 2.587 0 0 1-2.59 2.59 2.587 2.587 0 0 1-2.59-2.59M25.965 11.856c-.573.768-.635 1.689-.635 1.689v8.651-.01c0 .563.46 1.024 1.024 1.024.563 0 1.024-.461 1.024-1.024V15.06c0-.246.194-.44.44-.44s.44.194.44.44v19.708000000000002c0 .553.522.973 1.024.973.614 0 1.116-.471 1.116-1.024V27.93v.072-4.628c0-.245.194-.44.44-.44h.113c.245 0 .44.195.44.44v4.628-.072 6.778c.02.594.512 1.034 1.157 1.034.522 0 1.003-.512 1.003-.993h.02V15.05c0-.246.205-.44.451-.44s.44.194.44.44v7.126c0 .563.45 1.023 1.014 1.023.563 0 1.014-.46 1.014-1.023V13.39s-.113-.809-.471-1.34c0 0-.87-1.506-2.673-1.506h-4.832c-1.72.01-2.539 1.32-2.539 1.32zM8.12 6.962a2.593 2.593 0 0 1 2.59-2.59 2.587 2.587 0 0 1 2.59 2.59 2.587 2.587 0 0 1-2.59 2.59 2.587 2.587 0 0 1-2.59-2.59M13.403 10.412c1.044 0 1.34.358 1.7 1.024.399.737 1.023 3.42 1.023 3.42l1.566 6.03.113.43c.164.593-.358 1.187-.758 1.249-.604.102-1.064-.205-1.208-.615l-1.802-6.982c-.071-.358-.215-.44-.512-.44-.204 0-.48.164-.44.553v.04l2.836 11.262H13.23v8.375c0 .553-.45 1.003-1.014 1.003-.563 0-1.024-.46-1.024-1.023v-8.355h-1.034v8.355c0 .563-.45 1.023-1.013 1.023s-1.014-.46-1.024-1.023v-8.355H5.376l2.826-11.261v-.113c.02-.205-.164-.491-.43-.491-.41 0-.502.266-.543.511l-1.648 6.584c-.205.87-.768 1.126-1.341.972-.645-.174-.84-.737-.686-1.351L5.1 15.173s.757-2.713 1.382-3.717c.532-.85.614-1.034 1.873-1.024h5.037z"/>
</svg>
