<?xml version="1.0" encoding="utf-8"?>
<svg xmlns="http://www.w3.org/2000/svg" viewBox="0 0 40 40">
<g><path fill="currentColor" d="M0 0h40v40H0z"/><g fill="#fff"><path d="M19.857 4.234h1.725V23.8h-1.725zM25.162 5.917c0-.888.714-1.612 1.602-1.612s1.612.724 1.612 1.612c0 .887-.724 1.612-1.612 1.612a1.607 1.607 0 0 1-1.602-1.612M23.712 8.967a2.2 2.2 0 0 0-.398 1.05v5.377c0 .347.286.632.633.632a.636.636 0 0 0 .633-.632v-4.427c0-.153.122-.276.265-.276s.276.123.276.276v12.241c0 .347.326.613.632.613.388 0 .694-.296.694-.633v-4.223.04-2.876c0-.154.123-.276.276-.276h.071c.153 0 .276.123.276.276v2.876-.04 4.213c.01.367.316.642.714.642.326 0 .622-.316.622-.622h.01V10.967c0-.153.123-.276.276-.276s.276.123.276.276v4.427a.63.63 0 0 0 .632.632.63.63 0 0 0 .633-.632V9.936s-.072-.5-.296-.836c0 0-.54-.939-1.663-.939h-3.01a1.93 1.93 0 0 0-1.582.816zM12.623 5.927a1.607 1.607 0 1 1 1.612 1.612 1.615 1.615 0 0 1-1.612-1.612M15.897 8.08c.653 0 .837.224 1.061.632.245.46.633 2.122.633 2.122l.97 3.744.07.265c.103.367-.224.735-.469.786-.377.06-.663-.123-.755-.388l-1.112-4.336c-.04-.224-.133-.275-.316-.275-.123 0-.306.102-.276.347v.02l1.765 6.998h-1.673v5.203a.627.627 0 0 1-.633.622.636.636 0 0 1-.632-.632v-5.193h-.643v5.193a.636.636 0 0 1-.633.632c-.347 0-.622-.285-.643-.632v-5.193h-1.704l1.755-6.998v-.071c.01-.123-.102-.306-.275-.306-.255 0-.306.163-.337.316l-1.02 4.09c-.123.541-.48.694-.837.613-.408-.102-.52-.46-.429-.847l.97-3.764s.47-1.694.857-2.306c.337-.53.388-.642 1.163-.632h3.133z"/></g><g fill="#fff"><path d="M8.92 29.227v1.347H5.398v1.683H8.45v1.245H5.399v3.01H3.797v-7.275h5.112zM11.45 29.227v5.927H15v1.347H9.857v-7.274h1.603zM21.235 35.95c-.53.48-1.285.724-2.285.724-2.062 0-3.102-.979-3.102-2.928v-4.519h1.602v4.52c0 .49.091.846.265 1.091.235.326.653.49 1.235.49.581 0 .949-.133 1.183-.388.215-.235.327-.632.327-1.194v-4.519h1.602v4.52q0 1.453-.827 2.203M25.031 35.124c.286.204.663.306 1.123.306.948 0 1.418-.306 1.418-.908 0-.337-.225-.602-.674-.786-.091-.04-.581-.173-1.49-.418-.673-.173-1.173-.388-1.49-.633-.458-.346-.683-.826-.683-1.438 0-.694.296-1.255.878-1.663.51-.357 1.122-.54 1.847-.54.836 0 1.51.183 2.03.54.592.408.888 1.02.888 1.806h-1.551q-.06-1.102-1.439-1.102-.443 0-.735.184c-.244.153-.367.357-.367.642s.133.46.408.582c.194.092.786.265 1.766.52q.857.214 1.285.49c.582.388.878.928.878 1.632s-.255 1.245-.765 1.673c-.541.439-1.296.663-2.266.663-.877 0-1.602-.204-2.163-.622-.633-.47-.939-1.122-.939-1.969h1.551q0 .674.49 1.04M31.655 29.227v2.795h2.949v-2.795h1.602v7.274h-1.602v-3.142h-2.95V36.5h-1.601v-7.274z"/></g></g>
</svg>
