<?xml version="1.0" encoding="utf-8"?>
<svg xmlns="http://www.w3.org/2000/svg" viewBox="0 0 40 40">
<g><path fill="currentColor" d="M0 0h40v40H0z"/><path fill="#fff" fill-rule="evenodd" d="M32.842 19.872v14.671H8.004v-14.66l-2.846-.011L20.423 5.959l15.265 13.913z" clip-rule="evenodd"/><path fill="currentColor" fill-rule="evenodd" d="M24.274 19.135c-.184.276-3.328 4.791-3.932 6.092s-.86 2.119.093 2.068c.952-.041.952-.133 1.228-.236.276-.092.747-.327.747-.327l-.9 2.467s-1.209.47-2.908.563c-1.7.092-2.488-.788-2.508-1.812s.716-2.672.819-2.887c.092-.205.46-.912.46-.912h-1.996l.02-.184s2.417-1.556 3.44-2.743c.134-.154 1.884-2.09 1.884-2.09h3.563zM21.356 17.302c0-.645.87-1.167 1.945-1.167s1.945.522 1.945 1.167-.87 1.178-1.945 1.178-1.945-.523-1.945-1.178" clip-rule="evenodd"/></g>
</svg>
