<?xml version="1.0" encoding="utf-8"?>
<svg xmlns="http://www.w3.org/2000/svg" viewBox="0 0 40 40">
<g><path fill="currentColor" d="M0 0h40v40H0z"/><path fill="#fff" fill-rule="evenodd" d="M7.709 13.187V9.255h5.498V6.83h-3.184V4.925h8.62v1.904h-3.47v2.426h7.985c.983 0 2.662.983 2.662 2.427v3.644h-3.645v-1.095c0-.87-.348-1.044-1.27-1.044H7.71M29.722 23.333l.809-7.26h1.76l-2.027 17.815H18.122l-2.774-17.814h1.935l1.023 7.258c.215-.092.43-.153.697-.153.88 0 1.965 1.7 3.358.737.747-.512 1.064-.737 1.822-.737.082 0 .164.01.246.04.266.083.563.287.89.482.42.256.891.522 1.403.512a1.5 1.5 0 0 0 .82-.297c.746-.512 1.064-.737 1.821-.737.123 0 .236.092.38.154z" clip-rule="evenodd"/><path fill="currentColor" fill-rule="evenodd" d="M19.565 32.209h9.193l.901-7.77a1 1 0 0 0-.256-.052c-.081 0-.43 0-.634.041-.666.143-1.198.665-1.74.89a1.2 1.2 0 0 1-.4.103c-.082 0-.174 0-.256-.02-.45-.103-1.566-1.004-2.211-1.004-.185 0-.318 0-.44.02-.042 0-.072.021-.103.042v-.041c-.952.204-1.638 1.157-2.416.983-.45-.103-1.567-1.004-2.212-1.004-.184 0-.317 0-.43.02-.04 0-.071.021-.102.042l1.116 7.74z" clip-rule="evenodd"/><path fill="#fff" fill-rule="evenodd" d="M22.451 21.029c0-.85 1.536-4.76 1.536-4.76s1.536 3.91 1.536 4.76-.686 1.536-1.536 1.536-1.536-.686-1.536-1.536" clip-rule="evenodd"/></g>
</svg>
