<?xml version="1.0" encoding="utf-8"?>
<svg xmlns="http://www.w3.org/2000/svg" viewBox="0 0 40 40">
<g><path fill="currentColor" d="M0 0h40v40H0z"/><path fill="#fff" d="M22.678 16.524s2.293 3.317 0 3.307c-2.294 0 0-3.307 0-3.307M16.564 19.862s2.294 3.317 0 3.307c-2.293 0 0-3.307 0-3.307M5.139 31.625c.399.103.798.103 1.198.103 1.689 0 3.143-1.229 4.822-1.229 1.76 0 3.45 1.393 4.955 1.393 1.669 0 3.542-1.567 5.457-1.567 1.914 0 3.48 1.567 5.119 1.567 1.31 0 3.542-1.7 6.02-1.7.727 0 1.464.235 2.16.43v1.996c-.737-.297-1.413-.634-2.232-.634-2.324 0-4.116 1.7-6.511 1.7-1.567 0-2.99-1.567-4.556-1.567-1.864 0-3.512 1.566-5.416 1.566-1.802 0-3.246-1.392-4.986-1.392s-3.43 1.228-5.385 1.228c-.205 0-.43-.071-.635-.102v-1.792zM24.151 9.808l-1.597-.164-1.597-.164a1.4 1.4 0 0 1-1.126-.829 1.3 1.3 0 0 1 0-1.054c.133-.328.389-.604.737-.758.113-.051.225-.082.348-.092a1 1 0 0 1 .348 0l2.447.235 2.447.236.072.02 4.126 1.045 2.467-1.065 2.017-.86v6.071l-4.577 1.996-4.658 2.038-3.082-.43-3.081-.43-1.659-1.608-1.658-1.607a1.5 1.5 0 0 1-.164-.194l-.123-.216a1.2 1.2 0 0 1 0-.962c.123-.297.358-.553.676-.686.245-.102.502-.123.737-.072.246.052.47.164.645.338l1.3 1.26 1.3 1.259s.113.051.175.04a.5.5 0 0 0 .133-.04l1.7-.717 1.699-.716.092-.84c.03-.328.061-.645.082-.799a.22.22 0 0 0-.072-.153.5.5 0 0 0-.123-.061zM5.139 27.776c.399.102.798.102 1.198.102 1.689 0 3.143-1.228 4.822-1.228 1.76 0 3.45 1.392 4.955 1.392 1.669 0 3.542-1.566 5.457-1.566 1.914 0 3.48 1.566 5.119 1.566 1.31 0 3.542-1.7 6.02-1.7.727 0 1.464.236 2.16.43v1.997c-.737-.297-1.413-.635-2.232-.635-2.324 0-4.116 1.7-6.511 1.7-1.567 0-2.99-1.567-4.556-1.567-1.864 0-3.512 1.567-5.416 1.567-1.802 0-3.246-1.393-4.986-1.393s-3.43 1.229-5.385 1.229c-.205 0-.43-.072-.635-.103v-1.791zM19.35 22.77s2.293 3.317 0 3.306c-2.294 0 0-3.307 0-3.307"/></g>
</svg>
