<?xml version="1.0" encoding="utf-8"?>
<svg xmlns="http://www.w3.org/2000/svg" viewBox="0 0 40 40">
<g clip-path="url(#a)"><g><mask id="b" width="40" height="41" x="0" y="0" maskUnits="userSpaceOnUse" style="mask-type:luminance"><g><path fill="#fff" d="M40 .03H0v39.98h40z"/></g></mask><g mask="url(#b)"><g><g><mask id="c" width="40" height="41" x="0" y="0" maskUnits="userSpaceOnUse" style="mask-type:luminance"><g><path fill="#fff" d="M40 .03H0v39.98h40z"/></g></mask><g mask="url(#c)"><g><path fill="#fff" d="M39.53 21.11 21.17 39.53a1.57 1.57 0 0 1-2.22 0L.594 21.11a1.58 1.58 0 0 1 0-2.23L18.952.46a1.57 1.57 0 0 1 2.219 0L39.53 18.88a1.58 1.58 0 0 1 0 2.23"/><path fill="#231F20" d="M.87 19.116 19.176.746a1.235 1.235 0 0 1 1.759 0l18.307 18.37c.491.49.491 1.278 0 1.768l-18.307 18.37c-.491.49-1.279.49-1.76 0L.87 20.884a1.246 1.246 0 0 1 0-1.768"/><path stroke="#231F20" stroke-miterlimit="3.86" stroke-width=".09" d="M.87 19.116 19.176.746a1.235 1.235 0 0 1 1.759 0l18.307 18.37c.491.49.491 1.278 0 1.768l-18.307 18.37c-.491.49-1.279.49-1.76 0L.87 20.884a1.246 1.246 0 0 1 0-1.768Z"/><path fill="#FFC425" d="M1.933 19.443 19.504 1.809a.78.78 0 0 1 1.104 0L38.19 19.443a.777.777 0 0 1 0 1.104L20.609 38.18a.78.78 0 0 1-1.105 0L1.933 20.547a.777.777 0 0 1 0-1.104"/><path stroke="#231F20" stroke-miterlimit="3.86" stroke-width=".09" d="M1.933 19.443 19.504 1.809a.78.78 0 0 1 1.104 0L38.19 19.443a.777.777 0 0 1 0 1.104L20.609 38.18a.78.78 0 0 1-1.105 0L1.933 20.547a.777.777 0 0 1 0-1.104Z"/><path fill="#231F20" fill-rule="evenodd" d="M12.038 16.162v-2.566h3.58V12.01H13.54v-1.247h5.615v1.247h-2.26v1.585h5.195c.645 0 1.729.644 1.729 1.584v2.382h-2.373v-.716c0-.562-.225-.684-.828-.684h-8.591M26.377 22.796l.521-4.743h1.146l-1.32 11.643H18.82l-1.81-11.643h1.257l.665 4.743c.143-.061.287-.102.45-.102.573 0 1.279 1.114 2.189.48.49-.337.695-.48 1.186-.48a.33.33 0 0 1 .164.03c.174.051.368.184.583.317.276.174.583.337.91.337.174 0 .348-.06.532-.194.49-.337.695-.48 1.186-.48.082 0 .154.061.246.102" clip-rule="evenodd"/><path fill="#FFC425" fill-rule="evenodd" d="M19.76 28.592h5.983l.583-5.08a.6.6 0 0 0-.164-.031c-.051 0-.276 0-.409.03-.43.092-.777.44-1.135.583a.9.9 0 0 1-.266.072c-.051 0-.113 0-.164-.01-.296-.062-1.023-.655-1.442-.655-.112 0-.204 0-.286.01-.031 0-.041.02-.072.02v-.03c-.624.133-1.064.757-1.575.644-.296-.061-1.023-.654-1.442-.654-.112 0-.205 0-.286.01-.031 0-.041.02-.072.02l.726 5.06" clip-rule="evenodd"/><path fill="#231F20" fill-rule="evenodd" d="M21.631 21.293c0-.552 1.003-3.118 1.003-3.118s1.002 2.556 1.002 3.118a.997.997 0 0 1-1.002 1.002c-.553 0-1.003-.45-1.003-1.002" clip-rule="evenodd"/></g></g></g></g></g></g></g><defs><clipPath id="a"><path fill="#fff" d="M0 0h40v40H0z"/></clipPath></defs>
</svg>
