<?xml version="1.0" encoding="utf-8"?>
<svg xmlns="http://www.w3.org/2000/svg" viewBox="0 0 40 40">
<path fill="currentColor" d="M0 0h40v40H0z"/><path fill="#fff" d="M19.955 11.16a2.39 2.39 0 0 1 2.386-2.386 2.38 2.38 0 0 1 2.385 2.386 2.38 2.38 0 0 1-2.386 2.385 2.38 2.38 0 0 1-2.385-2.386M8.64 8.969a2.39 2.39 0 0 1 2.386-2.386 2.38 2.38 0 0 1 2.386 2.386 2.38 2.38 0 0 1-2.386 2.385 2.38 2.38 0 0 1-2.385-2.385M12.43 19.432a.97.97 0 0 1-.43-.43l-1.352-2.56-1.362 3.584c.062.071.123.163.184.245l3.686 5.764c.154.236.246.482.276.727l-.03-.133 1.208 5.232c.194.83-.215 1.617-.921 1.75-.707.134-1.434-.43-1.628-1.259l-1.219-5.21c-.02-.073-.04-.144-.04-.216l-2.878-4.075.267 3.46c.03.216.03.42 0 .625v-.05c0 .112-.02.235-.052.358l-1.423 5.17c-.225.819-.972 1.361-1.668 1.197-.697-.153-1.075-.952-.85-1.77l1.423-5.17c.02-.072.03-.134.061-.195l-1.003-6.44s-.01-.072 0-.113a1.83 1.83 0 0 1 .102-1.064l2.13-5.6c.43-1.127 1.771-1.72 3-1.342a2.28 2.28 0 0 1 1.392 1.188l2.355 4.371 3.542.369c.563.061.973.563.911 1.126v.123a1.04 1.04 0 0 1-1.136.911l-4.075-.43a1 1 0 0 1-.44-.153h.03z"/><path fill="#fff" d="M19.955 18.828V16.76a2.386 2.386 0 0 1 2.375-2.386c1.31 0 2.375 1.075 2.386 2.386v1.617h4.821c.564 0 1.025.461 1.025 1.024v.143c0 .564-.461 1.024-1.024 1.024h-4.822v1.823h5.19c.39.02.748.256.912.634l2.467 5.55h1.74c.563 0 1.024.46 1.024 1.023v.03c0 .564-.46 1.025-1.024 1.025h-2.887c-.41 0-.768-.246-.931-.584l-.154-.338a8.03 8.03 0 0 1-6.92 3.962c-4.434 0-8.027-3.593-8.027-8.016a8 8 0 0 1 3.839-6.839z"/><path fill="currentColor" d="M19.954 20.507a6.655 6.655 0 0 0 4.187 11.825c2.815 0 5.211-1.75 6.194-4.218L29.117 25.4h-6.153.03-1.351c-.942 0-1.71-.768-1.71-1.71v-3.184z"/>
</svg>
