<?xml version="1.0" encoding="utf-8"?>
<svg xmlns="http://www.w3.org/2000/svg" viewBox="0 0 40 40">
<g><path fill="currentColor" d="M0 0h40v40H0z"/><path fill="#fff" d="M13.969 9.203c0-1.434 1.166-2.6 2.6-2.6s2.6 1.166 2.6 2.6-1.166 2.6-2.6 2.6a2.6 2.6 0 0 1-2.6-2.6M16.559 12.391c1.61 0 2.476 1.27 2.476 2.3v1.786h4.767c.835 0 1.176.722 1.165 1.227 0 .537-.381 1.104-1.186 1.104h-4.746v1.888h5.21c.918 0 1.094.372 1.238.795l2.033 5.355h1.929c.722 0 1.217.515 1.217 1.31 0 .939-.577 1.083-1.227 1.083h-3.508c-.402 0-.743-.867-.743-.867s-2.084 3.88-6.933 3.9c-4.53.021-8.089-3.652-8.15-8.315-.052-4.065 3.517-6.79 4.013-6.892v-2.507c0-.671.887-2.177 2.424-2.177z"/><path fill="currentColor" d="M14.207 18.89v3.52c0 .618.496 1.557 1.435 1.557h7.83l.97 2.528s-1.537 4.25-6.139 4.199c-4.374-.052-6.654-3.745-6.613-6.613.041-2.662 1.517-4.447 2.507-5.2z"/></g>
</svg>
